<?xml version="1.0" encoding="UTF-8"?>
<!DOCTYPE svg PUBLIC "-//W3C//DTD SVG 1.1//EN" "http://www.w3.org/Graphics/SVG/1.1/DTD/svg11.dtd">
<!-- Creator: CorelDRAW -->
<svg xmlns="http://www.w3.org/2000/svg" xml:space="preserve" width="1.01098in" height="1.11779in" version="1.1" style="shape-rendering:geometricPrecision; text-rendering:geometricPrecision; image-rendering:optimizeQuality; fill-rule:evenodd; clip-rule:evenodd"
viewBox="0 0 105.76 116.93"
 xmlns:xlink="http://www.w3.org/1999/xlink"
 xmlns:xodm="http://www.corel.com/coreldraw/odm/2003">
 <defs>
  <style type="text/css">
   <![CDATA[
    .fil0 {fill:#303030;fill-rule:nonzero}
   ]]>
  </style>
 </defs>
 <g id="Layer_x0020_1">
  <metadata id="CorelCorpID_0Corel-Layer"/>
  <g id="_1694363079088">
   <path class="fil0" d="M99.02 13.47l-92.29 0c-3.71,0 -6.73,-3.01 -6.73,-6.73 0,-3.71 3.01,-6.73 6.73,-6.73l92.29 0c3.71,0 6.73,3.01 6.73,6.73 0,3.71 -3.01,6.73 -6.73,6.73z"/>
   <g>
    <path class="fil0" d="M95 29.03l-35.89 83.75c-1.03,2.51 -3.5,4.15 -6.22,4.15 -0.94,0 -1.88,-0.2 -2.75,-0.59l0 0c-2.51,-1.03 -4.15,-3.5 -4.15,-6.22 0,-0.94 0.2,-1.88 0.59,-2.75l35.89 -83.76c1.05,-2.51 3.5,-4.13 6.22,-4.13 0.96,0 1.9,0.2 2.77,0.59l0 0c2.49,1.05 4.12,3.5 4.12,6.2 0,0.91 -0.18,1.82 -0.55,2.66l0 0.11 -0.03 0zm0 0l0 0 0 0z"/>
   </g>
   <g>
    <path class="fil0" d="M69.69 29.03l-23.29 54.46c-1.03,2.51 -3.5,4.15 -6.22,4.15 -0.94,0 -1.88,-0.2 -2.75,-0.59l0 0c-2.49,-1.05 -4.12,-3.5 -4.12,-6.2 0,-0.91 0.18,-1.82 0.55,-2.66l23.38 -54.48c1.05,-2.51 3.5,-4.13 6.22,-4.13 0.96,0 1.9,0.2 2.77,0.59l0 0c2.48,1.05 4.09,3.5 4.09,6.19 0,0.91 -0.18,1.82 -0.55,2.67l-0.08 0zm0 0l0 0 0 0z"/>
   </g>
   <g>
    <path class="fil0" d="M44.56 29.03l-10.75 25.32c-1.05,2.51 -3.5,4.13 -6.22,4.13 -0.96,0 -1.9,-0.2 -2.77,-0.59l0 0c-2.51,-1.03 -4.15,-3.5 -4.15,-6.22 0,-0.94 0.2,-1.88 0.59,-2.75l10.75 -25.32c1.05,-2.51 3.5,-4.13 6.22,-4.13 0.96,0 1.9,0.2 2.77,0.59l0 0c2.49,1.05 4.12,3.5 4.12,6.2 0,0.91 -0.18,1.82 -0.55,2.66l0 0.11 -0.01 0zm0 0l0 0 0 0z"/>
   </g>
  </g>
 </g>
</svg>
