<?xml version="1.0" encoding="UTF-8"?>
<!DOCTYPE svg PUBLIC "-//W3C//DTD SVG 1.1//EN" "http://www.w3.org/Graphics/SVG/1.1/DTD/svg11.dtd">
<!-- Creator: CorelDRAW -->
<svg xmlns="http://www.w3.org/2000/svg" xml:space="preserve" width="4.83411in" height="2.49509in" version="1.1" style="shape-rendering:geometricPrecision; text-rendering:geometricPrecision; image-rendering:optimizeQuality; fill-rule:evenodd; clip-rule:evenodd"
viewBox="0 0 3665.24 1891.79"
 xmlns:xlink="http://www.w3.org/1999/xlink"
 xmlns:xodm="http://www.corel.com/coreldraw/odm/2003">
 <defs>
  <style type="text/css">
   <![CDATA[
    .fil0 {fill:#303030}
   ]]>
  </style>
 </defs>
 <g id="Layer_x0020_1">
  <metadata id="CorelCorpID_0Corel-Layer"/>
  <path class="fil0" d="M1069.06 909.19c5.4,-103.87 31.51,-202.25 74.33,-291.05 127.61,242.65 337.54,416.77 659.78,379.6 69.78,134.38 105.49,191.42 96.21,335.2 -298.96,-31.89 -670.79,-142.71 -830.32,-423.75z"/>
  <path class="fil0" d="M1805.99 1713.04c-346.43,-11.64 -634.39,-253.85 -715.25,-578.08 217.35,190.14 511.91,332.81 807.13,312.23 -4.9,122.61 -37.97,193.77 -91.88,265.85z"/>
  <path class="fil0" d="M2205.11 1616.39c-73.18,41.01 -153.77,70.35 -239.3,85.46 77.27,-220.71 96.64,-540.48 -46.9,-738.68 60.2,-106.35 133.86,-187.95 237.51,-255.54 122.14,270.71 219.56,633.55 48.69,908.77z"/>
  <path class="fil0" d="M2504.23 585.77c58.65,108.14 91.95,232.02 91.95,363.67 0,193.02 -71.61,369.3 -189.66,503.79 35.9,-259.41 13.64,-571.18 -137.37,-793.71 63.61,-58.3 143.3,-65.61 235.08,-73.75z"/>
  <path class="fil0" d="M2207.85 284.04c73.44,41.58 139.3,94.94 195.04,157.53 -208.45,134.35 -333.24,69.6 -596.72,434.41 -128.58,13.4 -205.37,-10.72 -314.15,-76.66 277.54,-412.35 460.91,-417.12 715.82,-515.28z"/>
  <path class="fil0" d="M1832.1 185.37c55.3,0 109.2,5.93 161.17,17.1 -231.51,119.11 -509.13,327.88 -606.46,535.23 -112.95,-69.5 -112.12,-111.39 -191.82,-210.1 136.83,-206.23 371.07,-342.22 637.11,-342.22z"/>
  <g id="_1694416675184">
   <path class="fil0" d="M1333.08 1658.68c-689.02,-422.75 -348.13,-1535.12 -1189.57,-1655.07 -44.84,-6.39 -91.85,-4.45 -135.21,7.12l-8.3 20.16c67.45,61.85 576.21,-8.16 703.33,974.94 83.48,645.64 497.58,702.76 705.19,885.96 -26.38,-76.89 -50.98,-158.03 -75.44,-233.11z"/>
   <path class="fil0" d="M2332.15 1658.68c689.03,-422.75 348.13,-1535.12 1189.57,-1655.07 44.84,-6.39 91.85,-4.45 135.21,7.12l8.3 20.16c-67.45,61.85 -576.21,-8.16 -703.33,974.94 -83.48,645.64 -497.58,702.76 -705.19,885.96 26.38,-76.89 50.98,-158.03 75.44,-233.11z"/>
  </g>
 </g>
</svg>
