<?xml version="1.0" encoding="UTF-8"?>
<!DOCTYPE svg PUBLIC "-//W3C//DTD SVG 1.1//EN" "http://www.w3.org/Graphics/SVG/1.1/DTD/svg11.dtd">
<!-- Creator: CorelDRAW -->
<svg xmlns="http://www.w3.org/2000/svg" xml:space="preserve" width="1.33004in" height="1.73298in" version="1.1" style="shape-rendering:geometricPrecision; text-rendering:geometricPrecision; image-rendering:optimizeQuality; fill-rule:evenodd; clip-rule:evenodd"
viewBox="0 0 176.7 230.24"
 xmlns:xlink="http://www.w3.org/1999/xlink"
 xmlns:xodm="http://www.corel.com/coreldraw/odm/2003">
 <defs>
  <style type="text/css">
   <![CDATA[
    .fil2 {fill:#201E1E}
    .fil0 {fill:#303030}
    .fil1 {fill:white}
    .fil3 {fill:#303030;fill-rule:nonzero}
   ]]>
  </style>
 </defs>
 <g id="Layer_x0020_1">
  <metadata id="CorelCorpID_0Corel-Layer"/>
  <path class="fil0" d="M142.07 193.57c15.02,-4.42 31.63,8.79 13.59,26.13 -16.76,16.1 -15.19,11.14 -32.85,2.39 -24.69,-12.24 -54.52,-8.94 -78.38,3.58 -10.73,5.63 -13.17,7.61 -29.26,-12.54 -7.14,-8.94 -1.23,-22.4 20.16,-20.16 -4.78,-5.18 -31.09,-35.82 -32.85,-40.01 -1.28,-3.07 -4.7,-53.82 -0.3,-59.57 2.8,-3.66 4.69,-2.36 6.87,-1.34 0,-27.73 21.48,-31.14 26.58,-38.52 3.11,-4.51 8.92,-14.36 11.35,-19.41l-3.58 -0.75c1.03,-5.83 2.13,-1.71 2.54,-5.82l-2.69 -2.69c2.87,-3.15 2.99,-2.6 2.99,-4.93 -3.15,-1.3 -2.3,-0.57 -3.28,-2.54 0.6,-0.4 23.66,-12.76 25.38,-13.14 15.91,-3.48 2.98,15.14 11.5,16.42 6.54,0.98 7.34,-9.89 -0.75,-12.09l-0.75 -1.49c5.74,-8.88 19.15,-10.44 20.01,1.19 0.3,4.08 0.2,8.58 1.79,12.39 2.41,0.93 1.37,0.75 3.88,0.75 0.18,-0.6 -2.67,-22.76 12.39,-16.87 7.14,2.79 14.76,12.63 20.01,16.12l-3.58 1.05c1.52,2.82 2.05,2.94 2.99,5.52 -2.66,0.93 -2.23,1.05 -4.63,1.05l-0.15 1.49c2.33,1.4 3.09,2.29 4.93,4.33l-1.34 1.64c-4.31,-0.39 -0.88,-1.64 -5.23,-1.64 1.77,6.02 9.14,12.84 12.84,18.21 6.56,9.54 2.57,2.78 12.09,9.7 10.43,7.58 15.23,17.67 15.23,30.31l2.54 -0.9c5.68,4.54 4.56,5.62 4.48,17.62 -0.06,9.49 0.14,35.77 -3.13,44.49 -2.56,6.83 -13.81,17.27 -18.96,23.74 -4.9,6.16 -8.85,9.79 -12.39,16.27zm-92 -138.93l-2.19 -0.18 -0.18 -1.49 0.53 -0.88 0.96 -1.4 2.46 -0.44 1.67 0.26 1.93 0.53 1.49 0 0.79 -0.7 1.31 -0.88 1.32 -0.79 0.44 0.96 1.32 0.35 1.49 -0.79 1.49 -0.7 1.49 -1.23 1.4 -1.32 1.58 -0.09 2.02 0 1.31 -0.26 2.1 -1.75 1.23 -1.23 1.49 -0.53 0.96 -0.09 1.58 1.14 0.61 1.05 0 1.14 -0.18 0.88 -0.61 1.58 -0.7 0.96 0.26 12.45 0.53 1.58 1.23 1.58 0.79 1.84 -0.35 1.23 -1.4 0.26 -1.93 0.09 -1.58 0.7 -1.23 1.05 -2.19 -0.88 -3.42 -3.86 -2.72 -2.46 -3.07 -2.1 -2.89 -1.84 -3.6 -1.49 -2.54 -1.05 -2.54 -1.05 -2.46 -0.18zm57.41 -10.12c11.48,6.78 10.2,1.03 13.39,6.06 1.76,2.79 1.71,1.56 3.6,3l1 1.07 -0.47 1.33c-6.45,1.67 -4.89,1.07 -10.86,4.6 -4.01,2.37 -2.29,1.05 -5.33,3.86 -3.59,3.32 -2.2,1.99 -5.19,5.66l-1.53 -0.47c-1.22,-2.43 -1.25,-3.91 -1.33,-6.66 2.33,-1.9 0.97,-0.97 2.93,-1.2 1.81,-0.21 2.4,-0.96 3.86,-2.13 3.15,0.36 1.71,0.49 4.06,-0.67 3.01,-1.48 2.95,-0.76 3.93,-1.07 1.54,-0.49 1.65,-1.23 1.87,-1.86 -2.22,-1.16 -12.16,-8.42 -12.92,-9.72 -0.41,-0.7 -0.14,-1.5 0,-2l2.4 -0.47 0.6 0.67zm-27.98 28.39l18.55 -0.12 1.25 0.3 0 0.95 -0.3 0.83 -4.87 5.65 -2.67 3.51 -1.07 1.31 -0.83 0.83 -0.95 -0.3 -0.77 -0.71 -1.49 -2.32 -4.4 -5.41 -1.31 -1.55 -1.07 -1.07 -0.59 -1.13 0.54 -0.77zm-18.1 121.47c2.03,-4.74 0.61,-3.09 -0.58,-6.17 -0.45,-1.18 -0.16,-1.32 0.39,-2.25 2.44,0.94 1.06,2.91 6.56,5.08 3.01,1.18 3.45,-0.38 3.6,2.06 -1.26,0.88 -3.76,0.63 -5.27,0.45 -1.53,1.79 -2.27,1.61 -4.69,0.84zm42.25 -2.46c7.95,-0.72 10.13,-6.95 13.37,-10.09l0.93 0.05c-0.67,3.77 -2.13,4.11 -2.13,5.78 0,2.74 -1.87,1.32 -0.42,6.06 0.6,1.96 -0.34,1.84 -2.08,2.36l-0.97 -1.43 -9.16 -0.55 -0.37 -1.2 0.83 -0.97zm57.91 -73.41c2.33,3.97 -0.32,10.51 -0.32,11.63 0,1.67 -0.18,1.64 -1.44,2.76 0.33,1.45 0.34,1.46 -0.92,2.72 0.24,5.64 -2.1,8.66 -7.07,13.5 -2.21,2.16 -4.6,1.81 -4.83,-0.4 4.92,-4.48 0.48,-7.12 3.36,-10.19 3.05,-3.26 6.55,-3.24 5.99,-6.43 -0.53,-3.07 2.34,-2.77 2.56,-4.24 0.05,-0.36 -0.5,-1.19 -0.16,-3.68 0.67,-4.86 0.31,-0.66 0.04,-5.15 1.39,-1.02 1.5,-1.2 2.8,-0.52zm-6.09 5.79c1.36,3.68 -0.92,4.4 -2.12,5.91 -1.09,1.37 -1.05,1.64 -2.76,1.72 -3.14,0.15 -2.07,-2.47 -0.44,-4.16 2.18,-2.26 0.64,-4.81 5.31,-3.48zm-140.47 -5.79c-2.33,3.97 0.32,10.51 0.32,11.63 0,1.67 0.18,1.64 1.44,2.76 -0.33,1.45 -0.34,1.46 0.92,2.72 -0.24,5.64 2.1,8.66 7.07,13.5 2.21,2.16 4.6,1.81 4.83,-0.4 -4.92,-4.48 -0.48,-7.12 -3.36,-10.19 -3.05,-3.26 -6.55,-3.24 -5.99,-6.43 0.53,-3.07 -2.34,-2.77 -2.56,-4.24 -0.05,-0.36 0.5,-1.19 0.16,-3.68 -0.67,-4.86 -0.31,-0.66 -0.04,-5.15 -1.39,-1.02 -1.5,-1.2 -2.8,-0.52zm6.09 5.79c-1.36,3.68 0.92,4.4 2.12,5.91 1.09,1.37 1.05,1.64 2.76,1.72 3.14,0.15 2.07,-2.47 0.44,-4.16 -2.18,-2.26 -0.64,-4.81 -5.31,-3.48zm112.52 6.61c1.31,3.76 -0.02,3.11 -0.85,6.04l-0.17 1.96c-0.09,0.34 -0.88,1.51 -1.02,2.72 -0.4,3.5 0.24,0.48 -1.02,2.98 -0.5,1 -0.59,2.9 -0.68,3.32l-0.77 2.3c-0.38,2.37 0.55,-0.6 -0.94,4.26l-1.62 5.11c-2.54,-0.33 -2.36,-0.13 -3.57,-3.23 -1.51,-3.86 -1.04,-3.71 -2.81,-7.58 -1.1,-2.4 -2.3,-2.22 1.02,-7.75l5.7 -9.45c1.77,-1.62 4.86,-1.01 6.72,-0.68zm-90.21 0c-1.31,3.76 0.02,3.11 0.85,6.04l0.17 1.96c0.09,0.34 0.88,1.51 1.02,2.72 0.4,3.5 -0.24,0.48 1.02,2.98 0.5,1 0.59,2.9 0.68,3.32l0.77 2.3c0.39,2.37 -0.55,-0.6 0.94,4.26l1.62 5.11c2.54,-0.33 2.36,-0.13 3.57,-3.23 1.51,-3.86 1.04,-3.71 2.81,-7.58 1.1,-2.4 2.3,-2.22 -1.02,-7.75l-5.7 -9.45c-1.77,-1.62 -4.86,-1.01 -6.72,-0.68zm15.97 8.74c-1.29,-2.49 -1.95,-4.07 -3.67,-6.24l-0.7 -1.22 0.35 -0.76c1.76,-0.27 3.71,0.96 6.12,0.12 1.57,-0.55 0.11,-0.58 2.39,-0.58l0.47 0.58c-0.28,1.41 -2.3,2.91 -2.56,5.77 -0.16,1.7 0.37,0.24 -0.7,2.74l-1.69 -0.41zm58.28 0c1.29,-2.49 1.95,-4.07 3.67,-6.24l0.7 -1.22 -0.35 -0.76c-1.76,-0.27 -3.71,0.96 -6.12,0.12 -1.57,-0.55 -0.11,-0.58 -2.39,-0.58l-0.47 0.58c0.28,1.41 2.3,2.91 2.56,5.77 0.16,1.7 -0.37,0.24 0.7,2.74l1.69 -0.41zm20.97 -58.36c-3.88,-1.22 -24.76,17.46 -35.45,19.96 -12.48,2.91 -5.66,18.42 -23.98,2.92 -0.05,-0.04 -27.17,-15.2 -34.89,-20.84 -2.96,-2.16 -1.43,-1.72 -3.97,-1.98 -4.99,4.28 -2.85,5.19 -9.26,6.56l-0.17 1.05c1.28,1.28 22.27,11.84 31.48,20.07 4.95,4.42 5.36,-2.54 12.51,8.43 8.84,13.57 6.47,1.77 7.83,21 0.92,13.02 0.42,0.52 -0.5,13.01 -0.48,6.58 1.72,2.65 -0.66,21.22l0.17 7.39c-9.29,0 -22.88,-17.55 -5.79,-27.73 7.3,-4.35 3.07,-9.32 -0.61,-20.95 -0.64,-2.01 -0.3,-2.23 -2.92,-4.02 1.13,-5.18 -12.96,-23.01 -23.32,-15.27 -11.46,8.56 -39.95,-15.08 -13.67,-37.43 5.71,-4.85 25.16,-9.44 26.79,12.35 0.48,6.43 9.26,6.81 21.39,8.43 2.32,0.31 3.88,-0.68 5.57,-1.71 5.44,3.97 13.06,0.84 23.92,-1.38 7.25,-1.48 -3.31,-22.47 20.45,-21.77 22.38,0.65 29.94,43.84 1.27,43 -9.81,-0.29 -7.96,-12.02 -25.36,5.62 -3.29,3.34 -2.23,4.33 -3.53,8.05 -6.46,1.76 -12.39,18.21 -3.36,24.09 11.12,7.24 2.97,30.63 -6.84,28.66 -4.13,-22.18 1.51,-19.81 -1.71,-34.4 -0.56,-2.56 1.14,-20.03 2.43,-21.83 12.18,-17.12 10.42,-8.63 22.93,-18.41 12.75,-9.97 18.6,-11.38 26.02,-16.43l0.11 -0.72c-2.64,-2.16 -5.27,-4.21 -6.89,-6.95z"/>
  <g id="_2445578330048">
   <path class="fil1" d="M153.25 211.87c2.27,-0.03 2.75,-0.4 4.33,0.25 -0.01,0.01 -11.11,16.3 -19.6,13.52 -10.61,-3.47 -25.92,-18.93 -59.42,-14.52 -17.55,2.31 -27.46,6.56 -42.53,13.69 -4.96,2.35 -11.79,-5.89 -16.44,-11.28l0.62 -0.79c12.72,-0.82 42.51,-23.47 90.13,-14.27 24.67,5.3 29.04,13.58 42.9,13.4z"/>
   <g>
    <path class="fil1" d="M18.6 205.28c0.52,-9.63 13.61,-11.42 20.18,-6.01 -1.09,5.47 -17.27,10.99 -20.18,6.01z"/>
    <path class="fil1" d="M157.02 205.28c-0.52,-9.63 -13.61,-11.42 -20.17,-6.01 1.09,5.47 17.27,10.99 20.17,6.01z"/>
   </g>
   <g>
    <path class="fil1" d="M6.38 97.11l-1.19 0.73c-0.59,3.76 -1.24,45.49 0,50.41 2.55,10.12 25.85,35.46 33.89,44.17 3.41,3.7 4.98,4.79 9.27,7.16 8.04,-2.78 13.68,-3.85 7.07,-19.19 -6.42,-14.89 -13.17,-29.53 -17.17,-45.36 -0.39,-1.56 -0.14,-6.69 -6.7,-4.13 -2.99,8.36 4.22,14.5 4.22,32.69 -1.24,-0.51 -22.2,-17.29 -23.32,-24.7 -1.53,-10.04 2.1,-28.02 -2.94,-36.46l-3.12 -5.33z"/>
    <path class="fil1" d="M170.57 97.11l1.19 0.73c0.59,3.76 1.24,45.49 0,50.41 -2.55,10.12 -25.85,35.46 -33.89,44.17 -3.41,3.7 -4.98,4.79 -9.27,7.16 -8.04,-2.78 -13.68,-3.85 -7.07,-19.19 6.42,-14.89 13.17,-29.53 17.17,-45.36 0.39,-1.56 0.14,-6.69 6.7,-4.13 2.99,8.36 -4.22,14.5 -4.22,32.69 1.24,-0.51 22.2,-17.29 23.32,-24.7 1.53,-10.04 -2.1,-28.02 2.94,-36.46l3.12 -5.33z"/>
   </g>
  </g>
  <path class="fil2" d="M17.39 86.4l-1.63 0.78c-1.43,4.28 -0.13,18.02 4.31,24.72 8.35,12.62 23.07,13.48 37.16,12.29l3.18 -0.92 -0.07 -1.48c-6.88,-2.43 0.41,-7.41 -13.14,-2.33 -13.05,4.89 -30.4,-8.14 -28.89,-26.91 0.2,-2.53 0.65,-1.89 0.07,-5.58l-0.99 -0.56z"/>
  <path class="fil2" d="M161.66 86.4l1.63 0.78c1.43,4.28 0.13,18.02 -4.31,24.72 -8.35,12.62 -23.07,13.48 -37.16,12.29l-3.18 -0.92 0.07 -1.48c6.88,-2.43 -0.41,-7.41 13.14,-2.33 13.05,4.89 30.4,-8.14 28.89,-26.91 -0.2,-2.53 -0.65,-1.89 -0.07,-5.58l0.99 -0.56z"/>
  <path class="fil2" d="M108.46 138.13c-1.4,-0.93 -0.59,-0.69 -2.86,-0.69 0.61,6.75 -4.12,5.77 2.06,11.68 12.89,12.32 5.21,30.45 -7.67,36.07 -4.4,1.92 -2.85,0.18 -4.92,3.21l1.37 0.69c16.6,-6.04 26.65,-21.24 19.47,-37.1 -1.14,-2.51 -5.94,-11.75 -7.44,-13.86z"/>
  <path class="fil1" d="M39.08 82.5c19.3,14.41 37.71,22.46 43.63,28.13 3.15,3.01 3.68,3.68 7.6,5.29 5.01,-2.38 3.41,-7.86 21.33,-15.35 10.14,-4.24 19.01,-11.48 27.79,-18.06l4.07 4.09c-19.7,9.86 -23.95,17.33 -33.02,20.42 -8.62,2.94 -19.84,15.55 -18.64,23.02 0.82,5.11 -1.85,10.16 -0.46,15.27 2.38,8.76 -1.49,4.02 1.61,24.4 0.53,3.47 0.28,7.98 -1.07,11.2 -3.44,1 -3.77,1.2 -7.67,-0.15 -1.08,-9.91 1.64,-9.06 0.92,-29.16 -0.36,-10.08 2.16,-0.6 0.46,-12.66 -0.75,-5.32 -0.78,-8.22 0.54,-12.97 -15.49,-23.98 -14.06,-11.81 -33.68,-28 -7.98,-6.58 -9.43,-6.59 -18.61,-10.8 3.59,-2.27 2.13,-1.33 5.21,-4.68z"/>
  <path class="fil3" d="M36.31 218.32c0.34,1.24 -0.01,2.16 -1.06,2.76 -0.64,0.37 -1.29,0.45 -1.95,0.23 -0.68,-0.22 -1.24,-0.72 -1.69,-1.5 -0.47,-0.82 -0.64,-1.58 -0.5,-2.28 0.13,-0.69 0.54,-1.23 1.22,-1.63 0.49,-0.28 0.95,-0.41 1.37,-0.37 0.48,0.04 0.94,0.28 1.38,0.72l-0.81 0.79c-0.21,-0.22 -0.44,-0.36 -0.7,-0.41 -0.26,-0.05 -0.53,0.01 -0.79,0.16 -0.37,0.21 -0.58,0.51 -0.63,0.89 -0.06,0.41 0.08,0.91 0.41,1.48 0.35,0.6 0.71,0.98 1.09,1.15 0.36,0.15 0.72,0.12 1.09,-0.09 0.26,-0.15 0.43,-0.36 0.51,-0.63 0.09,-0.29 0.07,-0.63 -0.06,-1.04l1.11 -0.23zm5.84 -1.19l-3.7 1.99 -2.72 -5.06 3.61 -1.94 0.5 0.93 -2.63 1.41 0.53 0.98 2.44 -1.31 0.5 0.92 -2.44 1.31 0.71 1.31 2.71 -1.46 0.49 0.92zm5.36 -2.46l-1.01 0.47 -3.59 -2.48 1.57 3.41 -0.94 0.43 -2.4 -5.22 0.99 -0.45 3.65 2.54 -1.6 -3.49 0.94 -0.43 2.4 5.22zm3.67 -6.45l-1.53 0.59 1.66 4.31 -1.04 0.4 -1.66 -4.31 -1.53 0.59 -0.41 -1.06 4.1 -1.58 0.41 1.06zm7.56 2.21l-1.26 0.44 -1.17 -0.92c-0.41,-0.32 -0.68,-0.52 -0.83,-0.6 -0.14,-0.08 -0.28,-0.12 -0.4,-0.12 -0.12,-0 -0.31,0.04 -0.55,0.12l-0.21 0.07 0.79 2.27 -1.06 0.37 -1.89 -5.43 2.46 -0.86c0.52,-0.18 0.99,-0.2 1.41,-0.05 0.45,0.15 0.75,0.47 0.92,0.95 0.14,0.41 0.15,0.79 0.01,1.12 -0.14,0.35 -0.43,0.64 -0.86,0.87 0.29,0.06 0.52,0.14 0.68,0.23 0.19,0.11 0.51,0.34 0.95,0.71l1.01 0.84zm-2.84 -3.31c-0.08,-0.21 -0.23,-0.35 -0.45,-0.4 -0.22,-0.05 -0.51,-0.02 -0.84,0.09l-1.07 0.37 0.48 1.38 1.1 -0.38c0.35,-0.12 0.59,-0.26 0.72,-0.42 0.13,-0.17 0.15,-0.38 0.06,-0.64zm8.55 1.71l-1.17 0.32 -0.78 -1.14 -1.98 0.55 -0.05 1.36 -1.14 0.31 0.47 -6.09 1 -0.28 3.65 4.96zm-2.58 -1.65l-1.22 -1.87 -0.09 2.23 1.31 -0.36zm6.82 0.6l-3.35 0.8 -1.34 -5.59 1.06 -0.25 1.08 4.5 2.29 -0.55 0.26 1.09zm7.66 -3c0.08,0.48 -0,0.89 -0.25,1.23 -0.28,0.38 -0.73,0.63 -1.37,0.74l-2.56 0.43 -0.96 -5.67 2.44 -0.41c0.49,-0.08 0.91,-0.04 1.26,0.12 0.4,0.19 0.65,0.53 0.73,1.01 0.04,0.26 0.02,0.52 -0.08,0.76 -0.1,0.24 -0.26,0.44 -0.48,0.6 0.34,0.04 0.63,0.17 0.85,0.38 0.22,0.21 0.36,0.48 0.42,0.82zm-1.75 -2.21c-0.04,-0.22 -0.13,-0.37 -0.28,-0.45 -0.16,-0.08 -0.4,-0.1 -0.73,-0.04l-1.11 0.19 0.22 1.31 1.09 -0.18c0.3,-0.05 0.51,-0.14 0.65,-0.27 0.15,-0.14 0.2,-0.32 0.16,-0.56zm0.6 2.35c-0.04,-0.26 -0.16,-0.43 -0.34,-0.53 -0.2,-0.1 -0.5,-0.12 -0.89,-0.06l-1.11 0.19 0.26 1.51 1.24 -0.21c0.3,-0.05 0.52,-0.14 0.66,-0.28 0.17,-0.16 0.23,-0.37 0.18,-0.63zm7.71 0.87l-1.21 0.12 -0.58 -1.25 -2.04 0.2 -0.28 1.33 -1.17 0.12 1.5 -5.93 1.03 -0.1 2.76 5.51zm-2.26 -2.06l-0.89 -2.05 -0.46 2.18 1.35 -0.13zm7.62 1.88l-1.12 0.03 -2.33 -3.69 0.1 3.75 -1.04 0.03 -0.16 -5.75 1.08 -0.03 2.36 3.77 -0.11 -3.84 1.04 -0.03 0.16 5.75zm6.51 0.02l-1.4 -0.01 -1.53 -2.55 -0.69 0.8 -0.01 1.74 -1.12 -0.01 0.05 -5.75 1.12 0.01 -0.02 2.36 2.08 -2.34 1.46 0.01 -2.06 2.26 2.13 3.49zm8.69 -1.97c-0.11,0.91 -0.44,1.6 -0.98,2.07 -0.55,0.47 -1.23,0.65 -2.05,0.56 -0.82,-0.1 -1.45,-0.43 -1.87,-1 -0.43,-0.58 -0.59,-1.32 -0.49,-2.23 0.11,-0.96 0.45,-1.68 1.01,-2.14 0.53,-0.45 1.21,-0.62 2.04,-0.52 0.82,0.1 1.44,0.43 1.87,1.01 0.43,0.59 0.6,1.34 0.49,2.27zm-1.15 -0.16c0.08,-0.63 -0.01,-1.13 -0.25,-1.51 -0.23,-0.35 -0.59,-0.56 -1.06,-0.62 -0.47,-0.06 -0.86,0.06 -1.17,0.35 -0.34,0.31 -0.54,0.78 -0.62,1.42 -0.07,0.62 0.01,1.13 0.27,1.52 0.24,0.37 0.59,0.58 1.05,0.63 0.46,0.05 0.85,-0.06 1.16,-0.36 0.33,-0.31 0.54,-0.79 0.62,-1.44zm6.88 -0.69l-2.73 -0.53 -0.23 1.18 2.37 0.46 -0.2 1.03 -2.37 -0.46 -0.47 2.4 -1.1 -0.21 1.1 -5.64 3.83 0.75 -0.2 1.03zm6.96 6.51l-1.08 -0.3 -1.15 -4.21 -1 3.61 -1 -0.28 1.53 -5.54 1.05 0.29 1.15 4.3 1.02 -3.7 1 0.28 -1.53 5.54zm2.67 0.79l-1.06 -0.34 1.74 -5.48 1.06 0.34 -1.74 5.48zm6.44 1.52c-0.31,0.15 -0.69,0.23 -1.16,0.24 -0.49,0.01 -0.95,-0.05 -1.36,-0.2 -0.8,-0.29 -1.35,-0.8 -1.66,-1.52 -0.3,-0.71 -0.31,-1.46 -0.02,-2.26 0.29,-0.81 0.74,-1.39 1.35,-1.73 0.67,-0.37 1.43,-0.4 2.3,-0.09 0.61,0.22 1.06,0.56 1.34,1.01 0.26,0.41 0.35,0.87 0.3,1.38l-1.12 -0.17c0.02,-0.3 -0.04,-0.55 -0.18,-0.78 -0.15,-0.22 -0.37,-0.39 -0.68,-0.5 -0.47,-0.17 -0.9,-0.16 -1.29,0.04 -0.41,0.21 -0.72,0.61 -0.93,1.19 -0.22,0.62 -0.25,1.15 -0.08,1.59 0.16,0.42 0.47,0.72 0.94,0.89 0.21,0.08 0.44,0.11 0.69,0.11 0.25,-0.01 0.48,-0.05 0.7,-0.12l0.25 -0.68 -1.2 -0.43 0.33 -0.91 2.26 0.81 -0.78 2.15zm5.02 3.08l-3.83 -1.73 2.36 -5.24 3.74 1.68 -0.43 0.96 -2.72 -1.22 -0.46 1.02 2.53 1.14 -0.43 0.95 -2.53 -1.14 -0.61 1.36 2.81 1.27 -0.43 0.95zm5.72 3.02l-1.17 -0.64 -0.1 -1.48c-0.03,-0.52 -0.07,-0.86 -0.11,-1.02 -0.04,-0.16 -0.1,-0.29 -0.18,-0.38 -0.08,-0.09 -0.24,-0.2 -0.46,-0.32l-0.2 -0.11 -1.15 2.11 -0.98 -0.54 2.76 -5.04 2.29 1.25c0.48,0.26 0.81,0.6 0.99,1.01 0.18,0.43 0.16,0.87 -0.09,1.32 -0.21,0.38 -0.48,0.64 -0.82,0.76 -0.36,0.13 -0.76,0.11 -1.22,-0.06 0.15,0.26 0.24,0.48 0.29,0.65 0.05,0.21 0.09,0.61 0.11,1.18l0.05 1.31zm0.55 -4.33c0.11,-0.2 0.11,-0.4 -0,-0.6 -0.11,-0.2 -0.32,-0.39 -0.63,-0.56l-0.99 -0.54 -0.7 1.28 1.02 0.56c0.33,0.18 0.59,0.26 0.79,0.25 0.22,-0.02 0.39,-0.14 0.52,-0.38zm1.41 5.41l-0.96 -0.57 2.95 -4.93 0.96 0.57 -2.95 4.93zm5.34 3.43l-1.02 -0.66 0.33 -1.34 -1.72 -1.12 -1.06 0.86 -0.99 -0.64 4.88 -3.68 0.87 0.57 -1.3 6.02zm-0.48 -3.02l0.59 -2.16 -1.73 1.41 1.14 0.74z"/>
  <path class="fil1" d="M88.23 87.73c-15.91,-18.56 -31.9,-41.57 -57.24,-27.1 -17.48,9.97 -25.29,32.31 -15.84,50.54 4.19,8.08 15.74,17.2 26.72,18.03 5.56,0.42 26.75,1.43 27.07,-6.21l-12.21 -11.51c-2.8,-1.07 -18.07,12.76 -30.94,-5.58 -9.11,-12.98 2.17,-33.17 15.8,-37.85 6.44,-2.21 17.75,1.75 20.65,10.43 3.97,11.88 -0.09,14.15 20.23,15.73 6.55,0.51 6.37,-2.38 5.76,-6.49z"/>
  <path class="fil0" d="M82.14 88.01c-1.44,-2.36 -20.52,-25.38 -31,-27.65 -3.43,-0.74 -9.03,-0.57 -12.19,1l-0.2 2.08c3.5,2.26 21.34,-4.48 29.39,16.27 2.84,7.32 -4.46,6.71 8.44,8.44 3.4,0.46 3.15,2.25 5.62,0.6l-0.07 -0.74z"/>
  <path class="fil1" d="M88.8 87.73c15.91,-18.56 31.9,-41.57 57.24,-27.1 17.48,9.97 25.29,32.31 15.84,50.54 -4.19,8.08 -15.74,17.2 -26.72,18.03 -5.56,0.42 -26.75,1.43 -27.07,-6.21l12.21 -11.51c2.8,-1.07 18.07,12.76 30.94,-5.58 9.11,-12.98 -2.17,-33.17 -15.8,-37.85 -6.44,-2.21 -17.75,1.75 -20.65,10.43 -3.97,11.88 0.09,14.15 -20.23,15.73 -6.55,0.51 -6.37,-2.38 -5.76,-6.49z"/>
  <path class="fil0" d="M96.87 88.01c1.44,-2.36 20.52,-25.38 31,-27.65 3.43,-0.74 9.03,-0.57 12.19,1l0.2 2.08c-3.5,2.26 -21.34,-4.48 -29.39,16.27 -2.84,7.32 4.46,6.71 -8.44,8.44 -3.4,0.46 -3.15,2.25 -5.62,0.6l0.07 -0.74z"/>
  <path class="fil1" d="M70.64 129.27c-9.46,14.87 -21.66,32.17 -12.41,50.44 3.4,6.73 14.11,12.73 24.27,13.14 11.37,0.46 22.85,1.89 33.5,-12.9 9.44,-13.11 4.85,-27.84 -2.75,-40.66 -2.12,-3.58 -4.71,-7.86 -8.8,-8.99 -0.28,0.35 -7.11,14.05 -3.61,17.36 7.48,7.07 13.3,14.17 5.87,26.72 -11.45,19.33 -52.55,5.21 -38.58,-17.61 6.97,-11.39 14.55,-0.99 5.87,-25.37 -0.79,-2.23 -1.88,-2 -3.36,-2.14z"/>
  <path class="fil0" d="M67.12 179.24c-1.98,-3.74 -9.27,-10.77 -3.66,-20.95 6.11,-11.1 6.2,-7.37 9.16,-10.76 2.01,-2.31 -0.57,-9.05 -1.72,-12.48l-1.26 0c-1.84,3.01 -10.22,23.95 -10.65,28.28 -0.54,5.41 2.33,15.71 5.84,17.06l2.18 0.23 0.11 -1.37z"/>
  <path class="fil0" d="M109.93 179.24c1.98,-3.74 9.27,-10.77 3.66,-20.95 -6.11,-11.1 -6.2,-7.37 -9.16,-10.76 -2.01,-2.31 0.57,-9.05 1.72,-12.48l1.26 0c1.84,3.01 10.22,23.95 10.65,28.28 0.54,5.41 -2.33,15.71 -5.84,17.06l-2.18 0.23 -0.11 -1.37z"/>
  <g id="_2442663865696">
   <g>
    <g>
     <path class="fil1" d="M99.24 58.62c-4.18,0.65 -5.36,-4.09 -4.82,-5.34 0.5,-1.16 0.99,-0.15 0.99,-3.36 -4.33,-3.77 -15.1,-4.09 -17.02,-20.67 -0.19,-2.46 0.23,-0.82 -1.04,-3.36 -3.51,-0.96 -4.33,1.18 -6.15,-0.99 -2.27,-2.72 -1.69,-2.45 -4.49,-2.32 -1.35,1.66 -1.23,1.18 -1.23,2.41 4.81,-0.42 6.03,1.21 4.97,7.05l1.8 -2.84c5.07,0 6.23,9.53 5.01,10.64l-1.51 0.57c-2.67,-2.31 -1.08,-2.75 -1.66,-6.01 -1.48,1.69 -0.73,8.64 -4.07,8.42 -1.06,-0.07 -1.35,-1.68 -1.51,-2.51l-0.47 -0.28c-2.95,3.74 -0.31,3.37 -4.68,5.06l-1.28 -0.8c0.15,-3.78 5.77,-8.95 5.39,-14.71 -3.57,-2.9 -2.86,3.28 -4.44,7.33 -1.27,3.25 -4.56,9.13 -8.18,10.17 -4.27,-2.85 1.03,-4.21 5.2,-13.72 1.01,-2.29 2.44,-2.48 0.47,-5.49 -3.2,2.31 -6.6,10.54 -8.65,13.62 -2.13,3.18 -0.16,-0.82 -1.7,3.12 -1.09,2.79 -3.37,7.81 -6.81,6.01 -1.12,-4.66 1.09,-4.61 6.38,-12.34 2.61,-3.81 3.37,-5.66 6.95,-10.03 -1.1,-0.9 -0.49,-0.68 -3.26,-0.52 -0.47,-1.89 0.3,-2.15 1.7,-3.12 0,-1.5 -0.61,-1.24 -2.36,-2.74l0.43 -1.42c2.45,-0.12 7.4,-2.58 8.32,-3.41 2.4,-2.14 -0.15,-1.91 4.59,-2.51 1.39,2.22 0.73,2.14 2.13,2.6 0.82,-2.25 0.8,-3.26 1.14,-5.72 -1.16,-0.16 -5.9,2.16 -7.05,2.74 -2.21,1.11 -3.81,4.53 -8.18,1.75 0.26,-2.37 1.19,-1.76 2.84,-2.7 1.08,-0.61 0.7,-0.67 2.08,-1.04 3.05,-0.83 12.31,-9.24 14.9,-3.26 0.74,1.71 -0.63,9.72 2.13,12.82 0.83,0.93 2.59,1.45 2.84,1.61l1.8 1.84c0.74,0.35 3.44,-0.19 4.16,-0.61 4.53,-3.49 4.68,-13.03 0.14,-16.36 -0.8,-0.45 -1.67,-0.2 -2.03,-1.37 -1.12,-3.55 6.97,-7.22 11.54,-2.79 2.66,2.57 1.27,12.24 2.36,16.13 1.02,3.62 1.8,2.15 3.4,3.88 2.63,2.82 5.51,-0.16 5.63,-0.62 1.61,-6.41 -2.51,-16.91 5.91,-17.36 3.46,-0.18 9.07,4.84 12.44,7.38l-0.38 1.47c-3.42,1.03 -5.04,-3.09 -9.46,-3.83 -5.15,-0.87 -3.69,3.99 -3.31,4.68 2.07,-0.31 4.04,-3.59 13.62,4.35l0.99 0.99c-0.43,1.18 -1.53,1.23 -2.65,1.51 -0.94,1.89 1.28,2.74 3.4,4.07l-0.24 1.47c-3.27,2.3 -3.47,-2.46 -6.2,-2.46l-0.09 0.9 0.71 0.57 0 1.32 -1.56 0.33 -0.85 -1.37 -0.95 0.14c-0.74,1.6 -2.07,1.57 -3.59,1.09 -1.42,-3.85 -1.34,-2.29 -0.85,-5.25 0.2,-1.22 -0.15,-2.46 -1.56,-2.46 -2.08,7.29 -2.48,8.58 -8.23,9.27 -2.69,0.32 -3.27,-2.72 -6.9,-5.39l-1.37 0.38c-0.51,1.27 -0.18,1.53 0,3.74 4.5,3.17 4.61,5.2 12.91,3.22 1.84,-0.64 1.4,-1.2 4.54,-1.09 1.16,2.47 4.48,10.92 3.97,12.72l-0.47 1.23 -0.76 0.28c-3.74,-2.08 -2.24,-4.19 -3.45,-7.09 -0.72,-1.72 -0.71,0.23 -0.71,-3.26 -1.23,-0.05 -1.08,-0.08 -2.13,0.57 0.46,2.19 0.58,2.73 -0.24,4.21l-2.27 0.14c-0.72,-2.07 0.38,-2.4 -1.51,-3.45l-0.57 2.08 -0.8 0.14 -2.18 -2.22 -0.24 0.52c0.34,0.6 3.9,4.46 -0.71,6.24 -1.28,0.5 -0.55,-1.09 -3.26,-1.09 -0.47,1.4 1.62,6.36 2.13,7.33 0.85,-0.48 1.09,-0.51 1.61,-1.32 1.01,0.12 0.96,0.24 1.7,0.95 0.05,2.76 0.72,8.95 -3.12,9.55zm-10.81 -54.44c0.71,0 1.29,0.58 1.29,1.29 0,0.71 -0.58,1.29 -1.29,1.29 -0.71,0 -1.29,-0.58 -1.29,-1.29 0,-0.71 0.58,-1.29 1.29,-1.29z"/>
     <path class="fil1" d="M121.37 31.26c-0.65,2.28 1.38,0.73 1.36,5.62 -0.01,2.16 0.83,2.19 1.73,4.63 1.09,2.99 2.62,4.34 5.4,5.77l1.4 0.96c0.71,0.61 0.6,0.12 1.54,1.43 0.23,0.32 0.43,0.77 1.32,0.96l1.51 -0.33c0.12,-2.23 0.28,-1.88 -1.54,-3.31 -2.33,-1.82 -0.44,-1.54 -3.56,-6.39l-4.63 -6.83c-0.91,-1.18 -0.77,-0.54 -1.25,-1.8 -0.27,-0.71 -0.38,-1.15 -1.14,-1.51l-1.95 -0.18 -0.18 0.99z"/>
     <path class="fil1" d="M124.68 48.2c1.85,-2.69 -0.49,-3.12 -2.87,-8.82 -1.22,-2.92 -2.83,-7.94 -5,-8.34l-1.03 -0.04c-2.69,4.03 1.82,7.23 2.83,10.69 0.59,2.02 2.5,7.26 5.22,6.8l0.85 -0.29z"/>
    </g>
    <path class="fil1" d="M81.33 55.67c0,-3.19 0.75,-6.2 3.44,-8.05 7.47,3.73 5.53,2.58 5.32,9.18 -0.2,6.34 -8.18,5.03 -8.76,-1.13z"/>
   </g>
   <g>
    <path class="fil1" d="M88.17 66.77c-0.08,-1.81 0.87,-1.01 2.06,-4.03 2.23,-0.53 3.01,0.63 3.16,2.85 0.13,2.06 -2.9,5.52 -4.94,2.6 -0.45,-0.64 -0.35,-0.98 -0.28,-1.41z"/>
    <path class="fil1" d="M96.11 71.68c6.68,0.46 2.22,-3.86 2.13,-4.25 -0.33,-1.45 1.37,-5.01 -2.5,-4.13 -0.61,1.05 -1.21,0.78 -0.34,3.22 -1.09,1.63 -3.3,3.58 0.72,5.16z"/>
    <path class="fil1" d="M110.38 53.07l2.59 2.01c0,3.58 -2.16,1.9 -3.44,2.01 -0.61,1.06 -0.48,1.32 -2.06,1.56 -3.46,0.54 -2.12,-4.21 -1.3,-4.51l2.23 0.36c0.25,-1.41 0.36,-1.29 1.47,-1.74l0.49 0.31z"/>
    <path class="fil1" d="M81.69 69.18c1.02,-0.89 2.12,-0.73 1.97,-2.22 -0.13,-1.24 -0.43,-0.68 -0.12,-2.13 1.03,-0.66 0.69,-0.7 2.5,-0.19 0.93,1.96 1.08,5.98 -1.63,6.57l-3.53 -0.41 -0.31 -0.69 0.28 -0.63 0.84 -0.31z"/>
   </g>
  </g>
 </g>
</svg>
