<?xml version="1.0" encoding="UTF-8"?>
<!DOCTYPE svg PUBLIC "-//W3C//DTD SVG 1.1//EN" "http://www.w3.org/Graphics/SVG/1.1/DTD/svg11.dtd">
<!-- Creator: CorelDRAW -->
<svg xmlns="http://www.w3.org/2000/svg" xml:space="preserve" width="1.17512in" height="1.33241in" version="1.1" style="shape-rendering:geometricPrecision; text-rendering:geometricPrecision; image-rendering:optimizeQuality; fill-rule:evenodd; clip-rule:evenodd"
viewBox="0 0 140.11 158.86"
 xmlns:xlink="http://www.w3.org/1999/xlink"
 xmlns:xodm="http://www.corel.com/coreldraw/odm/2003">
 <defs>
  <style type="text/css">
   <![CDATA[
    .fil0 {fill:#303030}
   ]]>
  </style>
 </defs>
 <g id="Layer_x0020_1">
  <metadata id="CorelCorpID_0Corel-Layer"/>
  <g id="_2441439282928">
   <polygon class="fil0" points="45.15,78.75 56.94,78.75 56.94,141.51 45.15,141.51 "/>
   <polygon class="fil0" points="64.67,60.27 76.46,60.27 76.46,158.86 64.67,158.86 "/>
   <polygon class="fil0" points="84.19,78.75 95.98,78.75 95.98,141.51 84.19,141.51 "/>
   <path class="fil0" d="M70.05 0c38.69,0 70.05,31.36 70.05,70.05 0,22.66 -10.76,42.8 -27.45,55.61l-9.74 -9.45 -0 0c14.4,-10.27 23.79,-27.12 23.79,-46.16 0,-31.29 -25.37,-56.66 -56.66,-56.66 -31.29,0 -56.66,25.37 -56.66,56.66 0,19.39 9.74,36.5 24.6,46.72l-0.01 0 -9.87 9.4c-17.07,-12.78 -28.11,-33.16 -28.11,-56.12 0,-38.69 31.36,-70.05 70.05,-70.05z"/>
  </g>
 </g>
</svg>
