<?xml version="1.0" encoding="UTF-8"?>
<!DOCTYPE svg PUBLIC "-//W3C//DTD SVG 1.1//EN" "http://www.w3.org/Graphics/SVG/1.1/DTD/svg11.dtd">
<!-- Creator: CorelDRAW -->
<svg xmlns="http://www.w3.org/2000/svg" xml:space="preserve" width="1.42311in" height="1.13707in" version="1.1" style="shape-rendering:geometricPrecision; text-rendering:geometricPrecision; image-rendering:optimizeQuality; fill-rule:evenodd; clip-rule:evenodd"
viewBox="0 0 2214.6 1769.48"
 xmlns:xlink="http://www.w3.org/1999/xlink"
 xmlns:xodm="http://www.corel.com/coreldraw/odm/2003">
 <defs>
  <style type="text/css">
   <![CDATA[
    .fil0 {fill:#303030;fill-rule:nonzero}
   ]]>
  </style>
 </defs>
 <g id="Layer_x0020_1">
  <metadata id="CorelCorpID_0Corel-Layer"/>
  <path class="fil0" d="M1307.35 428.87l0 236.86 -217.24 0 -144.47 -236.86 -214.71 0 0 236.86 -286.51 0c92,-280.08 355.6,-482.3 666.44,-482.3 310.84,0 574.43,202.22 666.44,482.3l-286.52 0 0 -236.86 -183.43 0zm0 513.58l-48.47 0 -56.89 -93.26 105.35 0 0 93.26zm-392.99 0l0 -93.26 72.76 0 56.89 93.26 -129.65 0zm1300.24 -93.26l0 -183.46 -246.32 0c-97.44,-382.71 -444.37,-665.73 -857.43,-665.73 -413.06,0 -759.99,283.02 -857.41,665.73l-253.45 0 0 183.46 730.92 0 0 93.26 -730.92 0 0 183.43 259.37 0c104.97,371.45 446.46,643.6 851.48,643.6 137.68,0 268.01,-31.44 384.18,-87.56l-96.13 -157.6c-87.88,39.66 -185.39,61.72 -288.06,61.72 -302.59,0 -560.42,-191.63 -658.76,-460.16l278.83 0 0 199.83 183.44 0 0 -199.83 241.54 0 121.87 199.83 213.01 0 0 -199.83 723.82 0 0 -183.43 -723.82 0 0 -93.26 723.82 0z"/>
 </g>
</svg>
