<svg id="Layer_1" data-name="Layer 1" xmlns="http://www.w3.org/2000/svg" viewBox="0 0 247.39 249.28"><defs><style>.cls-1{fill:#303030;}</style></defs><g id="Layer_1-2" data-name="Layer_1"><path class="cls-1" d="M123.69,0a122.84,122.84,0,0,1,87.47,36.51,125.32,125.32,0,0,1,0,176.27,123,123,0,0,1-174.94,0,125.32,125.32,0,0,1,0-176.27A122.84,122.84,0,0,1,123.69,0ZM35.37,144.07a4.56,4.56,0,0,1,1.16,9q1,5.91,2.44,11.59H70.45a264.21,264.21,0,0,1-3-40.43c0-.9,0-1.79,0-2.68H34.17c0,1,0,2.09,0,3.14a171.76,171.76,0,0,0,1.11,19.42h.13Zm-.34,9.1a4.56,4.56,0,0,1-1.26-8.82,169.88,169.88,0,0,1-1.13-19.71c0-1,0-2.09,0-3.14H1.54c0,1,0,2.09,0,3.14a124,124,0,0,0,6.6,40v0H37.43c-.93-3.74-1.72-7.57-2.39-11.46ZM124.44,168a4.56,4.56,0,0,1,0,9v32.24h38.68a185.53,185.53,0,0,0,12.06-43.11H124.44V168Zm-1.5,9a4.56,4.56,0,0,1,0-9v-1.89H72.2a185.38,185.38,0,0,0,12.07,43.11h38.67V177ZM98,116.52a4.56,4.56,0,0,1,4.43,3.48h20.53V76.89H73.13A256.28,256.28,0,0,0,68.93,120H93.55A4.55,4.55,0,0,1,98,116.52Zm4.54,5a4.55,4.55,0,0,1-9.07,0H68.91c0,.89,0,1.78,0,2.68A261.61,261.61,0,0,0,72,164.62h51V121.5Zm77.36-4.94a4.59,4.59,0,0,1,3.79,3.45h29.52a163.69,163.69,0,0,0-5.82-39.34,5.12,5.12,0,0,1-.56,0,4.55,4.55,0,0,1-4.49-3.8H175.77a255.42,255.42,0,0,1,4.1,39.67Zm3.89,4.94a4.57,4.57,0,0,1-3.79,4.07,263.28,263.28,0,0,1-3,39.05h31.49a165.71,165.71,0,0,0,4.83-40c0-1.05,0-2.09,0-3.14H183.77Zm-5.29,4.06a4.55,4.55,0,0,1-3.78-4.06H124.44v43.12h51A261.91,261.91,0,0,0,178.48,125.56ZM174.8,120a4.57,4.57,0,0,1,3.58-3.41,255.46,255.46,0,0,0-4.13-39.7H124.44V120Zm32-48.42a4.57,4.57,0,0,1,4.5,3.8h24.42A123.45,123.45,0,0,0,210.1,37.56c-1.81-1.82-3.67-3.59-5.58-5.29H184.85c1.13,1.41,2.24,2.85,3.31,4.32a132.22,132.22,0,0,1,18,35.05,5.36,5.36,0,0,1,.69-.06Zm4.5,5.31a4.53,4.53,0,0,1-2.51,3.35A164.62,164.62,0,0,1,214.68,120H245.8a123.39,123.39,0,0,0-9.43-43.11H211.31Zm-9-1.5a4.55,4.55,0,0,1,2.38-3.29,130.81,130.81,0,0,0-17.77-34.62c-1.3-1.79-2.65-3.52-4-5.2H161.6c.7,1.4,1.38,2.85,2.05,4.33a177.82,177.82,0,0,1,11.84,38.78Zm-77.89-27.5a4.56,4.56,0,0,1,0,9V75.39H174a175.58,175.58,0,0,0-11.68-38.17c-.77-1.7-1.55-3.34-2.36-4.94H124.44V47.9Zm-1.5,9a4.56,4.56,0,0,1,0-9V32.27H87.46q-1.21,2.38-2.35,4.94A175.41,175.41,0,0,0,73.43,75.38h49.51V56.87Zm-88,152.35H56.82a139.3,139.3,0,0,1-19-43.11H8.61A123.16,123.16,0,0,0,34.9,209.23Zm23.73,0h24a188.29,188.29,0,0,1-12-43.11H39.35a136.92,136.92,0,0,0,19.27,43.11Zm106.13,0h24a137.16,137.16,0,0,0,19.28-43.11H176.71a187.79,187.79,0,0,1-12,43.11Zm25.82,0H212.5a123.16,123.16,0,0,0,26.29-43.11H209.6a139.3,139.3,0,0,1-19,43.11Zm20.49,1.5H189.55c-.46.65-.92,1.31-1.39,2-11.77,16.15-26.77,27.9-43.57,33.3a121.66,121.66,0,0,0,65.52-34.27l1-1Zm-23.35,0H164.11c-.15.34-.31.68-.45,1-8.65,19.21-20.15,32.19-33,35.66,21.93-2.31,41.64-15.48,56.32-35.61l.77-1.07Zm-25.25,0h-38v36.1c14.72-.45,28.08-14,37.84-35.7l.18-.4Zm-39.52,0h-38l.18.4c9.76,21.7,23.12,35.25,37.84,35.7v-36.1Zm-39.66,0H59.68c.26.36.51.72.77,1.07,14.67,20.12,34.39,33.3,56.31,35.61-12.86-3.47-24.36-16.45-33-35.66l-.45-1Zm-25.43,0H36.34l1,1A121.6,121.6,0,0,0,102.82,246C86,240.58,71,228.83,59.25,212.68c-.47-.64-.93-1.3-1.39-2ZM210,164.62h29.34a123.82,123.82,0,0,0,6.58-40c0-1,0-2.09,0-3.14H214.74c0,1,0,2.09,0,3.14a166.94,166.94,0,0,1-4.78,40ZM1.6,120H32.72a164,164,0,0,1,6.85-43.11H11A123,123,0,0,0,1.6,120Zm32.61,0H67.45a257.59,257.59,0,0,1,4.18-43.11H41.14A162.5,162.5,0,0,0,34.22,120ZM124.46,1.52V30.78h34.71C149.77,12.87,137.66,1.93,124.46,1.52ZM123,30.78V1.52c-13.2.4-25.31,11.35-34.71,29.26ZM11.67,75.39H40A134.46,134.46,0,0,1,59.24,36.6c1.08-1.47,2.19-2.92,3.32-4.32H42.89Q40,34.85,37.31,37.56A123.49,123.49,0,0,0,11.68,75.39Zm29.93,0H71.91A177.66,177.66,0,0,1,83.74,36.61c.67-1.48,1.35-2.93,2.05-4.33H64.48c-1.38,1.68-2.73,3.41-4,5.2A132.67,132.67,0,0,0,41.6,75.4Zm3-44.61H63.78c11-13.17,24.33-22.77,39-27.49A121.3,121.3,0,0,0,44.6,30.78Zm21.13,0H86.55c7.23-14,16.12-24,26-28.33C94.79,5.49,78.68,15.65,65.73,30.78Zm95.12,0h20.82C168.72,15.65,152.61,5.5,134.9,2.45,144.73,6.8,153.62,16.77,160.85,30.78Zm22.77,0H202.8A121.35,121.35,0,0,0,144.59,3.29c14.7,4.72,28,14.32,39,27.49Z"/></g></svg>