<?xml version="1.0" encoding="UTF-8"?>
<!DOCTYPE svg PUBLIC "-//W3C//DTD SVG 1.1//EN" "http://www.w3.org/Graphics/SVG/1.1/DTD/svg11.dtd">
<!-- Creator: CorelDRAW -->
<svg xmlns="http://www.w3.org/2000/svg" xml:space="preserve" width="1.27951in" height="1.1605in" version="1.1" style="shape-rendering:geometricPrecision; text-rendering:geometricPrecision; image-rendering:optimizeQuality; fill-rule:evenodd; clip-rule:evenodd"
viewBox="0 0 92.97 84.33"
 xmlns:xlink="http://www.w3.org/1999/xlink"
 xmlns:xodm="http://www.corel.com/coreldraw/odm/2003">
 <defs>
  <style type="text/css">
   <![CDATA[
    .fil0 {fill:#303030}
   ]]>
  </style>
 </defs>
 <g id="Layer_x0020_1">
  <metadata id="CorelCorpID_0Corel-Layer"/>
  <g id="_2445997202512">
   <polygon class="fil0" points="35.37,13.19 45.98,13.19 45.98,48.45 35.37,48.45 "/>
   <polygon class="fil0" points="59.59,21.04 48.98,21.04 48.98,34.65 59.59,34.65 "/>
   <polygon class="fil0" points="76.2,24.04 76.2,34.65 89.97,34.65 89.97,24.04 "/>
   <polygon class="fil0" points="48.98,48.26 83.05,48.26 83.05,37.66 48.98,37.66 "/>
   <polygon class="fil0" points="62.59,51.27 92.97,51.27 92.97,61.89 62.59,61.87 "/>
   <polygon class="fil0" points="12.02,61.87 45.98,61.87 45.98,51.27 12.02,51.27 "/>
   <polygon class="fil0" points="-0,48.26 32.37,48.26 32.37,37.66 -0,37.66 "/>
   <polygon class="fil0" points="35.37,51.27 45.98,51.27 45.98,78.32 35.37,78.32 "/>
   <polygon class="fil0" points="48.98,84.33 59.59,84.33 59.59,51.27 48.98,51.27 "/>
   <polygon class="fil0" points="73.2,0 62.59,0 62.59,34.65 73.2,34.65 "/>
   <polygon class="fil0" points="62.59,78.23 73.2,78.23 73.2,64.89 62.59,64.89 "/>
   <polygon class="fil0" points="21.76,21.04 32.37,21.04 32.37,34.65 21.76,34.65 "/>
   <polygon class="fil0" points="21.76,76.9 32.37,76.9 32.37,64.88 21.76,64.88 "/>
  </g>
 </g>
</svg>
