<?xml version="1.0" encoding="UTF-8"?>
<!DOCTYPE svg PUBLIC "-//W3C//DTD SVG 1.1//EN" "http://www.w3.org/Graphics/SVG/1.1/DTD/svg11.dtd">
<!-- Creator: CorelDRAW -->
<svg xmlns="http://www.w3.org/2000/svg" xml:space="preserve" width="2.26329in" height="1.78188in" version="1.1" style="shape-rendering:geometricPrecision; text-rendering:geometricPrecision; image-rendering:optimizeQuality; fill-rule:evenodd; clip-rule:evenodd"
viewBox="0 0 2919.33 2298.38"
 xmlns:xlink="http://www.w3.org/1999/xlink"
 xmlns:xodm="http://www.corel.com/coreldraw/odm/2003">
 <defs>
  <style type="text/css">
   <![CDATA[
    .fil0 {fill:#303030}
   ]]>
  </style>
 </defs>
 <g id="Layer_x0020_1">
  <metadata id="CorelCorpID_0Corel-Layer"/>
  <g id="_2514468709600">
   <g>
    <path class="fil0" d="M2030.35 2040.82c121.82,0 236.82,-87.06 236.82,-195.77 0,-25.86 1.87,-22.64 -3.15,-44.2l-271.56 0c0,94.19 -18.05,75.78 88.42,75.78 33.68,0 67.36,0 101.04,0 -3.39,40.69 -75.82,94.73 -138.93,94.73 -52.14,0 -78.93,-7.07 -118.24,-36.49 -37.56,-28.1 -49.12,-63.95 -49.12,-108.76 0,-102.19 152.28,-169.86 250.73,-102.32 20.31,13.94 17.77,10.89 49.24,10.75 21.04,-0.09 42.11,-0.01 63.16,-0.01 -30.16,-45.05 -74.18,-77.47 -126.63,-94.4 -190.33,-61.44 -399.35,120.16 -280.75,299.69 35.44,53.65 109.81,100.99 198.98,100.99z"/>
    <path class="fil0" d="M2526.1 1838.73c0,-136.25 178.35,-179.53 264.37,-106.48 112.29,95.38 25.12,239.1 -97.01,239.1l-18.95 0c-72.51,0 -148.41,-61.24 -148.41,-132.62zm-75.78 -18.94l0 0 0 25.26c0,108.71 115.02,195.77 236.83,195.77 94.58,0 176.44,-54.8 208.44,-116.78 19.33,-37.42 31.27,-80.9 18.35,-132.12 -6.72,-26.67 -11.95,-36.66 -24.48,-57.62 -61.17,-102.35 -224.05,-142.63 -344.27,-65.93 -12.82,8.19 -35.31,25.81 -44.39,37.7 -22.82,29.9 -50.48,68.07 -50.48,113.72z"/>
    <path class="fil0" d="M1193.58 1639.81l0 393.16 75.78 0 0 -282.65c13.57,9.09 23.55,21.97 35.53,33.95l202.63 214.17c15.37,19.92 26.45,21.28 29.53,34.53l76.5 0 0 -399.1 -73.49 0c-6.11,7 -2.29,23.86 -2.29,62.78l0 230.5c-12.34,-8.26 -52.56,-57.63 -68.67,-73.42 -13.11,-12.84 -20.07,-23.31 -33.21,-36.26l-136.77 -150.57c-13.84,-17.92 -15.82,-15.45 -28.31,-33.02l-75.26 0c-1.26,1.48 -1.97,3.42 -1.97,5.94z"/>
    <path class="fil0" d="M707.31 1848.2c0,-72.06 -8.47,-78.42 21.29,-108.17 59.96,-59.94 149.89,-46.91 194.25,3.16 7.84,8.85 18.13,19.76 18.13,32.39l0 110.51c-43.62,0 -45.32,14.74 -125.38,-16.71 -55.6,-21.84 -60.75,-26.15 -108.28,-21.19zm-75.78 -85.25l0 0 0 277.86 75.78 0c0,-104 -12.96,-119.99 41.05,-119.99 50.87,0 149.2,61.88 192.62,41.05l0 78.94 75.79 0 0 -274.71c0,-12.77 -20.58,-45.77 -27.63,-54.47 -90.05,-111.07 -237.35,-112.03 -328.25,-4.6 -7.8,9.21 -29.35,42.07 -29.35,55.91z"/>
    <path class="fil0" d="M63.15 1630.33l-63.15 0 0 406.37 75.78 0 0 -276.9c9.34,6.26 24.82,26.24 32.92,36.55 8.41,10.7 71.3,87.88 93.18,109.52l45.96 0 59.42 -69.31c22.3,-26.54 43.2,-51.29 65.33,-76.76l0 276.9 75.79 0 0 -406.37 -59.99 0 -12.14 0 -1.37 1.77c-1.04,1.41 -2.33,3.29 -4.01,5.76l-17.65 22.21 -84.92 109.67 0.01 0 -42.93 55.95 -4.85 -6.54 -151.54 -188.82 -5.56 0 -0.28 0zm125.54 145.96l0 0 31.84 42.86 -151.54 -188.82 2.78 0 51.15 63.63c22.95,29.12 48.68,61.16 65.77,82.33z"/>
   </g>
   <g>
    <g>
     <path class="fil0" d="M516.4 2225.54l0 25.28c15.02,-10.14 38.83,16.33 65.98,7.43l0 -32.72c-6.42,-11.61 -18.78,-19.47 -32.99,-19.47 -14.2,0 -26.56,7.86 -32.99,19.47zm82.1 36.97l0 0 0 33.67 -16.13 0 0 -21.98c-14.36,11.2 -53.68,-23.18 -65.98,-3.81l0 25.79 -15.89 0 0 -33.27 -0.23 0.06 0 -38.46c7.68,-19.61 26.77,-33.51 49.11,-33.51 22.34,0 41.44,13.89 49.12,33.51l0 38z"/>
     <polygon class="fil0" points="873.94,2295.79 873.94,2191.92 890.07,2191.92 890.07,2295.79 "/>
     <polygon class="fil0" points="873.94,2251.92 950.98,2251.92 950.98,2235.79 873.94,2235.79 "/>
     <polygon class="fil0" points="873.94,2208.05 961.93,2208.05 961.93,2191.92 873.94,2191.92 "/>
     <polygon class="fil0" points="873.94,2295.79 961.93,2295.79 961.93,2279.65 873.94,2279.65 "/>
     <path class="fil0" d="M629.51 2221.94c0,39.18 75.09,23.14 75.09,41.57 0,17.1 -19.3,20.11 -33.53,20.11 -14.26,0 -23.03,-8.23 -24.13,-21.46l-18.77 0c0,25.88 19.17,34.98 39.24,36.2l9.89 0c12.49,-0.72 24.15,-3.97 30.45,-7.57 14.55,-8.31 21.61,-36.27 4.17,-48.02 -13.51,-9.12 -63.65,-7.11 -63.65,-19.5 0,-15.79 14.59,-18.77 28.16,-18.77 15.36,0 20.19,7.44 25.48,17.43l16.09 0c-6.64,-28.5 -17.7,-32.18 -48.28,-32.18 -21.37,0 -40.22,11.23 -40.22,32.18z"/>
     <path class="fil0" d="M755.18 2221.94c0,39.18 75.09,23.14 75.09,41.57 0,17.1 -19.3,20.11 -33.52,20.11 -14.26,0 -23.03,-8.23 -24.14,-21.46l-18.77 0c0,25.88 19.18,34.98 39.25,36.2l9.89 0c12.48,-0.72 24.14,-3.97 30.45,-7.57 14.55,-8.31 21.61,-36.27 4.17,-48.02 -13.52,-9.12 -63.65,-7.11 -63.65,-19.5 0,-15.79 14.59,-18.77 28.16,-18.77 15.37,0 20.2,7.44 25.48,17.43l16.09 0c-6.64,-28.5 -17.69,-32.18 -48.27,-32.18 -21.37,0 -40.22,11.23 -40.22,32.18z"/>
     <polygon class="fil0" points="984.92,2208.05 1072.91,2208.05 1072.91,2191.92 984.92,2191.92 "/>
     <polygon class="fil0" points="1036.98,2191.92 1036.98,2296.23 1020.84,2296.23 1020.84,2191.92 "/>
    </g>
    <g>
     <path class="fil0" d="M1778.41 2252.86l-51.09 0 0 -16.13 51.46 0 13.28 0 3.18 0c0.39,2.39 0.59,4.83 0.59,7.32 0,29.01 -26.93,52.53 -60.16,52.53 -33.22,0 -60.16,-23.52 -60.16,-52.53 0,-29.01 26.93,-52.53 60.16,-52.53 21.3,0 40.01,9.67 50.7,24.26l-21.05 0c-7.81,-6.25 -18.22,-10.06 -29.65,-10.06 -24.25,0 -43.91,17.16 -43.91,38.34 0,21.18 19.66,38.34 43.91,38.34 20.77,0 38.18,-12.6 42.74,-29.53z"/>
     <polygon class="fil0" points="1139.81,2192.1 1155.94,2192.1 1155.94,2295.99 1139.81,2295.99 "/>
     <polygon class="fil0" points="1238.46,2192.1 1254.58,2192.1 1254.58,2295.99 1238.46,2295.99 "/>
     <polygon class="fil0" points="1238.46,2192.1 1250.86,2203.76 1202.28,2261.48 1197.44,2243.47 "/>
     <polygon class="fil0" points="1156.13,2192.1 1143.73,2203.76 1192.3,2261.48 1197,2243.47 "/>
     <polygon class="fil0" points="1202.28,2261.48 1192.3,2261.48 1192.48,2250.41 1194.8,2244.06 1199.7,2243.67 "/>
     <path class="fil0" d="M1299.27 2225.98l0 25.28c15.02,-10.14 38.83,16.33 65.98,7.43l0 -32.72c-6.42,-11.61 -18.78,-19.46 -32.99,-19.46 -14.2,0 -26.56,7.86 -32.99,19.46zm82.11 36.97l0 0 0 33.67 -16.13 0 0 -21.98c-14.36,11.2 -53.68,-23.18 -65.98,-3.81l0 25.79 -15.89 0 0 -33.27 -0.24 0.06 0 -38.46c7.69,-19.61 26.78,-33.51 49.12,-33.51 22.34,0 41.44,13.89 49.12,33.51l0 38z"/>
     <polygon class="fil0" points="1413.05,2192.1 1429.19,2192.1 1429.19,2295.99 1413.05,2295.99 "/>
     <polygon class="fil0" points="1429.19,2192.1 1417.23,2203.76 1504.7,2295.99 1504.19,2274.73 "/>
     <polygon class="fil0" points="1504.1,2192.1 1520.22,2192.1 1520.22,2295.99 1504.1,2295.99 "/>
     <path class="fil0" d="M1563.77 2225.98l0 25.28c15.02,-10.14 38.83,16.33 65.98,7.43l0 -32.72c-6.42,-11.61 -18.79,-19.46 -32.98,-19.46 -14.2,0 -26.57,7.86 -32.99,19.46zm82.1 36.97l0 0 0 33.67 -16.13 0 0 -21.98c-14.36,11.2 -53.67,-23.18 -65.98,-3.81l0 25.79 -15.88 0 0 -33.27 -0.24 0.06 0 -38.46c7.69,-19.61 26.78,-33.51 49.12,-33.51 22.34,0 41.43,13.89 49.11,33.51l0 38z"/>
     <polygon class="fil0" points="1822.1,2296.23 1822.1,2192.36 1838.23,2192.36 1838.23,2296.23 "/>
     <polygon class="fil0" points="1822.1,2252.36 1899.14,2252.36 1899.14,2236.23 1822.1,2236.23 "/>
     <polygon class="fil0" points="1822.1,2208.49 1910.09,2208.49 1910.09,2192.36 1822.1,2192.36 "/>
     <polygon class="fil0" points="1822.1,2296.23 1910.09,2296.23 1910.09,2280.1 1822.1,2280.1 "/>
     <polygon class="fil0" points="1940.78,2192.1 1956.91,2192.1 1956.91,2295.99 1940.78,2295.99 "/>
     <polygon class="fil0" points="2039.43,2192.1 2055.56,2192.1 2055.56,2295.99 2039.43,2295.99 "/>
     <polygon class="fil0" points="2039.43,2192.1 2051.84,2203.76 2003.26,2261.48 1998.42,2243.47 "/>
     <polygon class="fil0" points="1957.11,2192.1 1944.7,2203.76 1993.28,2261.48 1997.98,2243.47 "/>
     <polygon class="fil0" points="2003.26,2261.48 1993.28,2261.48 1993.46,2250.41 1995.77,2244.06 2000.68,2243.67 "/>
     <polygon class="fil0" points="2078.92,2296.23 2078.92,2192.36 2095.05,2192.36 2095.05,2296.23 "/>
     <polygon class="fil0" points="2078.92,2252.36 2155.96,2252.36 2155.96,2236.23 2078.92,2236.23 "/>
     <polygon class="fil0" points="2078.92,2208.49 2166.9,2208.49 2166.9,2192.36 2078.92,2192.36 "/>
     <polygon class="fil0" points="2078.92,2296.23 2166.9,2296.23 2166.9,2280.1 2078.92,2280.1 "/>
     <polygon class="fil0" points="2197.26,2192.1 2213.39,2192.1 2213.39,2295.99 2197.26,2295.99 "/>
     <polygon class="fil0" points="2213.39,2192.1 2201.43,2203.76 2288.91,2295.99 2288.39,2274.73 "/>
     <polygon class="fil0" points="2288.3,2192.1 2304.43,2192.1 2304.43,2295.99 2288.3,2295.99 "/>
     <polygon class="fil0" points="2331.09,2208.49 2419.07,2208.49 2419.07,2192.36 2331.09,2192.36 "/>
     <polygon class="fil0" points="2383.14,2192.36 2383.14,2296.68 2367.01,2296.68 2367.01,2192.36 "/>
    </g>
   </g>
   <g>
    <polygon class="fil0" points="1067.03,150.59 1165.44,150.59 1165.44,1121.99 1067.03,1121.99 "/>
    <polygon class="fil0" points="1279.39,58.78 1377.8,58.78 1377.8,1208.53 1279.39,1208.53 "/>
    <polygon class="fil0" points="1540.01,60.53 1638.42,60.53 1638.42,1215.53 1540.01,1215.53 "/>
    <polygon class="fil0" points="1379.67,925.63 1379.67,827.22 1540.01,827.22 1540.01,925.63 "/>
    <polygon class="fil0" points="1752.37,154.16 1850.78,154.16 1850.78,1110.21 1752.37,1110.21 "/>
    <path class="fil0" d="M1459.67 0c356.07,0 644.73,288.66 644.73,644.73 0,160.22 -58.46,306.78 -155.2,419.54l0 -167.23c39.05,-75.59 61.11,-161.37 61.11,-252.32 0,-304.1 -246.53,-550.63 -550.63,-550.63 -304.1,0 -550.63,246.53 -550.63,550.63 0,89.75 21.49,174.48 59.58,249.34l0 168.39c-95.82,-112.52 -153.68,-258.36 -153.68,-417.74 0,-356.07 288.66,-644.73 644.73,-644.73z"/>
    <path class="fil0" d="M1067.03 1030.72c29.59,30.1 62.6,56.8 98.41,79.49l0 108.31c-34.76,-17.87 -67.68,-38.79 -98.41,-62.43l0 -125.38zm212.36 134.44c31.6,10.94 64.5,19.09 98.41,24.15l0 95.01c-33.68,-4.28 -66.55,-11.15 -98.41,-20.41l0 -98.75zm260.62 24.38c33.91,-4.96 66.81,-13.01 98.41,-23.85l0 98.65c-31.86,9.18 -64.73,15.97 -98.41,20.16l0 -94.97zm212.36 -78.35c35.79,-22.51 68.8,-49.01 98.41,-78.89l0 124.98c-30.74,23.5 -63.67,44.29 -98.41,62.03l0 -108.12z"/>
   </g>
  </g>
 </g>
</svg>
