<?xml version="1.0" encoding="UTF-8"?>
<!DOCTYPE svg PUBLIC "-//W3C//DTD SVG 1.1//EN" "http://www.w3.org/Graphics/SVG/1.1/DTD/svg11.dtd">
<!-- Creator: CorelDRAW -->
<svg xmlns="http://www.w3.org/2000/svg" xml:space="preserve" width="1.77319in" height="0.852228in" version="1.1" style="shape-rendering:geometricPrecision; text-rendering:geometricPrecision; image-rendering:optimizeQuality; fill-rule:evenodd; clip-rule:evenodd"
viewBox="0 0 160.06 76.93"
 xmlns:xlink="http://www.w3.org/1999/xlink"
 xmlns:xodm="http://www.corel.com/coreldraw/odm/2003">
 <defs>
  <style type="text/css">
   <![CDATA[
    .fil0 {fill:#303030;fill-rule:nonzero}
   ]]>
  </style>
 </defs>
 <g id="Layer_x0020_1">
  <metadata id="CorelCorpID_0Corel-Layer"/>
  <g id="_2518804541008">
   <path class="fil0" d="M0 14.85c0,-0.31 0.15,-0.46 0.44,-0.46l11.13 0c0.29,0 0.44,0.15 0.44,0.46l0 2.6c0,0.31 -0.15,0.46 -0.44,0.46l-3.63 0 0 11.27c0,0.02 0,0.03 0,0.05 0,0.23 -0.19,0.41 -0.41,0.41 -0.02,0 -0.03,-0 -0.05,-0l-2.95 0c-0.02,0 -0.03,0 -0.05,0 -0.22,0 -0.4,-0.18 -0.4,-0.4 0,-0.02 0,-0.04 0,-0.06l-0 -11.38 -3.65 0c-0.29,0 -0.44,-0.15 -0.44,-0.46l0 -2.49z"/>
   <path class="fil0" d="M17.6 14.85c0,-0.31 0.15,-0.46 0.44,-0.46l3.07 0c0.29,0 0.44,0.15 0.44,0.46l0 14.33c0,0.02 0,0.04 0,0.06 0,0.22 -0.18,0.4 -0.4,0.4 -0.02,0 -0.03,-0 -0.05,-0l-3.07 0c-0.02,0 -0.03,0 -0.05,0 -0.22,0 -0.4,-0.18 -0.4,-0.4 0,-0.02 0,-0.04 0.01,-0.06l-0 -14.33z"/>
   <path class="fil0" d="M27.14 14.85c0,-0.31 0.15,-0.46 0.44,-0.46l11.14 0c0.3,0 0.44,0.15 0.44,0.46l0 2.6c0,0.31 -0.15,0.46 -0.44,0.46l-3.64 0 0 11.27c0,0.02 0,0.03 0,0.05 0,0.23 -0.19,0.41 -0.41,0.41 -0.02,0 -0.03,-0 -0.05,-0l-2.95 0c-0.02,0 -0.03,0 -0.05,0 -0.22,0 -0.4,-0.18 -0.4,-0.4 0,-0.02 0,-0.04 0,-0.06l-0 -11.38 -3.65 0c-0.29,0 -0.44,-0.15 -0.44,-0.46l0 -2.49z"/>
   <path class="fil0" d="M46.51 14.85c0.07,-0.27 0.32,-0.46 0.6,-0.46 0.01,0 0.01,0 0.02,0l2.52 0c0.29,0 0.54,0.19 0.62,0.46l5.56 14.28c0.12,0.29 0,0.46 -0.28,0.46l-3.04 0c-0.01,0 -0.01,0 -0.02,0 -0.28,0 -0.52,-0.19 -0.59,-0.46l-0.71 -2.01 -5.61 -0 -0.69 2.01c-0.07,0.27 -0.32,0.46 -0.6,0.46 -0.01,0 -0.01,0 -0.02,-0l-3.06 0c-0.31,0 -0.4,-0.16 -0.29,-0.46l5.58 -14.28zm1.86 4.43l-1.62 4.66 3.28 -0 -1.65 -4.66z"/>
   <path class="fil0" d="M64.76 20.25l0 8.85c0,0.29 -0.18,0.46 -0.5,0.46l-2.86 0c-0.02,0 -0.03,0 -0.05,0 -0.23,0 -0.41,-0.19 -0.41,-0.41 0,-0.02 0,-0.03 0,-0.05l-0 -14.25c0,-0.12 0.04,-0.23 0.12,-0.32 0.08,-0.09 0.18,-0.14 0.3,-0.14 0.01,0 0.03,0 0.04,0l3.29 0c0.14,0 0.28,0.04 0.4,0.12 0.13,0.09 0.24,0.21 0.32,0.34l5.18 8.26 0 -8.26c0,-0.12 0.04,-0.23 0.12,-0.32 0.08,-0.09 0.2,-0.13 0.32,-0.13 0.01,0 0.02,0 0.04,0l2.85 0c0.12,0.01 0.23,0.05 0.33,0.12 0.11,0.08 0.18,0.2 0.18,0.34 0,0 0,0 0,0l0 14.33c0,0.29 -0.16,0.46 -0.5,0.46l-2.95 0c-0.31,-0.01 -0.59,-0.18 -0.74,-0.46l-5.46 -8.93z"/>
   <path class="fil0" d="M0 33.9c0,-0.31 0.15,-0.46 0.44,-0.46l11.13 0c0.29,0 0.44,0.15 0.44,0.46l0 2.6c0,0.31 -0.15,0.46 -0.44,0.46l-3.63 0 0 11.27c0,0.02 0.01,0.04 0.01,0.06 0,0.22 -0.18,0.4 -0.4,0.4 -0.02,0 -0.04,-0 -0.06,-0l-2.95 0c-0.29,0 -0.44,-0.15 -0.44,-0.46l0 -11.24 -3.65 0c-0.29,0 -0.44,-0.15 -0.44,-0.46l0 -2.63z"/>
   <path class="fil0" d="M16.75 33.9c0,-0.01 0,-0.01 0,-0.02 0,-0.11 0.04,-0.21 0.1,-0.29 0.07,-0.09 0.18,-0.15 0.3,-0.15 0.01,0 0.03,0 0.04,0l6.8 0c0.02,-0 0.03,-0 0.05,-0 0.67,0 1.33,0.15 1.93,0.44 0.56,0.28 1.06,0.67 1.48,1.15 0.43,0.48 0.78,1.03 1,1.64 0.22,0.6 0.34,1.24 0.34,1.89 -0,0.41 -0.06,0.82 -0.18,1.21 -0.12,0.4 -0.29,0.78 -0.52,1.14 -0.22,0.37 -0.48,0.71 -0.78,1.02 -0.3,0.32 -0.64,0.6 -1.02,0.83l2.95 5.47c0.02,0.05 0.04,0.1 0.04,0.15 0,0.05 -0.01,0.11 -0.04,0.16 -0.05,0.09 -0.15,0.15 -0.26,0.15 -0.01,0 -0.02,-0 -0.02,-0l-3.63 0c-0.01,0 -0.02,0 -0.04,0 -0.1,0 -0.19,-0.03 -0.27,-0.09 -0.1,-0.1 -0.18,-0.21 -0.24,-0.34l-2.43 -4.65 -1.65 0 0 4.62c0,0.02 0.01,0.04 0.01,0.06 0,0.22 -0.18,0.4 -0.4,0.4 -0.02,0 -0.04,-0 -0.06,-0l-3.06 0c-0.29,0 -0.44,-0.15 -0.44,-0.46l0 -14.33zm3.95 2.71l0 3.72 2.27 0c0,-0 0,-0 0,-0 0.25,0 0.5,-0.06 0.73,-0.16 0.22,-0.09 0.43,-0.24 0.59,-0.41 0.15,-0.18 0.28,-0.38 0.37,-0.59 0.09,-0.22 0.13,-0.45 0.13,-0.68 0,-0.23 -0.05,-0.46 -0.13,-0.68 -0.09,-0.22 -0.22,-0.42 -0.38,-0.59 -0.17,-0.18 -0.36,-0.33 -0.58,-0.44 -0.23,-0.11 -0.48,-0.16 -0.73,-0.16 -0,0 -0,0 -0,0l-2.27 0z"/>
   <path class="fil0" d="M37.32 42.6c0,0.02 0,0.03 0,0.05 0,0.42 0.07,0.84 0.21,1.23 0.12,0.32 0.31,0.61 0.56,0.86 0.23,0.22 0.5,0.38 0.8,0.49 0.3,0.1 0.62,0.16 0.94,0.16 0.01,0 0.03,0 0.04,0 0.32,0 0.64,-0.07 0.93,-0.19 0.31,-0.12 0.58,-0.3 0.81,-0.53 0.23,-0.25 0.42,-0.55 0.55,-0.87 0.13,-0.36 0.19,-0.73 0.19,-1.11 0,-0.03 -0,-0.06 -0,-0.09l0 -8.71c0,-0.12 0.05,-0.24 0.13,-0.32 0.09,-0.09 0.21,-0.13 0.33,-0.13 0,0 0.01,0 0.01,0l2.95 0c0.01,-0 0.03,-0 0.04,-0 0.12,0 0.24,0.05 0.33,0.13 0.08,0.09 0.13,0.2 0.13,0.33l0 8.65c0,0.05 0,0.11 0,0.17 0,0.95 -0.18,1.9 -0.53,2.78 -0.33,0.76 -0.83,1.44 -1.48,1.96 -0.6,0.5 -1.31,0.87 -2.07,1.08 -0.81,0.21 -1.64,0.32 -2.48,0.32 -0,0 -0.01,0 -0.01,0 -0.83,0 -1.65,-0.11 -2.45,-0.34 -0.76,-0.2 -1.46,-0.57 -2.07,-1.08 -0.64,-0.53 -1.14,-1.21 -1.48,-1.98 -0.35,-0.87 -0.53,-1.81 -0.53,-2.76 0,-0.06 0,-0.13 0,-0.2l-0 -8.62c0,-0 0,-0.01 0,-0.01 0,-0.11 0.04,-0.22 0.1,-0.32 0.08,-0.08 0.18,-0.13 0.3,-0.13l3.14 0c0.02,-0 0.04,-0 0.05,-0 0.11,0 0.22,0.05 0.3,0.14 0.01,0.05 0.02,0.11 0.02,0.16 0,0.05 -0.01,0.11 -0.02,0.16l0.24 8.71z"/>
   <path class="fil0" d="M50.94 46.05c-0.05,-0.07 -0.09,-0.14 -0.12,-0.22 -0.01,-0.04 -0.02,-0.07 -0.02,-0.11 0,-0.04 0.01,-0.07 0.02,-0.11 0.03,-0.1 0.09,-0.18 0.16,-0.25l1.77 -1.68c0.08,-0.09 0.19,-0.14 0.31,-0.15 0.04,-0.01 0.08,-0.02 0.12,-0.02 0.04,0 0.08,0 0.12,0.02 0.09,0.05 0.17,0.11 0.25,0.18l0.63 0.52c0.24,0.18 0.5,0.36 0.77,0.52 0.27,0.16 0.56,0.29 0.86,0.4 0.28,0.11 0.58,0.16 0.88,0.16 0.01,0 0.03,-0 0.04,-0 0.04,0 0.08,0 0.11,0 0.25,0 0.5,-0.04 0.74,-0.12 0.2,-0.06 0.38,-0.17 0.53,-0.31 0.13,-0.13 0.22,-0.28 0.27,-0.46 0.01,-0.09 0.02,-0.18 0.02,-0.27 0,-0.09 -0.01,-0.18 -0.02,-0.27 -0,-0.21 -0.08,-0.42 -0.22,-0.58 -0.16,-0.17 -0.35,-0.32 -0.56,-0.43 -0.22,-0.13 -0.45,-0.24 -0.69,-0.32 -0.24,-0.1 -0.46,-0.18 -0.63,-0.24 -0.72,-0.25 -1.42,-0.55 -2.09,-0.9 -0.58,-0.29 -1.11,-0.67 -1.58,-1.12 -0.41,-0.38 -0.73,-0.84 -0.96,-1.34 -0.21,-0.49 -0.33,-1.02 -0.33,-1.56 0,-0.03 0,-0.05 0,-0.08 -0,-0.02 -0,-0.03 -0,-0.05 0,-0.58 0.14,-1.16 0.4,-1.68 0.28,-0.52 0.67,-0.97 1.14,-1.33 0.53,-0.39 1.13,-0.68 1.76,-0.86 0.7,-0.2 1.44,-0.31 2.17,-0.31 0.03,0 0.06,0 0.09,0 0.49,0 0.99,0.05 1.48,0.15 0.46,0.1 0.92,0.24 1.36,0.41 0.43,0.17 0.85,0.38 1.24,0.64 0.35,0.23 0.67,0.5 0.96,0.81 0.13,0.12 0.21,0.29 0.22,0.47 -0.02,0.18 -0.11,0.34 -0.25,0.46l-1.59 1.71c-0.09,0.09 -0.21,0.15 -0.34,0.16 -0.1,-0 -0.19,-0.03 -0.27,-0.09 -0.1,-0.05 -0.18,-0.12 -0.27,-0.19 -0.34,-0.32 -0.73,-0.59 -1.15,-0.8 -0.39,-0.19 -0.82,-0.3 -1.26,-0.3 -0.03,0 -0.06,0 -0.08,0 -0.1,-0.01 -0.19,-0.01 -0.29,-0.01 -0.1,0 -0.19,0 -0.29,0.01 -0.18,0.03 -0.35,0.08 -0.52,0.16 -0.15,0.08 -0.28,0.19 -0.37,0.32 -0.1,0.15 -0.15,0.32 -0.15,0.49 0,0.18 0.05,0.35 0.15,0.49 0.1,0.18 0.23,0.33 0.4,0.46 0.24,0.14 0.5,0.25 0.77,0.34l0.99 0.35c0.68,0.22 1.34,0.47 1.99,0.75 0.56,0.24 1.08,0.55 1.55,0.93 0.43,0.35 0.77,0.8 1,1.3 0.24,0.52 0.37,1.09 0.37,1.67 0,0.05 -0,0.1 -0,0.14 0,0.02 0,0.04 0,0.06 0,0.68 -0.15,1.36 -0.44,1.98 -0.29,0.61 -0.71,1.14 -1.24,1.56 -0.55,0.45 -1.17,0.79 -1.85,1 -0.73,0.23 -1.49,0.35 -2.26,0.35 -0.02,0 -0.05,0 -0.07,0 -0.53,-0 -1.06,-0.07 -1.58,-0.21 -0.51,-0.14 -1,-0.33 -1.48,-0.56 -0.48,-0.23 -0.93,-0.51 -1.36,-0.83 -0.41,-0.3 -0.8,-0.64 -1.15,-1 -0.06,-0.08 -0.11,-0.16 -0.15,-0.25l-0 0z"/>
   <path class="fil0" d="M66.4 33.9c-0,-0.02 -0,-0.04 -0,-0.06 0,-0.22 0.18,-0.4 0.4,-0.4 0.02,0 0.04,0 0.06,0l11.11 0c0.02,-0 0.04,-0 0.06,-0 0.22,0 0.4,0.18 0.4,0.4 0,0.02 -0,0.04 -0,0.06l0 2.6c0.01,0.03 0.01,0.06 0.01,0.09 0,0.22 -0.18,0.4 -0.4,0.4 -0.02,0 -0.05,-0 -0.07,-0.01l-3.65 0 0 11.27c0,0.02 0.01,0.04 0.01,0.06 0,0.22 -0.18,0.4 -0.4,0.4 -0.02,0 -0.04,-0 -0.06,-0l-2.95 0c-0.02,0 -0.04,0 -0.06,0 -0.22,0 -0.4,-0.18 -0.4,-0.4 0,-0.02 0,-0.04 0,-0.06l-0 -11.27 -3.6 0c-0.02,0 -0.04,0 -0.06,0 -0.22,0 -0.4,-0.18 -0.4,-0.4 0,-0.02 0,-0.04 0,-0.06l-0 -2.63z"/>
   <path class="fil0" d="M4.37 52.68c0,-0.28 0.13,-0.41 0.4,-0.41l6.23 0c0.51,0.01 1.01,0.11 1.48,0.31 0.48,0.21 0.91,0.5 1.28,0.87 0.37,0.37 0.66,0.8 0.86,1.28 0.21,0.48 0.33,1 0.33,1.53 0,0.02 -0,0.03 -0,0.05 0,0.01 0,0.02 0,0.03 0,0.44 -0.08,0.87 -0.22,1.28 -0.13,0.4 -0.34,0.76 -0.62,1.08 0.45,0.42 0.81,0.92 1.06,1.48 0.26,0.56 0.4,1.18 0.4,1.8 0,0 0,0 0,0 0,0.06 0,0.12 0,0.17 0,0.48 -0.09,0.95 -0.25,1.39 -0.21,0.5 -0.51,0.96 -0.89,1.36 -0.37,0.38 -0.81,0.69 -1.3,0.91 -0.48,0.23 -1.01,0.36 -1.55,0.38l-6.8 0c-0.01,0 -0.02,0 -0.03,0 -0.2,0 -0.37,-0.16 -0.37,-0.37 0,-0.01 0,-0.03 0,-0.05l-0 -13.1zm3.62 2.36l0 2.72 1.99 0c0.2,-0 0.4,-0.04 0.59,-0.1 0.17,-0.07 0.32,-0.16 0.46,-0.28 0.12,-0.12 0.22,-0.27 0.3,-0.43 0.07,-0.17 0.1,-0.35 0.1,-0.53 0,-0.01 0,-0.01 0,-0.02 0,-0.01 0,-0.02 0,-0.03 0,-0.17 -0.04,-0.34 -0.1,-0.5 -0.07,-0.16 -0.17,-0.31 -0.29,-0.43 -0.13,-0.12 -0.28,-0.22 -0.44,-0.29 -0.17,-0.07 -0.36,-0.1 -0.54,-0.1 -0.01,0 -0.02,0 -0.03,0l-2.02 0zm0 5.24l0 3.13 2.51 0c0.2,-0 0.39,-0.05 0.56,-0.13 0.17,-0.08 0.33,-0.2 0.46,-0.34 0.13,-0.15 0.24,-0.32 0.31,-0.5 0.08,-0.19 0.12,-0.39 0.12,-0.59 0,-0.01 0,-0.01 0,-0.02 0,-0.19 -0.04,-0.37 -0.1,-0.54 -0.07,-0.19 -0.18,-0.36 -0.31,-0.5 -0.13,-0.15 -0.28,-0.28 -0.46,-0.37 -0.18,-0.09 -0.37,-0.13 -0.57,-0.13 -0,0 -0.01,0 -0.01,0l-2.51 0z"/>
   <path class="fil0" d="M26.68 52.68c0.07,-0.24 0.29,-0.41 0.54,-0.41 0.01,0 0.02,0 0.03,0l2.29 0c0.01,-0 0.02,-0 0.02,-0 0.26,0 0.48,0.17 0.55,0.41l5.06 13.1c0.1,0.27 0,0.41 -0.27,0.41l-2.69 0c-0,0 -0.01,0 -0.02,0 -0.25,0 -0.47,-0.17 -0.53,-0.41l-0.66 -1.84 -5.16 0 -0.63 1.84c-0.07,0.24 -0.3,0.41 -0.55,0.41 -0.01,0 -0.02,0 -0.02,-0l-2.75 0c-0.28,0 -0.37,-0.15 -0.27,-0.41l5.05 -13.1zm1.7 3.98l-1.48 4.26 2.95 0 -1.48 -4.26z"/>
   <path class="fil0" d="M45.64 57.64l0 8.12c0,0.27 -0.15,0.41 -0.46,0.41l-2.63 0c-0.01,0 -0.03,0 -0.05,0 -0.2,0 -0.37,-0.17 -0.37,-0.37 0,-0.02 0,-0.03 0,-0.05l-0 -13.07c0,-0 0,-0 0,-0.01 0,-0.11 0.04,-0.21 0.1,-0.29 0.07,-0.08 0.18,-0.12 0.28,-0.12 0.01,0 0.02,0 0.03,0l3.04 0c0,-0 0.01,-0 0.01,-0 0.13,0 0.25,0.04 0.36,0.1 0.11,0.09 0.21,0.19 0.29,0.31l4.69 7.6 -0 -7.6c0,-0 0,-0 0,-0.01 0,-0.11 0.04,-0.21 0.1,-0.29 0.08,-0.08 0.18,-0.12 0.28,-0.12 0.01,0 0.02,0 0.03,0l2.61 0c0.11,0.01 0.21,0.05 0.3,0.12 0.1,0.06 0.16,0.17 0.16,0.28 0,0 0,0.01 0,0.01l0 13.1c0,0.27 -0.15,0.41 -0.46,0.41l-2.73 0c-0.28,-0.01 -0.54,-0.17 -0.68,-0.41l-4.93 -8.15z"/>
   <path class="fil0" d="M69.52 58.2l5.03 7.56c0.09,0.13 0.13,0.24 0.1,0.31 -0.03,0.08 -0.11,0.13 -0.19,0.13 -0.01,0 -0.02,-0 -0.03,-0l-3.56 0c-0,0 -0.01,0 -0.01,0 -0.12,0 -0.23,-0.04 -0.32,-0.12 -0.1,-0.08 -0.18,-0.18 -0.24,-0.29l-3.08 -4.78 -1.37 1.67 0 3.11c0,0.01 0,0.03 0,0.05 0,0.2 -0.16,0.37 -0.37,0.37 -0.02,0 -0.03,-0 -0.05,-0l-2.8 0c-0.01,0 -0.02,0 -0.03,0 -0.2,0 -0.37,-0.16 -0.37,-0.37 0,-0.01 0,-0.03 0,-0.05l-0 -13.1c0,-0.01 0,-0.02 0,-0.02 0,-0.1 0.04,-0.21 0.1,-0.29 0.07,-0.07 0.17,-0.1 0.27,-0.1 0.01,0 0.02,0 0.03,0l2.76 0 0.13 0 0.15 0.07c0.05,0.03 0.1,0.08 0.13,0.13 0.01,0.03 0.01,0.06 0.01,0.09 0,0.03 -0,0.06 -0.01,0.09l0 5.14 4.03 -5.24c0.08,-0.12 0.19,-0.21 0.32,-0.27 0.06,-0.01 0.12,-0.01 0.18,-0.01 0.06,0 0.12,0 0.18,0.01l3.38 0c0.15,0 0.22,0 0.22,0.15 0,0.11 -0.04,0.21 -0.12,0.29l-4.49 5.48z"/>
   <path class="fil0" d="M155.63 8.85l-60.72 0c-2.44,0 -4.43,-1.98 -4.43,-4.43 0,-2.44 1.98,-4.43 4.43,-4.43l60.72 0c2.44,-0 4.43,1.98 4.43,4.43 0,2.44 -1.98,4.43 -4.43,4.43z"/>
   <g>
    <path class="fil0" d="M152.98 19.09l-23.61 55.1c-0.68,1.65 -2.3,2.73 -4.09,2.73 -0.62,0 -1.24,-0.13 -1.81,-0.39l0 0c-1.65,-0.68 -2.73,-2.3 -2.73,-4.09 0,-0.62 0.13,-1.24 0.39,-1.81l23.61 -55.11c0.69,-1.65 2.3,-2.72 4.09,-2.72 0.63,0 1.25,0.13 1.82,0.39l0 0c1.64,0.69 2.71,2.3 2.71,4.08 0,0.6 -0.12,1.2 -0.36,1.75l-0 0.07zm0 0l0 0 0 0z"/>
   </g>
   <g>
    <path class="fil0" d="M136.33 19.09l-15.32 35.83c-0.68,1.65 -2.3,2.73 -4.09,2.73 -0.62,0 -1.24,-0.13 -1.81,-0.39l0 0c-1.64,-0.69 -2.71,-2.3 -2.71,-4.08 0,-0.6 0.12,-1.2 0.36,-1.75l15.38 -35.84c0.69,-1.65 2.3,-2.72 4.09,-2.72 0.63,0 1.25,0.13 1.82,0.39l0 0c1.63,0.69 2.69,2.3 2.69,4.07 0,0.6 -0.12,1.2 -0.36,1.76l-0.05 0zm0 0l0 0 0 0z"/>
   </g>
   <g>
    <path class="fil0" d="M119.8 19.09l-7.07 16.66c-0.69,1.65 -2.3,2.72 -4.09,2.72 -0.63,0 -1.25,-0.13 -1.82,-0.39l0 0c-1.65,-0.68 -2.73,-2.3 -2.73,-4.09 0,-0.62 0.13,-1.24 0.39,-1.81l7.07 -16.66c0.69,-1.65 2.3,-2.72 4.09,-2.72 0.63,0 1.25,0.13 1.82,0.39l0 0c1.64,0.69 2.71,2.3 2.71,4.08 0,0.6 -0.12,1.2 -0.36,1.75l-0 0.07zm0 0l0 0 0 0z"/>
   </g>
  </g>
 </g>
</svg>
