<?xml version="1.0" encoding="UTF-8"?>
<!DOCTYPE svg PUBLIC "-//W3C//DTD SVG 1.1//EN" "http://www.w3.org/Graphics/SVG/1.1/DTD/svg11.dtd">
<!-- Creator: CorelDRAW -->
<svg xmlns="http://www.w3.org/2000/svg" xml:space="preserve" width="1.36634in" height="1.54923in" version="1.1" style="shape-rendering:geometricPrecision; text-rendering:geometricPrecision; image-rendering:optimizeQuality; fill-rule:evenodd; clip-rule:evenodd"
viewBox="0 0 224.06 254.05"
 xmlns:xlink="http://www.w3.org/1999/xlink"
 xmlns:xodm="http://www.corel.com/coreldraw/odm/2003">
 <defs>
  <style type="text/css">
   <![CDATA[
    .fil0 {fill:#303030}
   ]]>
  </style>
 </defs>
 <g id="Layer_x0020_1">
  <metadata id="CorelCorpID_0Corel-Layer"/>
  <g id="_2518802456016">
   <polygon class="fil0" points="72.2,125.95 91.06,125.95 91.06,226.31 72.2,226.31 "/>
   <polygon class="fil0" points="103.43,96.38 122.28,96.38 122.28,254.05 103.43,254.05 "/>
   <polygon class="fil0" points="134.65,125.95 153.5,125.95 153.5,226.31 134.65,226.31 "/>
   <path class="fil0" d="M112.03 0c61.87,0 112.03,50.16 112.03,112.03 0,36.24 -17.21,68.45 -43.89,88.93l-15.57 -15.11 -0 0c23.03,-16.43 38.05,-43.37 38.05,-73.82 0,-50.04 -40.57,-90.61 -90.61,-90.61 -50.05,0 -90.62,40.57 -90.62,90.61 0,31.01 15.58,58.37 39.33,74.71l-0.01 0 -15.78 15.03c-27.29,-20.43 -44.96,-53.02 -44.96,-89.74 0,-61.87 50.16,-112.03 112.03,-112.03z"/>
  </g>
 </g>
</svg>
