<?xml version="1.0" encoding="UTF-8"?>
<!DOCTYPE svg PUBLIC "-//W3C//DTD SVG 1.1//EN" "http://www.w3.org/Graphics/SVG/1.1/DTD/svg11.dtd">
<!-- Creator: CorelDRAW -->
<svg xmlns="http://www.w3.org/2000/svg" xml:space="preserve" width="1.12119in" height="1.01691in" version="1.1" style="shape-rendering:geometricPrecision; text-rendering:geometricPrecision; image-rendering:optimizeQuality; fill-rule:evenodd; clip-rule:evenodd"
viewBox="0 0 70.75 64.17"
 xmlns:xlink="http://www.w3.org/1999/xlink"
 xmlns:xodm="http://www.corel.com/coreldraw/odm/2003">
 <defs>
  <style type="text/css">
   <![CDATA[
    .fil0 {fill:#303030}
   ]]>
  </style>
 </defs>
 <g id="Layer_x0020_1">
  <metadata id="CorelCorpID_0Corel-Layer"/>
  <g id="_2518570999744">
   <polygon class="fil0" points="26.92,10.04 34.99,10.04 34.99,36.87 26.92,36.87 "/>
   <polygon class="fil0" points="45.35,16.01 37.28,16.01 37.28,26.37 45.35,26.37 "/>
   <polygon class="fil0" points="57.99,18.3 57.99,26.37 68.47,26.37 68.47,18.3 "/>
   <polygon class="fil0" points="37.28,36.73 63.2,36.73 63.2,28.66 37.28,28.66 "/>
   <polygon class="fil0" points="47.63,39.01 70.75,39.01 70.75,47.09 47.63,47.08 "/>
   <polygon class="fil0" points="9.15,47.08 34.99,47.08 34.99,39.01 9.15,39.01 "/>
   <polygon class="fil0" points="-0,36.73 24.63,36.73 24.63,28.66 -0,28.66 "/>
   <polygon class="fil0" points="26.92,39.01 34.99,39.01 34.99,59.6 26.92,59.6 "/>
   <polygon class="fil0" points="37.28,64.17 45.35,64.17 45.35,39.01 37.28,39.01 "/>
   <polygon class="fil0" points="55.7,0 47.63,0 47.63,26.37 55.7,26.37 "/>
   <polygon class="fil0" points="47.63,59.53 55.7,59.53 55.7,49.38 47.63,49.38 "/>
   <polygon class="fil0" points="16.56,16.01 24.63,16.01 24.63,26.37 16.56,26.37 "/>
   <polygon class="fil0" points="16.56,58.52 24.63,58.52 24.63,49.37 16.56,49.37 "/>
  </g>
 </g>
</svg>
