<?xml version="1.0" encoding="UTF-8"?>
<!DOCTYPE svg PUBLIC "-//W3C//DTD SVG 1.1//EN" "http://www.w3.org/Graphics/SVG/1.1/DTD/svg11.dtd">
<!-- Creator: CorelDRAW -->
<svg xmlns="http://www.w3.org/2000/svg" xml:space="preserve" width="2.09929in" height="0.901531in" version="1.1" style="shape-rendering:geometricPrecision; text-rendering:geometricPrecision; image-rendering:optimizeQuality; fill-rule:evenodd; clip-rule:evenodd"
viewBox="0 0 579.94 249.05"
 xmlns:xlink="http://www.w3.org/1999/xlink"
 xmlns:xodm="http://www.corel.com/coreldraw/odm/2003">
 <defs>
  <style type="text/css">
   <![CDATA[
    .fil1 {fill:#303030}
    .fil0 {fill:#303030;fill-rule:nonzero}
   ]]>
  </style>
 </defs>
 <g id="Layer_x0020_1">
  <metadata id="CorelCorpID_0Corel-Layer"/>
  <g id="_2518802425584">
   <path class="fil0" d="M31.33 117.75l0 -32.24 17.04 0c12.46,0 17.77,6.23 17.77,16.12 0,9.89 -5.31,16.12 -17.77,16.12l-17.04 0zm66.69 -16.12c0,-23.63 -15.76,-41.4 -47.27,-41.4l-50.75 0 0 128.61 31.33 0 0 -46.17 19.42 0c32.79,0 47.27,-19.79 47.27,-41.04z"/>
   <polygon class="fil0" points="317.55,60.23 317.55,139.92 265.16,60.23 233.83,60.23 233.83,188.83 265.16,188.83 265.16,109.51 317.55,188.83 348.88,188.83 348.88,60.23 "/>
   <path class="fil1" d="M108.16 0l109.82 0 0 249.05 -109.82 0 0 -249.05zm103.46 150.82c0,-43.06 -63.57,-32.98 -63.57,-55.33 0,-8.06 5.68,-11.91 13.19,-11.73 8.43,0.18 14.29,5.13 14.84,13.37l33.89 0c-1.28,-24.55 -20.15,-38.47 -48.19,-38.47 -26.93,0 -46.9,13.56 -46.9,37.92 -0.37,45.62 63.94,32.8 63.94,56.61 0,7.51 -5.86,12.09 -15.02,12.09 -8.79,0 -15.02,-4.76 -15.94,-14.66l-33.34 0c0.91,26.02 22.53,39.76 50.2,39.76 30.05,0 46.9,-17.96 46.9,-39.57z"/>
   <path class="fil0" d="M388.17 76.49l0 -9.98 5.46 0c3.88,0 5.6,1.87 5.6,5.01 0,3.05 -1.72,4.97 -5.6,4.97l-5.46 0zm18.14 -4.97c0,-5.95 -4.13,-10.62 -12.39,-10.62l-12.63 0 0 34.31 6.88 0 0 -13.17 5.75 0c8.85,0 12.39,-5.31 12.39,-10.52zm24.78 -10.67l-19.91 0 0 34.36 19.91 0 0 -5.6 -13.03 0 0 -9.09 11.55 0 0 -5.46 -11.55 0 0 -8.6 13.03 0 0 -5.6zm24.43 10.72c0,3.1 -1.72,5.11 -5.55,5.11l-5.75 0 0 -10.08 5.75 0c3.83,0 5.55,1.92 5.55,4.97zm-18.19 -10.67l0 34.31 6.88 0 0 -13.37 3.24 0 7.57 13.37 7.96 0 -8.21 -13.91c5.51,-1.47 7.82,-5.7 7.82,-9.88 0,-5.75 -4.13,-10.52 -12.39,-10.52l-12.88 0zm-32.05 71.48c0,-12.09 -17.6,-8.26 -17.6,-15.14 0,-2.8 2.02,-4.13 4.72,-4.03 2.95,0.05 4.77,1.82 4.92,4.08l7.57 0c-0.44,-6.19 -5.26,-9.78 -12.29,-9.78 -7.08,0 -12.09,3.74 -12.09,9.93 -0.05,12.44 17.65,7.96 17.65,15.39 0,2.46 -1.92,4.18 -5.16,4.18 -3.2,0 -5.01,-1.82 -5.21,-4.57l-7.37 0c0.1,6.49 5.6,10.22 12.73,10.22 7.82,0 12.14,-4.87 12.14,-10.27zm25.86 -24.43l-19.91 0 0 34.36 19.91 0 0 -5.6 -13.03 0 0 -9.09 11.55 0 0 -5.46 -11.55 0 0 -8.6 13.03 0 0 -5.6zm4.57 17.16c0,10.27 7.52,17.5 17.4,17.5 7.62,0 13.81,-4.03 16.13,-11.11l-7.91 0c-1.62,3.34 -4.57,4.97 -8.26,4.97 -6,0 -10.27,-4.42 -10.27,-11.36 0,-6.98 4.28,-11.36 10.27,-11.36 3.69,0 6.64,1.62 8.26,4.92l7.91 0c-2.31,-7.03 -8.51,-11.11 -16.13,-11.11 -9.88,0 -17.4,7.28 -17.4,17.55zm72.9 -0.05c0,-10.27 -7.77,-17.55 -17.55,-17.55 -9.68,0 -17.6,7.28 -17.6,17.55 0,10.32 7.91,17.6 17.6,17.6 9.73,0 17.55,-7.28 17.55,-17.6zm-28.07 0c0,-6.98 4.28,-11.36 10.52,-11.36 6.19,0 10.47,4.38 10.47,11.36 0,6.98 -4.28,11.45 -10.47,11.45 -6.24,0 -10.52,-4.47 -10.52,-11.45zm55.65 -17.11l0 23.6 -15.58 -23.6 -6.88 0 0 34.36 6.88 0 0 -23.55 15.58 23.55 6.88 0 0 -34.36 -6.88 0zm25.66 0.05l-11.99 0 0 34.31 11.99 0c10.96,0 18.09,-6.73 18.09,-17.11 0,-10.42 -7.13,-17.21 -18.09,-17.21zm-5.11 28.46l0 -22.66 4.87 0c7.23,0 11.31,4.28 11.31,11.4 0,7.13 -4.08,11.26 -11.31,11.26l-4.87 0zm-152.98 18.58l0 23.6 -15.58 -23.6 -6.88 0 0 34.36 6.88 0 0 -23.55 15.58 23.55 6.88 0 0 -34.36 -6.88 0zm33.58 0l-19.91 0 0 34.36 19.91 0 0 -5.6 -13.03 0 0 -9.09 11.55 0 0 -5.46 -11.55 0 0 -8.6 13.03 0 0 -5.6zm13.18 34.41l8.06 -0.05 6.74 -24.43 6.44 24.43 8.11 0 9.59 -34.31 -7.42 0 -6.1 26.5 -6.59 -26.5 -7.67 0 -6.98 26.64 -6.05 -26.64 -7.37 0 9.24 34.36zm67.4 -9.98c0,-12.09 -17.6,-8.26 -17.6,-15.14 0,-2.8 2.02,-4.13 4.72,-4.03 2.95,0.05 4.77,1.82 4.92,4.08l7.57 0c-0.44,-6.19 -5.26,-9.78 -12.29,-9.78 -7.08,0 -12.09,3.74 -12.09,9.93 -0.05,12.44 17.65,7.96 17.65,15.39 0,2.46 -1.92,4.18 -5.16,4.18 -3.2,0 -5.01,-1.82 -5.21,-4.57l-7.37 0c0.1,6.49 5.6,10.22 12.73,10.22 7.82,0 12.14,-4.87 12.14,-10.27z"/>
  </g>
 </g>
</svg>
