<?xml version="1.0" encoding="UTF-8"?>
<!DOCTYPE svg PUBLIC "-//W3C//DTD SVG 1.1//EN" "http://www.w3.org/Graphics/SVG/1.1/DTD/svg11.dtd">
<!-- Creator: CorelDRAW -->
<svg xmlns="http://www.w3.org/2000/svg" xml:space="preserve" width="2.07906in" height="2.07906in" version="1.1" style="shape-rendering:geometricPrecision; text-rendering:geometricPrecision; image-rendering:optimizeQuality; fill-rule:evenodd; clip-rule:evenodd"
viewBox="0 0 401.71 401.71"
 xmlns:xlink="http://www.w3.org/1999/xlink"
 xmlns:xodm="http://www.corel.com/coreldraw/odm/2003">
 <defs>
  <style type="text/css">
   <![CDATA[
    .fil1 {fill:#303030}
    .fil0 {fill:#303030;fill-rule:nonzero}
   ]]>
  </style>
 </defs>
 <g id="Layer_x0020_1">
  <metadata id="CorelCorpID_0Corel-Layer"/>
  <g id="_2518567998512">
   <path class="fil0" d="M200.86 49.03c41.92,0 79.88,16.99 107.35,44.47 27.48,27.47 44.47,65.43 44.47,107.35 0,41.92 -16.99,79.88 -44.47,107.35 -27.47,27.48 -65.43,44.47 -107.35,44.47 -41.92,0 -79.88,-16.99 -107.35,-44.47 -27.48,-27.47 -44.47,-65.43 -44.47,-107.35 0,-41.92 16.99,-79.88 44.47,-107.35 27.47,-27.48 65.43,-44.47 107.35,-44.47zm104.17 47.65c-26.66,-26.66 -63.49,-43.15 -104.17,-43.15 -40.68,0 -77.51,16.49 -104.17,43.15 -26.66,26.66 -43.15,63.49 -43.15,104.17 0,40.68 16.49,77.51 43.15,104.17 26.66,26.66 63.49,43.15 104.17,43.15 40.68,0 77.51,-16.49 104.17,-43.15 26.66,-26.66 43.15,-63.49 43.15,-104.17 0,-40.68 -16.49,-77.51 -43.15,-104.17z"/>
   <path class="fil0" d="M200.86 0c55.46,0 105.68,22.48 142.03,58.83 36.35,36.35 58.83,86.56 58.83,142.03 0,55.46 -22.48,105.68 -58.83,142.03 -36.35,36.35 -86.56,58.83 -142.03,58.83 -55.46,0 -105.68,-22.48 -142.03,-58.83 -36.35,-36.35 -58.83,-86.56 -58.83,-142.03 0,-55.46 22.48,-105.68 58.83,-142.03 36.35,-36.35 86.56,-58.83 142.03,-58.83zm138.84 62.02c-35.53,-35.53 -84.62,-57.51 -138.84,-57.51 -54.22,0 -103.31,21.98 -138.84,57.51 -35.53,35.53 -57.51,84.62 -57.51,138.84 0,54.22 21.98,103.31 57.51,138.84 35.53,35.53 84.62,57.51 138.84,57.51 54.22,0 103.31,-21.98 138.84,-57.51 35.53,-35.53 57.51,-84.62 57.51,-138.84 0,-54.22 -21.98,-103.31 -57.51,-138.84z"/>
   <path class="fil0" d="M82.67 311.68c1.26,1.31 2.32,2.72 3.16,4.24 0.84,1.52 1.37,2.91 1.59,4.17l-4.76 1.74c-0.24,-1.16 -0.66,-2.34 -1.27,-3.56 -0.61,-1.22 -1.36,-2.29 -2.26,-3.22 -0.6,-0.62 -1.14,-1.07 -1.63,-1.34 -0.48,-0.27 -0.9,-0.4 -1.26,-0.39 -0.36,0.01 -0.67,0.14 -0.93,0.39 -0.36,0.35 -0.49,0.8 -0.38,1.34 0.11,0.54 0.36,1.14 0.73,1.81 0.38,0.66 0.81,1.39 1.3,2.16 0.49,0.78 0.94,1.59 1.35,2.44 0.41,0.85 0.7,1.71 0.88,2.57 0.17,0.86 0.14,1.73 -0.09,2.6 -0.23,0.87 -0.77,1.72 -1.62,2.54 -0.96,0.93 -2.08,1.5 -3.36,1.73 -1.28,0.23 -2.67,0.04 -4.15,-0.55 -1.49,-0.59 -2.98,-1.67 -4.5,-3.24 -1.01,-1.05 -1.89,-2.19 -2.64,-3.43 -0.74,-1.24 -1.27,-2.47 -1.58,-3.7l4.69 -1.85c0.32,1.16 0.74,2.21 1.26,3.15 0.51,0.94 1.11,1.76 1.79,2.46 0.6,0.62 1.15,1.06 1.65,1.32 0.5,0.25 0.93,0.36 1.31,0.32 0.37,-0.04 0.7,-0.19 0.97,-0.45 0.35,-0.34 0.47,-0.77 0.36,-1.29 -0.11,-0.53 -0.36,-1.12 -0.76,-1.78 -0.39,-0.66 -0.83,-1.39 -1.32,-2.16 -0.49,-0.78 -0.94,-1.59 -1.36,-2.43 -0.42,-0.84 -0.72,-1.7 -0.89,-2.56 -0.17,-0.86 -0.14,-1.73 0.1,-2.59 0.24,-0.86 0.77,-1.7 1.61,-2.51 0.93,-0.9 2.03,-1.46 3.32,-1.69 1.29,-0.23 2.67,-0.06 4.15,0.53 1.48,0.58 2.98,1.67 4.51,3.25zm-24.71 -7.64l-5.9 -8.45 3.85 -2.69 5.9 8.45 -3.85 2.69zm6.92 -5.37l-6.64 -9.52 3.98 -2.78 10.2 14.61 -18.2 12.71 -9.97 -14.27 3.98 -2.78 6.41 9.18 10.24 -7.15zm-10.1 -27.24c0.85,1.53 1.4,3.09 1.63,4.66 0.24,1.57 0.16,3.09 -0.21,4.54 -0.38,1.45 -1.03,2.79 -1.96,4.01 -0.93,1.22 -2.13,2.24 -3.61,3.06 -1.48,0.82 -2.98,1.31 -4.51,1.45 -1.53,0.15 -3.01,-0 -4.44,-0.45 -1.43,-0.45 -2.76,-1.19 -3.97,-2.22 -1.21,-1.03 -2.25,-2.31 -3.1,-3.85 -1,-1.79 -1.57,-3.57 -1.73,-5.33 -0.16,-1.76 0.09,-3.44 0.75,-5.04l5.1 1.73c-0.39,1.04 -0.57,2.04 -0.54,3 0.03,0.96 0.3,1.91 0.81,2.83 0.44,0.79 0.98,1.45 1.61,1.97 0.63,0.52 1.32,0.88 2.07,1.08 0.75,0.2 1.54,0.24 2.38,0.13 0.83,-0.11 1.66,-0.4 2.5,-0.86 0.83,-0.46 1.51,-1.02 2.05,-1.67 0.53,-0.65 0.92,-1.34 1.14,-2.09 0.23,-0.74 0.29,-1.52 0.17,-2.33 -0.11,-0.81 -0.39,-1.61 -0.83,-2.4 -0.51,-0.92 -1.17,-1.65 -1.98,-2.18 -0.8,-0.53 -1.75,-0.91 -2.84,-1.12l1.22 -5.25c1.69,0.3 3.24,0.97 4.67,2.03 1.42,1.06 2.63,2.48 3.63,4.28zm-9 -22.6c0.86,3.16 0.67,5.86 -0.58,8.11 -1.25,2.25 -3.46,3.81 -6.64,4.67l-11.87 3.24 -1.65 -6.06 11.68 -3.19c1.83,-0.5 3.05,-1.22 3.65,-2.16 0.6,-0.94 0.72,-2.04 0.38,-3.31 -0.35,-1.26 -1.01,-2.14 -2,-2.64 -0.99,-0.5 -2.4,-0.49 -4.24,0.01l-11.68 3.19 -1.63 -5.96 11.87 -3.24c3.18,-0.87 5.88,-0.65 8.1,0.65 2.22,1.3 3.76,3.53 4.62,6.69zm-4.39 -16.16l-21.93 3.42 -1.56 -10.03c-0.31,-2.01 -0.26,-3.78 0.16,-5.34 0.42,-1.55 1.18,-2.82 2.28,-3.8 1.1,-0.98 2.48,-1.61 4.15,-1.87 1.65,-0.26 3.14,-0.08 4.46,0.52 1.32,0.61 2.42,1.59 3.28,2.94 0.86,1.35 1.45,3.03 1.76,5.04l1.02 6.58 -3.03 -2.35 8.43 -1.31 0.97 6.2zm-2.11 -13.57l-7.14 6.7 -1.03 -6.61 7.14 -6.73 1.03 6.64zm-6.62 8.57l-2.42 3.2 -0.97 -6.2c-0.2,-1.3 -0.63,-2.22 -1.3,-2.77 -0.66,-0.55 -1.5,-0.75 -2.5,-0.59 -1.02,0.16 -1.77,0.6 -2.23,1.33 -0.46,0.72 -0.6,1.73 -0.39,3.03l0.97 6.2 -3.28 -2.31 12.12 -1.89zm5.94 -20.37l-22.17 1.04 -0.29 -6.27 22.17 -1.04 0.29 6.27zm0.2 -17.55l-17.2 -0.72 -0.28 6.81 -4.97 -0.21 0.83 -19.86 4.97 0.21 -0.28 6.78 17.2 0.72 -0.26 6.27zm2.11 -17.35l-21.89 -3.65 1.03 -6.19 21.89 3.65 -1.03 6.19zm-8.92 -22.87l3.53 -9.68 4.41 1.61 -3.53 9.68 -4.41 -1.61zm8.37 2.58l3.98 -10.9 4.56 1.66 -6.11 16.74 -20.85 -7.61 5.97 -16.35 4.56 1.66 -3.84 10.51 11.74 4.28zm14.21 -21.32c-0.87,1.6 -1.91,3.02 -3.11,4.28 -1.2,1.26 -2.37,2.18 -3.51,2.76l-3.08 -4.02c1.03,-0.57 2.04,-1.33 3.02,-2.27 0.98,-0.94 1.78,-1.98 2.4,-3.12 0.41,-0.76 0.68,-1.41 0.79,-1.95 0.11,-0.54 0.11,-0.98 -0,-1.32 -0.12,-0.34 -0.33,-0.6 -0.65,-0.77 -0.45,-0.24 -0.91,-0.23 -1.39,0.04 -0.48,0.27 -0.98,0.68 -1.51,1.24 -0.52,0.56 -1.08,1.19 -1.68,1.88 -0.6,0.7 -1.24,1.37 -1.93,2.02 -0.69,0.65 -1.42,1.18 -2.19,1.6 -0.77,0.42 -1.61,0.65 -2.51,0.69 -0.9,0.04 -1.87,-0.22 -2.91,-0.79 -1.17,-0.64 -2.05,-1.53 -2.65,-2.69 -0.6,-1.16 -0.84,-2.53 -0.71,-4.13 0.12,-1.59 0.71,-3.35 1.75,-5.26 0.7,-1.28 1.53,-2.46 2.49,-3.54 0.96,-1.08 1.98,-1.95 3.06,-2.61l3.17 3.93c-1.01,0.65 -1.88,1.37 -2.63,2.14 -0.75,0.77 -1.35,1.59 -1.82,2.44 -0.42,0.76 -0.67,1.42 -0.77,1.97 -0.1,0.55 -0.07,1 0.08,1.34 0.15,0.35 0.39,0.61 0.72,0.79 0.43,0.23 0.87,0.22 1.34,-0.04 0.47,-0.26 0.96,-0.68 1.48,-1.25 0.52,-0.57 1.07,-1.21 1.67,-1.91 0.6,-0.7 1.24,-1.37 1.92,-2.03 0.68,-0.65 1.41,-1.19 2.18,-1.61 0.77,-0.42 1.61,-0.65 2.5,-0.68 0.89,-0.03 1.85,0.23 2.87,0.79 1.13,0.62 2,1.51 2.61,2.67 0.61,1.16 0.85,2.53 0.73,4.12 -0.12,1.58 -0.7,3.34 -1.75,5.27zm8.96 -18.53l-11.14 -21.55 3.88 -4.81 23.45 6.27 -4.1 5.09 -19.7 -6.02 1.55 -1.93 10.07 17.97 -4.02 4.99zm0 -6.88l-2.59 -4.16 6.8 -8.44 4.62 1.65 -8.83 10.96zm18.79 -16.11l-15.24 -16.14 3.76 -3.55 19.04 2.34 -1.78 1.68 -10.14 -10.74 4.47 -4.22 15.24 16.14 -3.76 3.55 -19.04 -2.34 1.77 -1.68 10.14 10.74 -4.47 4.22zm20.55 -18.53l-12.09 -18.61 8.8 -5.72c2.06,-1.34 4.11,-2.13 6.17,-2.38 2.05,-0.25 3.97,0.03 5.75,0.84 1.78,0.81 3.29,2.18 4.53,4.09 1.23,1.9 1.86,3.83 1.89,5.79 0.03,1.96 -0.49,3.83 -1.56,5.61 -1.06,1.78 -2.63,3.33 -4.68,4.67l-8.8 5.72zm2.53 -7.62l3.32 -2.16c1.06,-0.69 1.86,-1.49 2.39,-2.4 0.53,-0.91 0.77,-1.9 0.71,-2.96 -0.06,-1.06 -0.43,-2.12 -1.12,-3.18 -0.7,-1.08 -1.52,-1.86 -2.46,-2.33 -0.94,-0.47 -1.93,-0.65 -2.98,-0.54 -1.05,0.11 -2.1,0.52 -3.17,1.21l-3.32 2.16 6.63 10.21zm29.27 -25.53l9.54 -3.9 1.77 4.34 -9.54 3.9 -1.77 -4.34zm3.72 7.93l10.74 -4.39 1.83 4.49 -16.5 6.74 -8.39 -20.55 16.11 -6.58 1.83 4.49 -10.36 4.23 4.72 11.57zm15.64 -0.65l6.42 -15.31 0.97 4.36 -12.05 -10.76 6.89 -1.59 7.74 7.03 -2.93 0.71 3.78 -9.72 6.61 -1.53 -6.17 14.7 -1 -4.32 12.66 11.14 -7.04 1.63 -7.93 -7.44 2.81 -0.65 -3.78 10.15 -6.98 1.61zm37.47 -5.83c-1.75,0.13 -3.39,-0.03 -4.92,-0.48 -1.53,-0.45 -2.87,-1.15 -4.04,-2.1 -1.16,-0.95 -2.1,-2.11 -2.82,-3.46 -0.72,-1.36 -1.14,-2.88 -1.26,-4.56 -0.13,-1.69 0.07,-3.25 0.57,-4.7 0.51,-1.45 1.26,-2.73 2.27,-3.84 1.01,-1.11 2.23,-2.01 3.68,-2.67 1.44,-0.67 3.04,-1.07 4.79,-1.2 2.04,-0.15 3.9,0.07 5.57,0.67 1.67,0.6 3.09,1.53 4.26,2.8l-3.71 3.9c-0.78,-0.79 -1.61,-1.37 -2.5,-1.75 -0.89,-0.38 -1.86,-0.53 -2.91,-0.45 -0.91,0.07 -1.73,0.28 -2.46,0.63 -0.74,0.35 -1.35,0.83 -1.85,1.43 -0.5,0.6 -0.87,1.3 -1.12,2.1 -0.25,0.8 -0.34,1.68 -0.26,2.63 0.07,0.95 0.29,1.8 0.65,2.56 0.36,0.76 0.84,1.4 1.41,1.91 0.58,0.52 1.26,0.9 2.04,1.13 0.78,0.24 1.62,0.32 2.53,0.26 1.05,-0.08 1.99,-0.37 2.81,-0.88 0.82,-0.51 1.56,-1.21 2.21,-2.1l4.25 3.31c-0.98,1.41 -2.24,2.54 -3.8,3.38 -1.56,0.85 -3.36,1.35 -5.4,1.5zm30.87 -21.76l6.26 0.47 -1.68 22.13 -6.26 -0.47 1.68 -22.13zm-10.21 21.48l-6.26 -0.47 1.68 -22.13 6.26 0.47 -1.68 22.13zm9.63 -7.95l-9.42 -0.72 0.39 -5.18 9.42 0.72 -0.39 5.18zm9.06 9.69l15.3 -18.83 5.96 1.63 3.63 24 -6.3 -1.72 -2.36 -20.47 2.39 0.65 -12.44 16.42 -6.18 -1.69zm6.31 -2.75l2.78 -4.04 10.46 2.86 0.34 4.89 -13.58 -3.71zm22.2 11.07l9.28 -20.16 4.69 2.16 4.94 18.54 -2.22 -1.02 6.18 -13.42 5.59 2.57 -9.28 20.16 -4.69 -2.16 -4.94 -18.54 2.22 1.02 -6.18 13.42 -5.59 -2.57zm33.76 18.79c-1.44,-1 -2.62,-2.15 -3.54,-3.47 -0.92,-1.31 -1.53,-2.71 -1.83,-4.18 -0.31,-1.47 -0.31,-2.96 -0.02,-4.46 0.3,-1.5 0.92,-2.95 1.89,-4.34 0.96,-1.39 2.09,-2.49 3.4,-3.3 1.3,-0.81 2.7,-1.32 4.2,-1.55 1.49,-0.23 3.02,-0.14 4.58,0.26 1.56,0.4 3.08,1.11 4.56,2.13 1.72,1.19 3.06,2.54 4.02,4.05 0.96,1.51 1.51,3.11 1.65,4.8l-5.34 0.7c-0.16,-1.11 -0.48,-2.09 -0.97,-2.92 -0.49,-0.84 -1.17,-1.56 -2.06,-2.18 -0.78,-0.54 -1.58,-0.91 -2.39,-1.11 -0.81,-0.2 -1.6,-0.23 -2.37,-0.08 -0.77,0.15 -1.5,0.45 -2.19,0.91 -0.69,0.46 -1.31,1.09 -1.87,1.89 -0.53,0.76 -0.89,1.56 -1.08,2.37 -0.19,0.82 -0.22,1.61 -0.09,2.39 0.13,0.77 0.43,1.51 0.89,2.2 0.46,0.69 1.07,1.3 1.84,1.83 0.76,0.53 1.6,0.92 2.5,1.17 0.9,0.25 1.94,0.33 3.11,0.24l0.39 5.63c-1.56,0.03 -3.16,-0.24 -4.82,-0.79 -1.65,-0.55 -3.14,-1.28 -4.46,-2.2zm5.18 -0.85l4.76 -6.89 4.56 3.16 -5.23 7.56 -4.09 -3.83zm20.94 3.8l7.49 7.08 -3.22 3.41 -7.49 -7.08 3.22 -3.41zm-5.69 6.67l8.44 7.97 -3.33 3.53 -12.96 -12.23 15.24 -16.14 12.66 11.95 -3.33 3.53 -8.14 -7.68 -8.58 9.08zm20.34 31.19c-0.98,-1.45 -1.66,-2.95 -2.03,-4.5 -0.37,-1.55 -0.43,-3.06 -0.18,-4.55 0.25,-1.48 0.78,-2.87 1.6,-4.17 0.82,-1.3 1.93,-2.42 3.33,-3.36 1.4,-0.95 2.85,-1.56 4.36,-1.84 1.51,-0.28 2.99,-0.26 4.46,0.06 1.47,0.32 2.85,0.94 4.15,1.86 1.3,0.92 2.44,2.11 3.42,3.56 1.15,1.7 1.88,3.42 2.19,5.16 0.31,1.74 0.21,3.44 -0.31,5.09l-5.23 -1.28c0.3,-1.07 0.39,-2.08 0.28,-3.04 -0.11,-0.96 -0.46,-1.87 -1.06,-2.75 -0.51,-0.75 -1.1,-1.36 -1.77,-1.83 -0.67,-0.46 -1.39,-0.76 -2.16,-0.9 -0.77,-0.13 -1.56,-0.11 -2.38,0.08 -0.82,0.18 -1.62,0.54 -2.41,1.08 -0.79,0.53 -1.42,1.15 -1.9,1.84 -0.48,0.69 -0.79,1.42 -0.96,2.18 -0.16,0.76 -0.15,1.54 0.03,2.33 0.18,0.8 0.53,1.57 1.04,2.32 0.59,0.88 1.31,1.54 2.16,2 0.85,0.46 1.82,0.75 2.93,0.87l-0.76 5.33c-1.71,-0.15 -3.32,-0.69 -4.83,-1.62 -1.51,-0.93 -2.84,-2.24 -3.99,-3.94zm12.87 21.53c-0.84,-1.56 -1.36,-3.14 -1.57,-4.74 -0.21,-1.59 -0.11,-3.12 0.29,-4.6 0.4,-1.47 1.07,-2.81 2.01,-4.01 0.94,-1.2 2.15,-2.19 3.62,-2.98 1.47,-0.79 2.97,-1.24 4.49,-1.36 1.52,-0.12 3,0.06 4.45,0.55 1.45,0.48 2.78,1.25 3.99,2.31 1.21,1.05 2.24,2.36 3.07,3.93 0.85,1.58 1.37,3.17 1.57,4.75 0.2,1.58 0.1,3.11 -0.3,4.57 -0.4,1.46 -1.07,2.8 -2.01,4.01 -0.94,1.21 -2.14,2.21 -3.61,2.99 -1.47,0.79 -2.98,1.24 -4.51,1.35 -1.53,0.11 -3.02,-0.07 -4.45,-0.55 -1.43,-0.48 -2.75,-1.24 -3.96,-2.29 -1.21,-1.04 -2.23,-2.36 -3.08,-3.94zm4.58 -2.45c0.4,0.74 0.9,1.37 1.51,1.87 0.61,0.5 1.28,0.86 2.03,1.07 0.75,0.21 1.54,0.27 2.37,0.17 0.83,-0.1 1.67,-0.37 2.51,-0.82 0.86,-0.46 1.55,-1.01 2.09,-1.64 0.53,-0.63 0.92,-1.32 1.16,-2.06 0.24,-0.74 0.32,-1.5 0.23,-2.28 -0.08,-0.78 -0.32,-1.55 -0.72,-2.29 -0.4,-0.74 -0.9,-1.37 -1.51,-1.87 -0.61,-0.5 -1.28,-0.86 -2.03,-1.07 -0.75,-0.21 -1.54,-0.27 -2.36,-0.17 -0.82,0.09 -1.67,0.37 -2.52,0.83 -0.84,0.45 -1.53,0.99 -2.07,1.63 -0.54,0.64 -0.94,1.33 -1.18,2.07 -0.24,0.74 -0.32,1.5 -0.23,2.28 0.08,0.78 0.32,1.55 0.72,2.29zm3.01 18.48l21.41 -5.85 1.36 4.98 -12.14 12.85 -0.72 -2.63 16.92 4.65 1.36 4.99 -21.39 5.91 -1.52 -5.57 12.92 -3.6 0.26 0.95 -12.59 -3.5 -0.74 -2.69 9.01 -9.6 0.32 1.16 -12.94 3.53 -1.53 -5.6zm7.66 31.44l22.13 -1.68 0.39 5.15 -14.35 10.31 -0.21 -2.72 15.73 7.78 0.39 5.15 -22.13 1.74 -0.44 -5.75 13.37 -1.08 0.07 0.98 -11.7 -5.82 -0.21 -2.78 10.67 -7.71 0.09 1.2 -13.37 1.01 -0.44 -5.79zm1.24 32.29l22.1 2.05 -0.58 6.25 -22.1 -2.05 0.58 -6.25zm-2.91 20.41c0.3,-1.79 0.81,-3.48 1.54,-5.06 0.72,-1.58 1.53,-2.84 2.41,-3.76l4.23 2.79c-0.79,0.88 -1.49,1.92 -2.11,3.14 -0.62,1.21 -1.04,2.46 -1.25,3.73 -0.14,0.86 -0.18,1.56 -0.11,2.1 0.07,0.55 0.22,0.96 0.44,1.25 0.22,0.28 0.51,0.45 0.86,0.51 0.5,0.08 0.93,-0.08 1.3,-0.49 0.37,-0.41 0.71,-0.96 1.02,-1.66 0.31,-0.7 0.63,-1.48 0.97,-2.33 0.33,-0.85 0.72,-1.7 1.16,-2.54 0.44,-0.84 0.95,-1.58 1.55,-2.23 0.59,-0.65 1.3,-1.14 2.14,-1.48 0.84,-0.33 1.84,-0.4 3.01,-0.21 1.31,0.22 2.44,0.78 3.39,1.67 0.94,0.9 1.62,2.12 2.02,3.66 0.41,1.55 0.43,3.39 0.07,5.54 -0.24,1.44 -0.64,2.82 -1.19,4.16 -0.55,1.33 -1.23,2.49 -2.04,3.47l-4.28 -2.67c0.74,-0.95 1.33,-1.91 1.78,-2.89 0.45,-0.98 0.76,-1.94 0.92,-2.9 0.14,-0.86 0.17,-1.56 0.08,-2.11 -0.09,-0.55 -0.26,-0.97 -0.52,-1.24 -0.25,-0.28 -0.57,-0.45 -0.94,-0.51 -0.48,-0.08 -0.9,0.08 -1.25,0.48 -0.36,0.4 -0.68,0.96 -0.99,1.67 -0.3,0.71 -0.62,1.49 -0.95,2.35 -0.34,0.86 -0.72,1.7 -1.15,2.54 -0.43,0.84 -0.94,1.58 -1.53,2.24 -0.59,0.65 -1.3,1.14 -2.14,1.46 -0.84,0.32 -1.83,0.39 -2.97,0.2 -1.27,-0.21 -2.38,-0.77 -3.34,-1.67 -0.95,-0.9 -1.64,-2.12 -2.04,-3.65 -0.41,-1.54 -0.43,-3.39 -0.07,-5.56zm-5.58 21.8c0.59,-1.72 1.38,-3.3 2.36,-4.74 0.98,-1.44 1.98,-2.54 3.01,-3.31l3.7 3.46c-0.92,0.73 -1.79,1.64 -2.61,2.74 -0.81,1.09 -1.43,2.25 -1.85,3.47 -0.28,0.82 -0.44,1.5 -0.46,2.06 -0.02,0.55 0.05,0.99 0.22,1.3 0.17,0.32 0.42,0.53 0.76,0.65 0.48,0.17 0.93,0.08 1.37,-0.26 0.43,-0.34 0.86,-0.83 1.28,-1.47 0.42,-0.64 0.87,-1.35 1.34,-2.14 0.47,-0.79 1,-1.56 1.57,-2.31 0.57,-0.75 1.21,-1.4 1.9,-1.94 0.69,-0.54 1.48,-0.91 2.36,-1.1 0.88,-0.19 1.88,-0.09 3,0.3 1.26,0.44 2.28,1.17 3.06,2.22 0.78,1.04 1.24,2.36 1.38,3.95 0.14,1.59 -0.14,3.42 -0.85,5.47 -0.48,1.38 -1.1,2.68 -1.87,3.9 -0.77,1.22 -1.63,2.25 -2.59,3.08l-3.77 -3.35c0.88,-0.81 1.63,-1.66 2.24,-2.55 0.61,-0.89 1.07,-1.79 1.39,-2.71 0.28,-0.82 0.43,-1.51 0.43,-2.07 0,-0.56 -0.1,-1 -0.3,-1.31 -0.2,-0.32 -0.49,-0.54 -0.84,-0.66 -0.46,-0.16 -0.9,-0.07 -1.32,0.27 -0.42,0.34 -0.84,0.83 -1.25,1.48 -0.42,0.65 -0.86,1.37 -1.33,2.16 -0.47,0.79 -0.99,1.56 -1.55,2.31 -0.56,0.76 -1.19,1.41 -1.88,1.95 -0.69,0.54 -1.48,0.9 -2.35,1.08 -0.88,0.18 -1.87,0.08 -2.97,-0.3 -1.22,-0.42 -2.22,-1.15 -3.01,-2.2 -0.79,-1.05 -1.26,-2.36 -1.4,-3.94 -0.15,-1.58 0.14,-3.41 0.86,-5.49zm-4.96 13.93l20.16 9.28 -2.63 5.7 -20.16 -9.28 2.63 -5.7zm-11.59 20.99c0.97,-1.49 2.1,-2.71 3.4,-3.65 1.3,-0.95 2.69,-1.6 4.17,-1.96 1.48,-0.36 2.98,-0.42 4.48,-0.17 1.5,0.25 2.96,0.82 4.36,1.73 1.4,0.91 2.52,2 3.35,3.28 0.84,1.27 1.39,2.66 1.66,4.16 0.27,1.5 0.24,3.04 -0.1,4.61 -0.34,1.57 -0.99,3.1 -1.96,4.59 -0.98,1.51 -2.11,2.73 -3.4,3.67 -1.29,0.94 -2.67,1.58 -4.15,1.94 -1.48,0.35 -2.97,0.41 -4.48,0.17 -1.51,-0.24 -2.96,-0.81 -4.36,-1.72 -1.4,-0.91 -2.52,-2.01 -3.36,-3.3 -0.84,-1.29 -1.39,-2.68 -1.66,-4.16 -0.27,-1.49 -0.24,-3.01 0.1,-4.57 0.33,-1.56 0.99,-3.09 1.97,-4.6zm4.36 2.83c-0.46,0.71 -0.77,1.45 -0.92,2.22 -0.15,0.77 -0.14,1.54 0.04,2.29 0.18,0.76 0.51,1.48 1,2.16 0.49,0.68 1.13,1.28 1.93,1.8 0.81,0.53 1.63,0.88 2.44,1.04 0.81,0.16 1.6,0.17 2.37,0.03 0.76,-0.15 1.47,-0.45 2.11,-0.9 0.65,-0.45 1.2,-1.03 1.66,-1.74 0.46,-0.71 0.77,-1.45 0.92,-2.22 0.15,-0.77 0.14,-1.54 -0.04,-2.3 -0.18,-0.76 -0.5,-1.47 -0.98,-2.15 -0.48,-0.68 -1.13,-1.28 -1.94,-1.81 -0.8,-0.52 -1.61,-0.86 -2.43,-1.03 -0.82,-0.17 -1.62,-0.18 -2.38,-0.03 -0.76,0.15 -1.47,0.45 -2.11,0.9 -0.65,0.45 -1.2,1.03 -1.66,1.74zm-14.1 11.97l16.82 14.49 -3.37 3.92 -19.18 -0.37 1.59 -1.85 11.2 9.64 -4.01 4.66 -16.82 -14.49 3.37 -3.92 19.18 0.37 -1.59 1.85 -11.19 -9.64 4.01 -4.66z"/>
   <path class="fil0" d="M128.19 373.19l7.19 -21 4.89 1.67 6.8 17.94 -2.31 -0.79 4.78 -13.98 5.82 1.99 -7.19 21 -4.89 -1.67 -6.79 -17.94 2.31 0.79 -4.78 13.98 -5.82 -1.99zm26.32 8.44l4.99 -21.63 6.12 1.41 -4.99 21.63 -6.12 -1.41zm23.46 4.8c-1.74,-0.23 -3.32,-0.72 -4.73,-1.47 -1.41,-0.75 -2.59,-1.71 -3.54,-2.88 -0.94,-1.17 -1.63,-2.49 -2.05,-3.96 -0.42,-1.47 -0.53,-3.05 -0.31,-4.73 0.22,-1.68 0.73,-3.17 1.52,-4.49 0.79,-1.31 1.8,-2.41 3.02,-3.3 1.22,-0.88 2.62,-1.5 4.19,-1.86 1.57,-0.36 3.25,-0.42 5.03,-0.19 2.07,0.27 3.88,0.86 5.43,1.77 1.54,0.91 2.76,2.08 3.66,3.52l-4.43 3.06c-0.65,-0.92 -1.38,-1.64 -2.19,-2.16 -0.82,-0.52 -1.76,-0.86 -2.83,-1 -0.94,-0.12 -1.82,-0.09 -2.64,0.1 -0.81,0.19 -1.53,0.53 -2.15,1.01 -0.62,0.48 -1.13,1.09 -1.53,1.81 -0.4,0.72 -0.67,1.57 -0.8,2.53 -0.12,0.92 -0.08,1.79 0.12,2.61 0.2,0.82 0.54,1.54 1.01,2.16 0.47,0.63 1.07,1.14 1.79,1.55 0.72,0.4 1.55,0.67 2.47,0.79 0.92,0.12 1.84,0.09 2.76,-0.1 0.92,-0.19 1.88,-0.59 2.88,-1.2l2.91 4.83c-1.38,0.73 -2.92,1.23 -4.64,1.5 -1.72,0.26 -3.38,0.29 -4.97,0.08zm4.22 -3.12l1.09 -8.3 5.5 0.72 -1.2 9.12 -5.39 -1.54zm16.66 -9.46l10.3 -0.23 0.1 4.69 -10.3 0.23 -0.1 -4.69zm0.64 8.74l11.6 -0.25 0.11 4.85 -17.81 0.39 -0.49 -22.19 17.4 -0.38 0.11 4.85 -11.19 0.24 0.27 12.49zm17.29 4.31l-2.87 -22.01 10.06 -1.31c2.01,-0.26 3.79,-0.16 5.33,0.3 1.54,0.46 2.79,1.25 3.75,2.37 0.96,1.12 1.54,2.52 1.76,4.2 0.22,1.66 0,3.14 -0.64,4.45 -0.64,1.31 -1.65,2.38 -3.02,3.21 -1.37,0.83 -3.07,1.37 -5.08,1.64l-6.6 0.86 2.43 -2.97 1.1 8.46 -6.23 0.81zm13.61 -1.77l-6.52 -7.3 6.63 -0.86 6.55 7.3 -6.67 0.87zm-8.41 -6.83l-3.14 -2.5 6.23 -0.81c1.3,-0.17 2.23,-0.58 2.8,-1.23 0.57,-0.65 0.78,-1.48 0.65,-2.48 -0.13,-1.03 -0.56,-1.78 -1.27,-2.26 -0.71,-0.48 -1.72,-0.64 -3.02,-0.47l-6.22 0.81 2.39 -3.22 1.59 12.17zm20.01 4.56l-4.99 -21.63 6.12 -1.41 4.99 21.63 -6.12 1.41zm9.92 -2.32l2.28 -24.15 5.87 -1.95 16.34 17.95 -6.2 2.07 -13.32 -15.71 2.35 -0.78 -1.23 20.56 -6.08 2.02zm3.72 -5.78l0.07 -4.9 10.29 -3.43 3 3.88 -13.36 4.45z"/>
   <g>
    <polygon class="fil1" points="99.24,339.57 104.63,344.02 110.51,340.25 107.94,346.75 113.34,351.19 106.37,350.75 103.82,357.26 102.08,350.49 95.1,350.08 101,346.33 "/>
    <polygon class="fil1" points="295.38,339.57 300.77,344.02 306.65,340.25 304.08,346.75 309.48,351.19 302.51,350.75 299.96,357.26 298.22,350.49 291.24,350.08 297.15,346.33 "/>
   </g>
   <path class="fil1" d="M173.48 245.36c-3.21,8.27 -9.85,13.94 -17.52,13.94 -7.67,0 -14.31,-5.68 -17.52,-13.94l35.04 0z"/>
   <path class="fil1" d="M263.06 244.51c-3.14,8.07 -9.62,13.62 -17.11,13.62 -7.49,0 -13.97,-5.54 -17.11,-13.62l34.22 0z"/>
   <path class="fil1" d="M228.64 238.86l34.63 0 -15.73 -48.75 3.83 0 0 0.04 4.29 0 0 -5.24 -4.28 0 -0.01 0 -36.85 0c0.45,0.76 2.19,0.12 2.19,1.28 0,6.08 -7.34,2.86 -5.89,1.55 0.93,-0.84 1.27,-1.94 1.47,-2.83l-0.62 0c-0.33,1.79 -2.53,3.83 -3.96,2.39 -1.78,-1.8 -2.87,0.5 -1.49,-2.39l-1.22 0c-0.43,1.03 -0.84,1.85 -0.84,1.91 -1.52,1.02 -2.02,-1.17 -2.78,-1.17 -0.5,0 -0.78,2.09 -2.69,0.81 0,-0.56 -0.06,-1.07 -0.14,-1.55l-0.97 0c0.02,0.06 0.05,0.11 0.07,0.16 0.82,1.51 -3.13,1.74 -4.71,-0.16l-0.52 0c0.34,0.45 0.7,0.87 0.97,1.28 -0.18,0.28 -0.27,0.2 -0.36,0.54 -2.19,0 -2.36,1.25 -4.5,0.28 -1.68,-0.76 -2.15,-1.48 -2.02,-2.1l-0.17 0c0.1,1.4 0.56,2.78 1.94,2.89 0,2.33 -1.11,0.3 -2.23,1.36 -2.29,2.15 -6.86,-4.05 -1.98,-4.05 0.02,-0.05 0.05,-0.12 0.07,-0.21l-32.77 0 -4.29 0 0 5.24 4.29 0 0 -0.04 3.41 0 -15.3 48.75 34.64 0 -15.73 -48.75 2.66 0 12.08 17.56 24.36 0 0 5.55 -12.99 0 0 4.33 8.47 0 0 9.03 2.92 0 0 38.59 -12.52 0 -4.49 7.97 22.47 0 22.47 0 -4.49 -7.97 -12.52 0 0 -38.59 2.92 0 0 -9.03 8.47 0 0 -4.33 -12.99 0 0 -5.55 27.88 0 9.73 -14.15 -14.23 45.34zm-83.11 -3.83l22.61 0 -11.18 -34.44 -11.43 34.44zm23.99 -42.25l8.71 10.39 49.86 0 8.71 -10.39 -67.27 0zm65.14 42.25l22.61 0 -11.18 -34.44 -11.43 34.44z"/>
   <polygon class="fil1" points="237.81,278.98 164.98,279.11 153.48,296.5 249.31,296.5 "/>
   <polygon class="fil1" points="151.7,300.2 251.09,300.2 251.09,305.27 151.7,305.27 "/>
   <polygon class="fil1" points="146.91,181.55 255.75,181.55 255.75,190.5 146.91,190.5 "/>
   <g>
    <polygon class="fil1" points="196.11,178.51 196.77,179.77 197.36,182.39 199.33,181.94 201.72,182.82 204.45,182.32 206.35,181.29 209.98,182.39 214.12,182.43 214.86,183.01 216.28,183.01 216.39,181.33 213.9,178.43 212.61,177.92 210.85,178.67 209.42,178.21 208.65,173.59 208.76,170.84 207.09,169.58 206.49,170.71 204.51,177.92 197.71,177.18 "/>
    <polygon class="fil1" points="181.8,182.06 181.11,178.15 182.42,176.74 183.62,176.48 188.71,177.36 189.5,177.54 193.29,169.62 195.9,168.85 195.9,170.37 194.62,174.71 194.45,177.19 195.79,178.64 197,180.09 197,182.75 194.74,181.86 192.74,181.18 189.38,181.67 185.29,182.32 183.13,181.52 "/>
    <polygon class="fil1" points="211.28,171.17 213.73,178.48 216.19,179.48 219.39,178.11 221.44,178.85 224.77,177.84 227.92,178.66 230.9,178.48 232.82,177.3 212.92,153.18 212.92,154.75 213.73,158.05 214.72,162.94 214.65,170.87 211.92,169.42 "/>
    <path class="fil1" d="M205.43 172.05l0.98 -1.88 0.63 -1.02 2.46 1.77 0.38 0.37c0.34,0 1.02,-1.02 1.5,-2.19l0.54 -0.97 1.73 1.76c0.59,0.79 0.76,0.34 0.76,-1.97l0 -2.21 -0.83 -0.79 -0.94 -0.65 -0.47 1.12c-0.52,1.33 -0.79,1.69 -1.25,1.4l-0.3 -0.57 -2.29 -2.22 -0.29 0.64c-0.31,1.78 -1.26,3.34 -1.65,2.74l-2.42 -1.55c-0.03,0.07 -0.03,1.06 0.09,2.15 0.11,1.13 0.3,2.66 0.37,3.45 0.08,0.81 0.2,1.47 0.27,1.47l0.73 -0.85zm-6.39 -3.96c-0.56,1.22 -1.11,2.23 -1.16,2.23 -0.14,0 -0.14,-0.05 -0.69,-1.97 -0.25,-0.8 -0.52,-1.56 -0.56,-1.64l-1.18 1.11 -1.21 1.34 -0.37 -1.37c-0.39,-1.75 -0.44,-2.02 -0.62,-2.02l-1.43 0.96 -1.49 1.01c-0.18,0 -0.13,-0.46 0.14,-1.44 0.81,-3.04 1.94,-8.73 2.37,-11.54 0.2,-1.74 0.4,-1.95 0.81,-1.27l0.84 -0.05c0.3,-0.85 1.06,-2.49 1.28,-2.61 0.27,-0.15 1.55,1.17 3.02,3.05 1.15,1.51 1.32,2.09 0.88,2.52 -0.3,0.34 -0.3,0.34 -0.81,-1.08l-0.42 0.23c0.39,1.6 0.37,2.05 -0.15,2.78l-0.82 0.69 -0.27 -3.84 -0.12 -0.5c-0.22,0 -0.42,-0.37 -0.76,-2.04l-0.54 -0.21 0.22 1.58 0.25 1.22 -0.9 1.02 -0.99 0.9 -0.15 -1 -0.27 -0.92 -0.3 0.85c0,0.86 0.35,2.58 0.54,2.58l0.97 -1.23 1.06 -1.18c0.17,0 0.37,1.02 0.37,2.26l0.17 1.47c0.14,0.46 0.17,0.46 1.13,-0.43l0.97 -0.89 0.03 0.81c0.1,1.9 0.29,1.97 1.67,0.97l0.64 -0.49 -0.11 1.23c-0.25,2.17 -0.92,4.55 -2.06,6.92zm-2.46 -4.9c0,1.08 0.05,1.99 0.17,1.99l2.19 -1.54 -0.7 -0.05 -0.88 0.58c-0.1,0 -0.17,-0.67 -0.17,-1.5 0,-1.17 -0.05,-1.5 -0.3,-1.5 -0.25,0 -0.3,0.37 -0.3,2.02zm-2.78 0.07c0.19,0.25 0.63,0.09 1.42,-0.66l0.67 -1.01 -0.67 0.29 -1.01 0.03 -0.93 -3.23c-0.35,-0.08 -0.34,0.46 0.02,1.6l0.34 1.9 0.17 1.06zm13.44 2.14l0.24 -1.55c0,-0.74 -0.13,-1.01 -0.94,-1.88l-1.08 -0.96 -0.37 0.81 -0.92 1.61 -0.68 0.96c0,0.25 0.44,0.53 1.89,1.56 1.37,0.9 1.49,0.84 1.87,-0.56zm4.67 -0.94l-0.59 1.21 -1.34 -1.12 -1.34 -1.17 -0.24 -1.3 0.32 -1.1 -0.14 -0.74 -0.56 0.93 -0.31 1.02 -1.37 -1.18 -1.43 -1.19 -0.22 0.98 -0.46 1.61c-0.63,1.01 -0.85,0.93 -1.12,-0.5 -0.59,-3.26 -1.82,-6.96 -3.1,-9.75 -0.79,-1.73 -2.51,-4.41 -2.6,-4.07 -0.03,0.08 0.27,0.94 0.67,1.83 1.44,3.37 1.34,3 0.79,2.76 -0.93,-0.52 -4.68,-4.7 -4.68,-5.25l1.01 0.32 0.68 0.29c0.09,-0.05 0,-0.87 -0.13,-1.82 -0.15,-0.94 -0.3,-2.14 -0.38,-2.62l-0.35 -0.98c-0.31,-0.08 -0.31,0.39 0,2.48 0.11,0.9 0.19,1.69 0.11,1.79l-0.9 -0.46c-0.61,-0.44 -0.95,-0.85 -1.2,-1.67 -0.52,-1.43 -0.52,-1.69 0.07,-2.29l1 -1.67 0.72 -1.16 0.84 1.23 1.08 1.71 0.39 0.48 0.39 -1.39 0.42 -1.74c0,-0.6 -0.39,-0.29 -0.62,0.51l-0.49 0.89c-0.17,0.05 -0.71,-0.7 -1.3,-1.58 -0.51,-0.97 -1.09,-1.79 -1.17,-1.82l-0.29 0.85c-0.15,1.06 -0.56,2.22 -0.81,2.22l0 -1.15c0.1,-0.97 0.05,-1.23 -0.13,-1.23 -0.25,0 -0.59,1.42 -0.76,3.29l-0.08 0.56 -0.26 -0.56c-0.56,-1.32 -1.5,-5.87 -1.79,-8.22 -0.35,-3.65 0.03,-7.21 1.23,-10.87 0.34,-1.07 0.54,-1.34 1.44,-2 1.25,-0.95 2.53,-2.58 2.22,-2.86l-0.68 0.46c-0.66,0.91 -1.49,1.65 -1.57,1.5 -0.27,-0.2 1.54,-2.48 4.57,-5.73l1.53 -1.82 0.91 -0.85 0.66 0.79 0.55 0.76 1.81 -2.06 -0.78 0.35 -0.81 0.71 -0.94 -1.5 0.5 0.09c0.37,0.2 0.4,0.15 0.68,-1.05 0.41,-1.54 0.41,-1.85 0.06,-1.85l-0.41 0.71c-0.17,0.93 -0.44,1.5 -0.66,1.35l-0.62 -1.05 -1.33 -2.21c-1.24,-1.7 -1.41,-2.17 -1.41,-3.53l-0.22 -1.81c-0.39,-1.13 0.03,-1.13 1.31,-0.03 1.45,1.27 1.98,1.3 3.44,0.24 1.06,-0.69 1.2,-0.74 2.31,-0.66 1.34,0.1 2.51,-0.29 1.77,-0.58 -0.22,-0.08 -1.45,-0.16 -2.7,-0.16 -2.85,0 -6.47,-0.37 -7.13,-0.69l-1 -2.08c0.65,-1.09 3.26,-1.09 5.66,0 0.82,0.34 2.22,0.79 4.46,1.55 1.22,0.37 2.81,0.62 5.21,0.9l0.89 0.36c-0.08,0.29 -1.6,1.04 -2.47,1.27l-0.63 0.18 1.06 1.64c1.15,1.73 1.28,2.27 0.78,3.2l-0.71 0.32 -2.09 -1.33 -0.27 0.92 -0.03 0.82 -1.03 -0.63c-1.29,-1.04 -1.45,-1.04 -1.63,0.08 -0.11,1.2 -0.36,1.35 -0.88,0.71 -0.57,-0.76 -0.88,-0.44 -0.37,0.39l0.39 1.37 0.24 0.7 1.16 -2.58 0.19 -0.47 1.5 1.28 0.48 0.54 0.62 -1.67 0.42 -0.46 0.39 0.14 0.66 0.94 0.64 0.73 0.58 -0.84c0.6,-0.97 0.73,-0.86 0.99,0.57 0.12,0.9 0.08,0.95 -0.73,1.85l-0.99 0.96 -0.66 -0.48 -1.26 -0.94 -0.85 -0.37 -0.2 0.55 -0.57 0.95 0.64 0.08 0.98 -0.61 0.94 0.78 1.18 0.54 0.97 -0.79c0.66,-0.68 0.86,-0.68 0.83,0.14 0,1.14 -1.95,5.04 -2.41,4.79l-0.3 -0.76c-0.27,-1.4 -0.88,-3.1 -1.08,-3l-0.46 1.03c-0.32,0.99 -1.17,2.44 -1.44,2.44 -0.1,0 -0.44,-0.8 -0.71,-1.79 -0.34,-0.97 -0.69,-1.82 -0.72,-1.89l-0.71 0.73c-1.34,2.1 -1.94,2.94 -2.15,2.94l-0.69 -1.01 -0.56 -0.96 -0.86 1 -1.85 2.06 -1.2 1.07 0.32 1.92 0.3 1.96 -0.62 0.68c-0.92,1.02 -1.67,1.65 -1.94,1.49l-0.17 -0.79 -0.27 -0.7c-0.27,0 -0.3,0.28 -0.3,1.39l0.17 1.4 3.05 -2.41 0.72 -0.5 0.78 1.73 0.24 0.47c0.26,0.2 1.63,-0.79 2.89,-2.09 1.05,-1.05 1.15,-1.13 1.37,-0.8l0.58 1.63 0.44 1.38 2.05 -2.16 0.31 -0.49 0.82 1.41c0.35,0.81 0.86,1.57 1,1.7l1 0 0.61 -0.3 0 2.44c0,1.36 0.08,3.62 0.22,5.08 0.21,2.35 0.18,2.72 -0.13,3.89l-0.51 1.27c-0.18,0 -0.81,-1.54 -1.18,-2.91 -0.31,-1.41 -0.73,-1.65 -0.64,-0.46 0.18,1.56 1.37,4.16 2.33,4.97 0.3,0.24 0.31,0.13 0.35,-0.81l0.15 -1.46c0.13,-0.32 0.2,-0.12 0.39,0.78 0.15,0.65 0.54,2.23 0.86,3.47 0.81,3.24 0.81,3.18 0.57,3.18 -0.35,0 -1.82,-1.76 -2.32,-2.8l-0.59 -1.16 -0.68 0.58 -0.89 1.27 -0.45 0.73c-0.2,0 -0.73,-1.13 -0.95,-1.93l-0.71 -0.3 1.78 3.52 0.41 -0.23 1.2 -2.64 0.24 0.2c0,0.41 1.68,2.46 2.61,3.29 0.98,0.76 1.08,0.97 1.59,2.54 0.25,0.93 0.44,1.79 0.4,1.86 -0.15,0.11 -1.72,-1.65 -2.5,-2.78 -0.57,-0.86 -1.15,-1.27 -1.15,-0.83 0,0.4 1.44,2.27 2.94,3.77 1.61,1.61 1.71,1.77 2.81,4.32 1.75,4.13 2.22,5.44 2.05,5.6l-0.27 -0.07c-0.03,-0.13 -0.85,-1.24 -1.78,-2.47 -0.93,-1.26 -2.49,-3.36 -3.37,-4.7 -1.53,-2.25 -2.12,-2.98 -1.59,-2.02 0.27,0.43 0.93,2.46 1.67,4.93 0.69,2.29 1.46,6.42 1.65,8.61 0.11,1.99 0.17,1.95 -1.17,0.73l-0.63 -0.41 -0.44 1.25zm-0.15 -2.04l-0.85 -1.4 -0.49 -0.92c0,-0.51 0.4,-0.25 1.05,0.61 0.57,0.9 0.63,0.9 0.81,0.47l0.1 -1.22c-0.1,-0.8 0.35,-1.03 0.54,-0.24l-0.57 3.02 -0.59 -0.32zm-3.91 -4.25l1.1 0.67c0.19,0 0.27,-0.44 0.39,-1.32l0.2 -1.45 0.85 0.44 1.26 0.39 -1.03 -1.1c-0.89,-0.94 -1.02,-0.99 -1.27,-0.67l-0.49 1.56 -0.44 1.16c-0.32,0 -1.58,-1.31 -2.05,-2.16 -0.9,-1.5 -0.93,-1.54 -1.16,-0.78l-0.27 1.18 -0.42 1.17 -0.74 -0.63 -0.69 0.07 1.85 1.35c0.34,0 0.54,-0.78 0.54,-1.68 0,-0.68 0.22,-0.57 0.93,0.37l1.46 1.44zm0.79 -4.49l-1.4 -2.66c0,-0.57 0.41,-0.28 0.85,0.63 0.59,1.2 1,1.33 1,0.4 0,-0.95 0.32,-1.86 0.64,-1.57l-0.05 1.22 -0.19 1.71c0,0.78 -0.27,0.88 -0.85,0.27zm-6.77 -0.74l-0.76 -1.17 -0.26 -0.46 -0.13 -0.94 0.76 0.97c0.79,1.23 1.15,1.12 1,-0.24 -0.15,-1.07 0.12,-1.49 0.46,-0.66 0.24,0.66 0.18,1.73 -0.09,2.75l-0.22 0.77 -0.76 -1.03zm2.63 -0.18l-0.95 -2.08c0.07,-0.37 0.1,-0.37 0.55,0.42l0.73 0.95 0.49 -0.74 0.73 -0.42 -0.45 1.34 -0.44 1.08 -0.64 -0.55zm-5.61 -4.57l1.28 1.17c0.08,0 0.2,-0.76 0.22,-1.62 0,-0.89 0.17,-1.66 0.24,-1.7l1 0.89c0.91,1.13 1.91,1.89 2.13,1.67 0.1,-0.12 0.27,-0.83 0.41,-1.67 0.15,-0.79 0.35,-1.44 0.46,-1.44 0.07,0 0.57,0.71 1.05,1.58 0.49,0.78 1,1.49 1.06,1.49l0.53 -0.86 0.59 -1 0.59 0.91c0.39,0.95 0.81,1.27 0.81,0.63l-0.32 -0.96 -0.54 -1.3 -0.51 -0.78 -0.55 0.89c-0.58,1.52 -0.68,1.48 -1.81,-0.42 -0.51,-0.96 -1.05,-1.77 -1.19,-1.81 -0.18,-0.05 -0.39,0.85 -0.74,3.14l-0.32 0.79c-0.35,0 -1.81,-1.73 -2.34,-2.69l-0.56 -0.98 -0.66 3.11 -0.15 0.75c-0.29,0 -1.7,-1.72 -2.19,-2.61l-0.81 -0.4c0,0.4 1.3,2.21 2.31,3.25zm3.02 -4.95c-1.34,-1.5 -2.36,-3.19 -2.36,-3.89 0,-0.66 0.42,-0.24 1.01,0.99 0.64,1.25 1.24,2.05 1.55,2.05 0.03,0 0.3,-0.62 0.59,-1.41 0.47,-1.63 0.69,-2.04 0.94,-1.87l-0.25 1.45 -0.54 2.29 -0.25 0.94 -0.69 -0.55zm1.96 -6.06c-0.85,-0.86 -1.64,-2.28 -1.88,-3.38 -0.17,-1.06 0.34,-0.86 0.68,0.25 0.29,1.05 1.03,2.38 1.37,2.5l0.4 -0.25c0.4,-1.17 1.59,-3.37 1.79,-3.37 0.32,0 0.32,-0.05 -0.39,1.48l-0.95 2.45 -0.3 1.09 -0.72 -0.76zm-6.17 -0.28c-1.06,-1.74 -1.79,-4.45 -1.03,-3.79l0.32 0.64 0.97 2.31 0.39 -0.52c0.62,-1.59 1.3,-2.86 1.55,-2.86 0.32,0 0.35,-0.05 -0.35,1.47l-0.88 2.41 -0.43 1.09 -0.54 -0.74zm-4.82 -0.47c-0.78,-0.69 -1.87,-2.63 -1.87,-3.13 0,-0.49 0.47,-0.11 1.09,1.12 0.71,1.21 1.01,1.64 1.34,1.64 0.05,0 0.44,-0.66 0.78,-1.47 0.32,-0.84 0.79,-1.48 0.91,-1.48 0.34,0 0.42,-0.1 -0.39,1.73 -0.4,0.9 -0.73,1.71 -0.73,1.9 0,0.6 -0.35,0.5 -1.12,-0.31zm2.27 -5.44c-0.62,-0.7 -1.34,-2.55 -1.51,-3.9l-0.15 -1.48c0.32,-0.25 0.54,0.37 0.76,1.54 0.18,1.32 0.9,3.05 1.15,2.85l0.7 -1.39c0.54,-1.46 1.17,-2.41 1.42,-2.19l-0.32 1.05 -0.95 2.27c-0.57,1.57 -0.69,1.68 -1.1,1.25zm4.82 -0.66c-1.03,-1.54 -1.84,-4.35 -1.3,-4.35l0.51 1.03c0.25,1.17 1.1,3.13 1.38,3.13l0.39 -0.74c0.31,-0.96 1.32,-3.05 1.75,-3.47 0.64,-0.76 0.52,-0.05 -0.22,1.5 -0.49,0.89 -1.03,2.12 -1.22,2.76l-0.52 1.13 -0.78 -0.99zm5.78 -0.04c-1.16,-1.99 -1.82,-4.47 -1.32,-4.65l0.27 0.18 1.33 3.76c0.35,0.32 0.37,0.25 1,-0.98 0.58,-1.39 1.16,-2.04 1.38,-1.77l-0.22 0.63c-0.54,0.84 -1.15,2.27 -1.28,3.02l-0.37 0.79 -0.8 -0.97zm-5.4 -23.76c-1.12,-1.7 -1.4,-2.29 -1.18,-2.46 0.17,-0.08 0.5,0.3 1.06,1.18l0.73 0.4c0.34,-0.08 0.38,-0.03 0.38,0.87l-0.16 1.03 -0.83 -1.03zm6.3 -2.7l-0.58 -0.89 0.58 0.11 0.39 0 0.36 -0.24 0.09 1.63 -0.84 -0.61zm-3 0.11l-1.01 -0.79 0.25 -0.57c0.51,0.28 0.51,0.21 0.14,-0.57 -0.39,-0.78 -0.03,-1 0.4,-0.27l0.74 1.24 0.6 1.03 -1.12 -0.08zm-3.05 55.61l0.52 -1.1 -0.72 -1.76c-0.46,0 -0.85,1 -0.85,2.24 0,1.5 0.19,1.59 1.05,0.61zm-5.87 -8l0.63 -1.24 -1.7 -1.77 -0.12 3.46 0.46 0.72 0.73 -1.17zm14.62 -27.97l-0.62 0.43c-0.52,0 -1.29,-1.33 -1.67,-2.82l-0.26 -0.93 0.87 -1.03 0.86 -0.99 0.8 1.54c0.67,1.31 0.73,1.65 0.67,2.46l-0.64 1.34zm-9.23 -1.22c-0.78,0.69 -1.34,0.83 -1.34,0.29l-0.42 -0.96 -0.39 -0.92 1.08 -1.49 1.52 -1.7 0.49 -0.54 1.26 2.54c0,0.4 -1.14,1.84 -2.21,2.78zm4.73 -0.03l-0.51 0.44 -1.1 -3.05 0.95 -1.23 0.87 -1.04c0.15,0 0.71,1.39 0.86,2.27 0.13,0.9 -0.15,1.62 -1.07,2.61zm-5.8 -3.84c1.55,-1.81 1.79,-2.2 1.62,-3.06 -0.27,-1.3 -0.36,-1.3 -2.07,0.46 -1.77,1.78 -1.67,1.56 -1.27,3.61 0.1,0.71 0.24,0.57 1.72,-1.01zm11.8 -1.61c0.22,-1.22 0.4,-2.44 0.4,-2.74l0 -0.54 -0.47 0.61 -0.52 0.74 -0.74 1.05 -0.72 0.9 0.49 1.3 0.6 1.6c0.34,0.43 0.51,-0.14 0.96,-2.91zm-3.44 1.82c1.17,-1.45 1.23,-1.79 0.93,-3.22 -0.4,-2.18 -0.54,-2.37 -1.14,-1.35l-1.06 1.49 -0.69 0.83 0.51 1.5c0.24,0.79 0.54,1.49 0.71,1.49l0.75 -0.75zm-3.23 -1.28c0.75,-1.44 0.87,-2.41 0.46,-3.73l-0.46 -0.99c-0.2,0 -0.56,0.46 -1.15,1.43l-0.88 1.25 -0.66 0.9 0.66 1.34c0.64,1.27 0.71,1.39 1.08,1.12l0.95 -1.33zm-7.35 -12.84l-0.35 -0.75 -1.01 -0.68c-1.65,-0.21 -4.6,0.18 -4.6,0.65 0,0.27 0.59,0.37 3.01,0.61 1.35,0.14 2.44,0.25 2.51,0.3l0.44 -0.13zm-0.61 -3.2c-0.54,-1.8 -2.34,-2.78 -4.19,-2.35l-1.44 0.58 -1.13 2.25 0 0.56 1.47 -0.13c0.76,-0.03 2.22,0 3.17,0.18 2.22,0.34 2.49,0.2 2.12,-1.1zm-2.68 -0.59l0.41 -0.54c0.89,0.34 1.21,1.2 0.42,1.2l-0.83 -0.66zm7.1 0.81c1,-0.46 0.82,-1.31 -0.24,-0.95l-0.96 -0.08 -0.88 0.05c0,0.93 1.1,1.42 2.08,0.98z"/>
    <path class="fil1" d="M150.57 170.81l-1.44 1.33 -0.65 -0.08c0,-0.24 0.58,-2.86 1.27,-5.83 0.75,-2.92 1.59,-6.64 2.01,-8.24 0.37,-1.6 1.02,-4.16 1.39,-5.74 0.35,-1.52 0.95,-3.79 1.15,-5 0.78,-3.28 0.9,-3.65 1.15,-3.65l3.11 -1.59 0.74 -0.52c0.05,0 -0.27,1.84 -0.69,3.98 -2.86,14.29 -5.46,22.29 -8.04,25.35zm6.22 -2.43c1.3,-1.53 3,-5.58 4.15,-10.05 1.51,-5.64 3.55,-16.84 3.79,-20.9 0.08,-0.87 0.05,-0.87 -0.5,-0.84 -1.13,0.09 -1.88,0.3 -2,0.64l-0.27 1.65c-0.23,1.3 -1.22,6.56 -2.04,10.35 -0.76,4.02 -2.47,10.97 -4.05,16.61 -0.47,1.81 -0.88,3.44 -0.88,3.59 0,0.47 0.98,-0.12 1.79,-1.05zm3.91 -1.66c1.83,-1.53 3.41,-4.8 5.02,-10.55 0.81,-2.91 2.24,-9.73 2.9,-14.08 0.27,-1.4 0.54,-3.06 0.68,-3.74l0.19 -1.44c0,-0.3 -0.86,-0.3 -1.81,0 -0.87,0.28 -0.9,0.39 -1.46,3.52 -0.78,4.65 -3.1,14.17 -5.21,21.39 -1.75,6.12 -1.75,6.12 -0.3,4.91zm5.96 -3.07c1.16,-0.74 1.88,-1.95 2.44,-4.03 0.18,-0.93 0.45,-2 0.56,-2.37 0.79,-2.83 3.62,-15.45 4.15,-18.71l0.05 -1.31c-0.08,-0.06 -0.92,-0.13 -1.83,0l-1.63 0.14 -0.22 1.07c-0.07,0.61 -0.26,1.78 -0.44,2.66 -0.86,4.85 -1.93,10.23 -2.08,10.99 -0.43,1.95 -2.41,10.65 -2.59,11.29l-0.15 0.86c0,0.24 0.74,0 1.74,-0.59zm5.61 -4.25c-0.9,1.08 -1.1,1.03 -0.93,-0.1 1.03,-7.42 2.36,-15.52 3.22,-19.19 0.52,-1.98 0.61,-2.18 1.03,-2.23l1.58 -0.46c1.2,-0.43 1.81,-0.36 1.81,0.3 -0.07,0.99 -1.05,6.11 -2.13,10.14 -1.28,5.39 -3.03,9.78 -4.58,11.54zm7.34 -9.04c1.15,-1.24 2.05,-2.69 3.15,-4.92 0.85,-1.71 1.94,-4.79 1.94,-5.45l-1.1 -2.3 -3.59 0.84c-0.65,0.65 -2.05,8.83 -2.05,12.25 0,0.86 0.09,0.91 0.34,0.73l1.31 -1.15zm9.48 -9.52c0.41,-1.18 0.45,-2.16 0.07,-2.67 -0.2,-0.29 -0.23,-0.29 -1,0.12 -0.68,0.39 -0.83,0.59 -1.12,1.72 -0.3,1.3 -0.52,4.57 -0.2,4.84 0.14,0.22 1.66,-2.54 2.25,-4zm-31.35 0.31c0.71,-0.42 2.07,-1.92 2.47,-2.81 0.41,-0.84 0.75,-2.51 0.55,-2.72l-1.24 -0.11 -1.05 0.05 -0.13 1.11c-0.06,0.59 -0.39,1.85 -0.76,2.87 -0.33,0.96 -0.6,1.76 -0.6,1.79l0.76 -0.19zm-0.86 -6.26c-1.02,2.28 -2.45,4.87 -2.45,4.53 0,-0.08 1.43,-5.76 2.82,-10.87 0.7,-2.63 0.73,-2.69 1.85,-3.84l1.87 -2.06 0.84 -0.85c0.41,0 -2.72,8.57 -4.92,13.1zm29.5 2.21l2.5 -1.22 0.2 -5.47 -0.85 0c-0.64,0.14 -0.76,0.26 -1.15,1.28l-1.06 2.16c-0.97,1.77 -1.33,3.75 -0.55,3.55l0.91 -0.29zm-3.35 -1.53l-2.15 0.52c-0.07,-0.09 0.3,-1.58 0.84,-3.3 0.87,-2.85 1.03,-3.22 1.71,-3.83l1.84 -0.75 1 2.04c-0.02,1.14 -2.12,4.64 -3.25,5.32zm-4.78 0.08c0.65,-0.22 1.66,-1.37 2.17,-2.48 0.49,-1.06 1.1,-3.24 1.1,-4.07l-0.85 -1.78 -1.05 0.3 -1.02 0.3 -0.56 2.44c-1.63,6.18 -1.63,6 0.2,5.3zm-3.76 -0.22c0.93,-0.52 1.93,-2.62 2.6,-5.2 0.65,-2.62 0.65,-2.81 0,-3.94l-1.02 -0.91c-0.75,0 -1.38,0.86 -1.88,2.37 -0.91,3.19 -1.97,7.58 -1.92,7.82l2.22 -0.14zm-3.86 -0.89c0.85,-0.97 1.37,-2.15 1.91,-4.67 0.68,-2.88 0.68,-3.32 0,-3.96l-0.51 -1.33 -0.52 -0.94 -1.61 0.74c-0.35,0.62 -1.28,3.82 -1.94,6.81l-0.46 1.89c-0.41,1.31 0.18,2.21 1.61,2.21 0.79,0 0.96,-0.12 1.53,-0.75zm-5.1 -0.71c-1.05,1.34 -1.9,1.11 -2.16,-0.62 -0.12,-1.02 0.07,-2.02 1.25,-6.77 0.53,-1.99 0.99,-3.83 1.04,-4.16l0.64 -0.87 1.58 0.37 0.62 1.07 0.64 0.76 -0.27 1.33c-0.93,4.65 -1.76,6.9 -3.35,8.88zm-4.46 -1.4l-1.15 0.69 0.4 -1.35c0.22,-0.66 0.61,-2 0.97,-3.05 0.32,-1.06 1.11,-3.51 1.8,-5.44 0.91,-2.9 1.23,-3.57 1.54,-3.64 0.87,-0.1 0.9,0.39 0.3,2.98 -1.28,4.93 -2.39,7.84 -3.85,9.81zm28.44 -5.49l-0.85 0.51c-0.86,0.11 -1.71,-0.28 -2.37,-0.97 -0.62,-0.7 -0.89,-0.67 -1.82,0.19l-1.08 0.64 -1.63 -1.08c-0.42,-0.64 -0.44,-0.64 -1.77,-0.64 -1.09,0 -1.45,-0.1 -1.73,-0.44 -0.39,-0.45 -0.47,-1.58 -0.12,-2.66 0.39,-1.14 0.22,-1.66 -0.63,-2.24 -1.53,-1.15 -1.44,-2.43 0.1,-4.83 0.83,-1.08 0.83,-1.63 0.17,-1.84l-1 -1.65 1.27 -2.37c0.64,-0.7 0.56,-1.01 -0.51,-1.44l-0.49 -1.04 0.25 -1.47 -0.13 -0.84c-0.41,-0.27 -0.96,-0.05 -2.14,0.88 -1.26,1.08 -2.76,1.58 -3.91,1.44 -0.81,-0.14 -0.89,-0.11 -2.12,0.89 -1.56,1.29 -4.29,2.76 -6.56,3.56 -2.54,0.85 -2.73,0.69 -0.78,-0.56 1.77,-1.07 3.64,-2.64 4.93,-4.1 1.83,-2 5.56,-4.3 8.14,-4.97 0.76,-0.19 2.06,-0.3 3.36,-0.3 1.82,0 2.21,0.08 3.02,0.49 3.74,1.89 3.95,5.52 0.69,11.88 -1.07,2.04 -1.12,2.27 -1.12,3.56 0,1.17 0.1,1.58 0.56,2.34 1.11,1.97 3.19,2.76 6.25,2.36 1.85,-0.31 2.76,-0.12 2.76,0.52l-0.74 4.2zm-14.62 -2.81c-1.07,0.94 -1.83,0.81 -1.83,-0.42l0.69 -1.22c0.82,-0.81 0.99,-0.85 1.73,-0.2 0.66,0.58 0.51,0.9 -0.59,1.84zm-17.32 -0.5c1.43,-0.86 3.17,-2.59 4.16,-4.3l0.68 -1.12 -0.46 -0.87c-0.83,-1.45 -0.87,-1.43 -1.7,0.06 -1.08,2.32 -3.29,4.63 -4.5,6.68 -0.19,0.51 0.51,0.32 1.82,-0.45zm15.23 -1.71l1.58 -1.11 0.56 -1.27 -0.37 -0.76 -5.56 2.57 0.29 0.72c0.42,0.52 0.52,0.56 1.5,0.48l2 -0.64zm-3.12 -2.37c-1.99,0.71 -3.3,0.61 -3.49,-0.22 -0.2,-0.81 0.1,-1.16 2.02,-2.46 1.08,-0.7 2.78,-1.94 3.83,-2.74 1.13,-0.8 2.05,-1.43 2.16,-1.43l0.51 0.53 0.8 1.12 0.49 0.78c0,0.35 -1.99,2.12 -3.45,3.01 -0.79,0.51 -2.08,1.13 -2.85,1.42zm-2.15 -4.12c2.09,-0.81 7.89,-4.45 7.86,-4.98l-0.9 -1.18 -0.81 -0.99 -1.82 0.81c-2.24,0.99 -6.37,3.41 -7.41,4.41l-1.35 2.12c0,0.62 2.66,0.44 4.43,-0.19z"/>
    <path class="fil1" d="M254.19 172.19l-1.53 -0.69c-1.65,-1.6 -2.82,-3.86 -4.33,-8.3 -1.21,-3.59 -3.56,-13.28 -4.39,-17.93l-0.46 -2.34c-0.27,-1.1 -0.27,-1.37 0,-1.37l0.37 0.24 2.68 1.56c0.89,0.28 0.81,-0.09 2.81,8.62 0.54,2.24 1.61,6.7 3.71,15.2 0.62,2.68 1.14,4.95 1.14,5zm-6.9 -4.18c-2.23,-7.72 -4.91,-19.26 -6.39,-27.37 -0.67,-3.86 -0.6,-3.65 -1.34,-3.86l-1.15 -0.24 -0.61 0.1c-0.14,0.25 0.31,3.72 1.32,9.63 1.91,11.62 4,18.54 6.56,21.84 0.71,1 1.62,1.68 1.84,1.47 0.08,-0.1 -0.03,-0.76 -0.22,-1.57zm-4.23 -0.96c-0.27,-0.68 -3.15,-10.97 -3.76,-13.48 -1.01,-3.97 -1.44,-5.97 -2.56,-11.44l-1.03 -4.9 -1.02 -0.34c-1.19,-0.47 -1.49,-0.36 -1.49,0.39 0,1.77 1.98,12.45 3.1,16.9 1.22,4.7 2.92,9.28 4.16,10.96 0.94,1.29 2.96,2.74 2.59,1.92zm-5.76 -4.44c-0.19,-0.83 -0.44,-1.76 -0.54,-2.1 -0.83,-3.09 -3.84,-17.98 -4.4,-22.32l-0.13 -0.87 -1.72 -0.16c-0.96,-0.07 -1.8,-0.07 -1.88,0.06 -0.26,0.26 1.43,8.24 3.94,18.61 1.28,5.43 1.49,5.86 2.23,6.77l2.76 1.66c0.03,-0.03 -0.03,-0.81 -0.25,-1.66zm-6.13 -3.74c0.1,0.85 0.07,1.37 -0.03,1.37 -0.76,0 -2.98,-4.1 -4.03,-7.37 -1.22,-3.81 -2.93,-11.15 -3.44,-14.71 -0.13,-0.78 -0.07,-0.89 0.2,-0.99l1.42 0.25 1.63 0.46 0.69 0.94c0.51,1.56 1.4,6.13 1.94,9.41 1.2,7.32 1.45,9.39 1.62,10.65zm-6.66 -9.76c-0.34,-4 -1.2,-9.01 -1.76,-10.19 -0.26,-0.52 -0.52,-0.64 -1.94,-0.96 -0.81,-0.17 -1.65,-0.28 -1.78,-0.24l-0.74 1.17 -0.59 1.11 0.66 1.91c0.81,2.39 1.91,4.73 2.97,6.32 0.9,1.47 3,3.58 3.2,3.31 0.1,-0.08 0.1,-1.15 -0.02,-2.42zm-8.69 -6.16c0,1.01 0,1.88 -0.07,1.93 -0.2,0.23 -2.38,-4.05 -3.08,-6.11l-0.37 -1.45 2.74 1.38c0.41,0.57 0.78,2.44 0.78,4.25zm29.72 -1.65c0,-0.09 -0.3,-0.93 -0.62,-1.89 -0.36,-0.91 -0.64,-2.19 -0.74,-2.78l-0.19 -1.08 -1.1 -0.05c-1.15,-0.07 -1.15,-0.07 -1.15,0.54l1 3c0.78,1.21 2.8,2.83 2.8,2.26zm1.7 -5.48c0.49,1.9 0.84,3.46 0.81,3.51 -0.25,0.23 -3.4,-6.34 -4.78,-9.79 -1.15,-2.93 -2.59,-7.27 -2.46,-7.57l0.74 0.62 1.83 2.07c0.79,0.89 1.17,1.48 1.41,2.2 0.12,0.57 0.58,2.01 0.88,3.28 0.37,1.23 1.08,3.8 1.56,5.7zm-29.74 1.27c0.17,-0.43 -0.23,-1.76 -1.02,-3.31l-1.03 -2.25c-0.32,-0.79 -0.41,-0.9 -1.44,-1.18l-1.82 -0.82 -0.98 -0.62c-0.46,0 0.19,3.6 0.86,4.98 0.86,1.62 2.24,2.7 4.13,3.27 1.19,0.32 1.12,0.32 1.29,-0.07zm4.18 -1.06l-0.27 0.19 -1.88 -0.62c-1.08,-0.73 -2.6,-3.01 -3.11,-4.83 -0.21,-0.68 -0.19,-0.85 0.26,-1.72l0.89 -0.94 2.04 1.41 2.08 6.5zm4.12 -0.71c-0.05,-0.3 -0.53,-2.07 -0.99,-3.94 -0.81,-3.18 -0.86,-3.37 -1.4,-3.55 -1.34,-0.54 -1.53,-0.52 -2.02,0.18 -0.58,0.8 -0.52,1.49 0.29,3.89 0.81,2.48 2.12,3.96 3.59,3.96l0.53 -0.54zm4.4 0.22c0.08,-0.25 -1.64,-7.52 -2.16,-8.78l-1.5 -1.39 -1.65 2.22c0,0.71 0.76,3.72 1.31,5.06 0.49,1.42 1.47,2.73 2.16,3l1.84 -0.1zm4.59 -0.67l0.39 -0.85c0,-0.81 -2.17,-9.2 -2.52,-9.68 -0.76,-0.99 -2,-1.04 -2,-0.02l-1.03 1.82c-0.49,0 0.47,4.92 1.42,7.07l1.13 1.61 2.62 0.06zm4.06 -0.67c-1.24,1.79 -3.67,-2.18 -4.8,-7.88 -0.56,-2.58 -0.56,-2.69 -0.2,-3.05l0.68 -1.11c0.44,-1 1.11,-1.22 1.87,-0.63 0.29,0.29 0.66,1.22 1.3,3.94 1.48,5.84 1.75,7.87 1.16,8.72zm3.71 -1.17l-0.78 -0.19c-1.12,-1.28 -2.43,-4.26 -3.47,-7.79 -1.29,-4.68 -1.38,-5.15 -0.62,-5.36l0.58 -0.08 4.28 13.42zm-27.18 -5.87l-1.25 0.28c-0.97,0.07 -1.29,0 -1.59,-0.28 -1.54,-1.26 -1.35,-4.21 0.2,-4.94 0.49,-0.26 0.87,-0.26 2.39,-0.05 3.01,0.41 4.88,-0.26 6.2,-2.2 0.51,-0.72 0.52,-0.99 0.52,-2.41 0,-1.57 0,-1.67 -1.13,-3.79 -1.55,-3.12 -2.12,-4.85 -2.12,-6.92 0,-1.26 0.07,-1.8 0.41,-2.37 0.57,-1.15 1.29,-1.83 2.46,-2.41 0.85,-0.4 1.22,-0.49 3.05,-0.49 2.53,0 4.12,0.37 6.12,1.43 2.36,1.25 3.79,2.29 5.68,4.19 1.49,1.5 2.56,2.39 4.45,3.69 1.97,1.3 1.97,1.4 -0.1,0.76 -2.18,-0.66 -4.78,-1.98 -6.71,-3.44 -1.69,-1.27 -1.77,-1.33 -2.57,-1.21 -1.08,0.19 -2.95,-0.46 -3.76,-1.24 -0.78,-0.72 -1.49,-1.22 -1.81,-1.22 -0.53,0 -0.7,0.76 -0.41,1.77 0.41,1.14 0.26,1.53 -0.62,1.9l-0.4 1.17 0.74 0.96c0.87,1.2 0.82,2.1 -0.22,3.08l-0.73 0.79 0.73 1.13c1.56,2.51 1.6,3.62 0.15,4.92 -1.02,0.92 -1.07,1.05 -0.64,2.21 0.4,1.13 0.37,2.13 -0.09,2.61 -0.35,0.39 -0.59,0.49 -1.76,0.49 -1.37,0 -1.42,0 -1.74,0.56 -0.37,0.79 -1.12,1.27 -1.66,1.11l-1.16 -0.7c-0.88,-0.75 -1.08,-0.75 -1.66,-0.1l-0.66 0.49 -0.29 0.23zm13.93 -2.78l-0.56 0.39 -1.92 -1.46 -0.13 -0.74 0.73 -0.52c0.37,-0.39 0.9,-0.23 1.65,0.66 0.68,0.78 0.73,1.27 0.24,1.67zm17.29 -0.57l-1 -1.33c-0.83,-1.02 -2.64,-3.85 -3.37,-5.29l-0.69 -1.15 -0.52 0.64 -0.51 0.78c-1,0.65 2.05,4.8 4.65,6.32l1.4 0.57 0.03 -0.53zm-13.35 -1.6l0.3 -0.67 -5.44 -2.92 -0.44 0.74 -0.22 0.74 0.91 0.88c1.69,1.43 3.93,2 4.89,1.23zm2.68 -2.41c-1.73,0.64 -5.64,-1.03 -8.37,-3.65l-1.16 -1.05 0.67 -0.74 0.86 -1.22 0.39 -0.46c0.1,0 1.11,0.65 2.21,1.49 1.15,0.81 2.9,2.04 3.89,2.71 1.75,1.19 1.89,1.3 1.94,1.97l-0.42 0.95zm2.98 -3.88l0.39 -0.68 -0.54 -1.19c-0.71,-0.96 -4.37,-3.25 -7.44,-4.66 -2.57,-1.17 -2.26,-1.17 -3.32,-0.04l-0.9 1 0.51 0.56c0.95,0.88 4.62,3.18 6.33,4 2.16,0.98 3.81,1.33 4.97,1.01z"/>
   </g>
  </g>
 </g>
</svg>
