<?xml version="1.0" encoding="UTF-8"?>
<!DOCTYPE svg PUBLIC "-//W3C//DTD SVG 1.1//EN" "http://www.w3.org/Graphics/SVG/1.1/DTD/svg11.dtd">
<!-- Creator: CorelDRAW -->
<svg xmlns="http://www.w3.org/2000/svg" xml:space="preserve" width="2.02046in" height="1.97068in" version="1.1" style="shape-rendering:geometricPrecision; text-rendering:geometricPrecision; image-rendering:optimizeQuality; fill-rule:evenodd; clip-rule:evenodd"
viewBox="0 0 2700.18 2633.66"
 xmlns:xlink="http://www.w3.org/1999/xlink"
 xmlns:xodm="http://www.corel.com/coreldraw/odm/2003">
 <defs>
  <style type="text/css">
   <![CDATA[
    .fil3 {fill:none}
    .fil1 {fill:#303030}
    .fil2 {fill:white}
    .fil0 {fill:#303030;fill-rule:nonzero}
   ]]>
  </style>
    <clipPath id="id0">
     <path d="M1846.37 1310.22l-384.79 0 -122.35 0 -485.43 0 113.24 376.9 372.19 0 122.35 0 271.55 0 113.24 -376.9z"/>
    </clipPath>
    <clipPath id="id1">
     <path d="M1027.22 1687.13l113.24 234.82c139.75,0 279.5,0 419.25,0l113.24 -234.82c-215.24,0 -430.49,0 -645.73,0z"/>
    </clipPath>
 </defs>
 <g id="Layer_x0020_1">
  <metadata id="CorelCorpID_0Corel-Layer"/>
  <g id="_2518696652784">
   <path class="fil0" d="M1193.7 1069.57l-0.05 9.51c-0.18,39.39 -0.38,79.22 1.25,118.84 60.06,21.75 107.99,32.63 155.19,32.63 47.2,0 95.13,-10.89 155.19,-32.63 1.63,-39.62 1.43,-79.45 1.25,-118.84l-0.05 -9.51c-105.11,1.02 -207.66,1.02 -312.77,0zm-59.9 9.27l0.01 -69.69 216.28 2.09 216.28 -2.09 0.01 69.69c0.23,47.52 0.46,95.64 -2.2,141.97l-1.12 19.48 -18.13 6.92c-75.77,28.95 -134.88,43.43 -194.84,43.43 -59.97,0 -119.08,-14.48 -194.84,-43.43l-18.13 -6.92 -1.12 -19.48c-2.66,-46.33 -2.43,-94.44 -2.2,-141.97z"/>
   <path class="fil0" d="M915.06 2367.46l-64.51 -156.71 -97.9 0 0 265.62 77.41 0 0 -156.72 64.51 156.72 97.9 0 0 -265.62 -77.41 0 0 156.71zm385.89 108.91l-93.73 -265.62 -94.1 0 -93.72 265.62 83.48 0 13.28 -44.4 88.04 0 13.29 44.4 83.48 0zm-140.78 -190.11l28.84 95.24 -57.68 0 28.84 -95.24zm323.29 83.48l-43.64 -158.99 -111.94 0 0 265.62 77.4 0 0 -165.82 45.54 165.82 65.27 0 45.53 -165.82 0 165.82 77.41 0 0 -265.62 -111.94 0 -43.63 158.99zm464.07 106.63l-93.74 -265.62 -94.1 0 -93.72 265.62 83.48 0 13.27 -44.4 88.04 0 13.29 44.4 83.48 0zm-140.78 -190.11l28.84 95.24 -57.68 0 28.84 -95.24z"/>
   <polygon class="fil1" points="1846.37,1310.22 1461.59,1310.22 1339.23,1310.22 853.8,1310.22 967.05,1687.12 1339.23,1687.12 1461.59,1687.12 1733.13,1687.12 "/>
   <g style="clip-path:url(#id0)">
    <g>
     <g>
      <rect class="fil2" x="881.33" y="1332.34" width="51.46" height="56.8"/>
      <rect class="fil2" x="954.36" y="1332.34" width="51.46" height="56.8"/>
      <rect class="fil2" x="1027.4" y="1332.34" width="51.46" height="56.8"/>
      <rect class="fil2" x="1100.43" y="1332.34" width="51.46" height="56.8"/>
      <rect class="fil2" x="1173.46" y="1332.34" width="51.46" height="56.8"/>
      <rect class="fil2" x="1246.49" y="1332.34" width="51.46" height="56.8"/>
      <rect class="fil2" x="1319.53" y="1332.34" width="51.46" height="56.8"/>
      <rect class="fil2" x="1392.56" y="1332.34" width="51.46" height="56.8"/>
      <rect class="fil2" x="1465.59" y="1332.34" width="51.46" height="56.8"/>
      <rect class="fil2" x="1538.62" y="1332.34" width="51.46" height="56.8"/>
      <rect class="fil2" x="1611.66" y="1332.34" width="51.46" height="56.8"/>
      <rect class="fil2" x="1684.69" y="1332.34" width="51.46" height="56.8"/>
      <rect class="fil2" x="1757.72" y="1332.34" width="51.46" height="56.8"/>
     </g>
     <g>
      <rect class="fil2" x="881.33" y="1423.82" width="51.46" height="56.8"/>
      <rect class="fil2" x="954.36" y="1423.82" width="51.46" height="56.8"/>
      <rect class="fil2" x="1027.4" y="1423.82" width="51.46" height="56.8"/>
      <rect class="fil2" x="1100.43" y="1423.82" width="51.46" height="56.8"/>
      <rect class="fil2" x="1173.46" y="1423.82" width="51.46" height="56.8"/>
      <rect class="fil2" x="1246.49" y="1423.82" width="51.46" height="56.8"/>
      <rect class="fil2" x="1319.53" y="1423.82" width="51.46" height="56.8"/>
      <rect class="fil2" x="1392.56" y="1423.82" width="51.46" height="56.8"/>
      <rect class="fil2" x="1465.59" y="1423.82" width="51.46" height="56.8"/>
      <rect class="fil2" x="1538.62" y="1423.82" width="51.46" height="56.8"/>
      <rect class="fil2" x="1611.66" y="1423.82" width="51.46" height="56.8"/>
      <rect class="fil2" x="1684.69" y="1423.82" width="51.46" height="56.8"/>
      <rect class="fil2" x="1757.72" y="1423.82" width="51.46" height="56.8"/>
     </g>
     <g>
      <rect class="fil2" x="881.33" y="1515.29" width="51.46" height="56.8"/>
      <rect class="fil2" x="954.36" y="1515.29" width="51.46" height="56.8"/>
      <rect class="fil2" x="1027.4" y="1515.29" width="51.46" height="56.8"/>
      <rect class="fil2" x="1100.43" y="1515.29" width="51.46" height="56.8"/>
      <rect class="fil2" x="1173.46" y="1515.29" width="51.46" height="56.8"/>
      <rect class="fil2" x="1246.49" y="1515.29" width="51.46" height="56.8"/>
      <rect class="fil2" x="1319.53" y="1515.29" width="51.46" height="56.8"/>
      <rect class="fil2" x="1392.56" y="1515.29" width="51.46" height="56.8"/>
      <rect class="fil2" x="1465.59" y="1515.29" width="51.46" height="56.8"/>
      <rect class="fil2" x="1538.62" y="1515.29" width="51.46" height="56.8"/>
      <rect class="fil2" x="1611.66" y="1515.29" width="51.46" height="56.8"/>
      <rect class="fil2" x="1684.69" y="1515.29" width="51.46" height="56.8"/>
      <rect class="fil2" x="1757.72" y="1515.29" width="51.46" height="56.8"/>
     </g>
     <g>
      <rect class="fil2" x="881.33" y="1606.77" width="51.46" height="56.8"/>
      <rect class="fil2" x="954.36" y="1606.77" width="51.46" height="56.8"/>
      <rect class="fil2" x="1027.4" y="1606.77" width="51.46" height="56.8"/>
      <rect class="fil2" x="1100.43" y="1606.77" width="51.46" height="56.8"/>
      <rect class="fil2" x="1173.46" y="1606.77" width="51.46" height="56.8"/>
      <rect class="fil2" x="1246.49" y="1606.77" width="51.46" height="56.8"/>
      <rect class="fil2" x="1319.53" y="1606.77" width="51.46" height="56.8"/>
      <rect class="fil2" x="1392.56" y="1606.77" width="51.46" height="56.8"/>
      <rect class="fil2" x="1465.59" y="1606.77" width="51.46" height="56.8"/>
      <rect class="fil2" x="1538.62" y="1606.77" width="51.46" height="56.8"/>
      <rect class="fil2" x="1611.66" y="1606.77" width="51.46" height="56.8"/>
      <rect class="fil2" x="1684.69" y="1606.77" width="51.46" height="56.8"/>
      <rect class="fil2" x="1757.72" y="1606.77" width="51.46" height="56.8"/>
     </g>
    </g>
   </g>
   <polygon class="fil3" points="1846.37,1310.22 1461.59,1310.22 1339.23,1310.22 853.8,1310.22 967.05,1687.12 1339.23,1687.12 1461.59,1687.12 1733.13,1687.12 "/>
   <path class="fil0" d="M1801.53 1343.61l-902.87 0 93.18 310.12 716.52 0 93.18 -310.12zm-339.94 -66.78l429.63 0c-44.38,147.91 -88.75,295.83 -133.3,443.69l-815.65 0 -133.31 -443.69 652.63 0z"/>
   <path class="fil1" d="M1027.22 1687.13l113.24 234.82c139.75,0 279.5,0 419.25,0l113.24 -234.82c-215.24,0 -430.49,0 -645.73,0z"/>
   <g style="clip-path:url(#id1)">
    <g>
     <g>
      <rect class="fil2" x="881.33" y="1695.21" width="51.46" height="56.8"/>
      <rect class="fil2" x="954.36" y="1695.21" width="51.46" height="56.8"/>
      <rect class="fil2" x="1027.4" y="1695.21" width="51.46" height="56.8"/>
      <rect class="fil2" x="1100.43" y="1695.21" width="51.46" height="56.8"/>
      <rect class="fil2" x="1173.46" y="1695.21" width="51.46" height="56.8"/>
      <rect class="fil2" x="1246.49" y="1695.21" width="51.46" height="56.8"/>
      <rect class="fil2" x="1319.53" y="1695.21" width="51.46" height="56.8"/>
      <rect class="fil2" x="1392.56" y="1695.21" width="51.46" height="56.8"/>
      <rect class="fil2" x="1465.59" y="1695.21" width="51.46" height="56.8"/>
      <rect class="fil2" x="1538.62" y="1695.21" width="51.46" height="56.8"/>
      <rect class="fil2" x="1611.66" y="1695.21" width="51.46" height="56.8"/>
      <rect class="fil2" x="1684.69" y="1695.21" width="51.46" height="56.8"/>
      <rect class="fil2" x="1757.72" y="1695.21" width="51.46" height="56.8"/>
     </g>
     <g>
      <rect class="fil2" x="881.33" y="1786.68" width="51.46" height="56.8"/>
      <rect class="fil2" x="954.36" y="1786.68" width="51.46" height="56.8"/>
      <rect class="fil2" x="1027.4" y="1786.68" width="51.46" height="56.8"/>
      <rect class="fil2" x="1100.43" y="1786.68" width="51.46" height="56.8"/>
      <rect class="fil2" x="1173.46" y="1786.68" width="51.46" height="56.8"/>
      <rect class="fil2" x="1246.49" y="1786.68" width="51.46" height="56.8"/>
      <rect class="fil2" x="1319.53" y="1786.68" width="51.46" height="56.8"/>
      <rect class="fil2" x="1392.56" y="1786.68" width="51.46" height="56.8"/>
      <rect class="fil2" x="1465.59" y="1786.68" width="51.46" height="56.8"/>
      <rect class="fil2" x="1538.62" y="1786.68" width="51.46" height="56.8"/>
      <rect class="fil2" x="1611.66" y="1786.68" width="51.46" height="56.8"/>
      <rect class="fil2" x="1684.69" y="1786.68" width="51.46" height="56.8"/>
      <rect class="fil2" x="1757.72" y="1786.68" width="51.46" height="56.8"/>
     </g>
     <g>
      <rect class="fil2" x="881.33" y="1878.16" width="51.46" height="56.8"/>
      <rect class="fil2" x="954.36" y="1878.16" width="51.46" height="56.8"/>
      <rect class="fil2" x="1027.4" y="1878.16" width="51.46" height="56.8"/>
      <rect class="fil2" x="1100.43" y="1878.16" width="51.46" height="56.8"/>
      <rect class="fil2" x="1173.46" y="1878.16" width="51.46" height="56.8"/>
      <rect class="fil2" x="1246.49" y="1878.16" width="51.46" height="56.8"/>
      <rect class="fil2" x="1319.53" y="1878.16" width="51.46" height="56.8"/>
      <rect class="fil2" x="1392.56" y="1878.16" width="51.46" height="56.8"/>
      <rect class="fil2" x="1465.59" y="1878.16" width="51.46" height="56.8"/>
      <rect class="fil2" x="1538.62" y="1878.16" width="51.46" height="56.8"/>
      <rect class="fil2" x="1611.66" y="1878.16" width="51.46" height="56.8"/>
      <rect class="fil2" x="1684.69" y="1878.16" width="51.46" height="56.8"/>
      <rect class="fil2" x="1757.72" y="1878.16" width="51.46" height="56.8"/>
     </g>
     <g>
      <rect class="fil2" x="881.33" y="1969.64" width="51.46" height="56.8"/>
      <rect class="fil2" x="954.36" y="1969.64" width="51.46" height="56.8"/>
      <rect class="fil2" x="1027.4" y="1969.64" width="51.46" height="56.8"/>
      <rect class="fil2" x="1100.43" y="1969.64" width="51.46" height="56.8"/>
      <rect class="fil2" x="1173.46" y="1969.64" width="51.46" height="56.8"/>
      <rect class="fil2" x="1246.49" y="1969.64" width="51.46" height="56.8"/>
      <rect class="fil2" x="1319.53" y="1969.64" width="51.46" height="56.8"/>
      <rect class="fil2" x="1392.56" y="1969.64" width="51.46" height="56.8"/>
      <rect class="fil2" x="1465.59" y="1969.64" width="51.46" height="56.8"/>
      <rect class="fil2" x="1538.62" y="1969.64" width="51.46" height="56.8"/>
      <rect class="fil2" x="1611.66" y="1969.64" width="51.46" height="56.8"/>
      <rect class="fil2" x="1684.69" y="1969.64" width="51.46" height="56.8"/>
      <rect class="fil2" x="1757.72" y="1969.64" width="51.46" height="56.8"/>
     </g>
    </g>
   </g>
   <path class="fil3" d="M1027.22 1687.13l113.24 234.82c139.75,0 279.5,0 419.25,0l113.24 -234.82c-215.24,0 -430.49,0 -645.73,0z"/>
   <path class="fil0" d="M1074.34 1716.76l84.66 175.54 382.2 0 84.65 -175.54 -551.5 0zm39.51 218.03l-133.74 -277.3 739.96 0c-47.24,98.04 -94.41,196.14 -141.82,294.1l-456.3 0 -8.1 -16.79z"/>
   <polygon class="fil1" points="1188.28,2056.13 1511.9,2056.13 1511.9,1921.95 1188.28,1921.95 "/>
   <g>
    <polygon class="fil1" points="982.26,859.95 1717.92,859.95 1717.92,864.13 982.26,864.13 "/>
    <polygon class="fil1" points="982.26,1005.02 1717.92,1005.02 1717.92,1009.21 982.26,1009.21 "/>
    <g>
     <polygon class="fil1" points="1712.7,863.63 1712.7,1005.02 1708.52,1005.02 1708.52,863.63 "/>
     <polygon class="fil1" points="991.66,863.63 991.66,1005.02 987.48,1005.02 987.48,863.63 "/>
     <polygon class="fil1" points="1012.87,863.63 1012.87,1005.02 1008.68,1005.02 1008.68,863.63 "/>
     <polygon class="fil1" points="1034.07,863.63 1034.07,1005.02 1029.89,1005.02 1029.89,863.63 "/>
     <polygon class="fil1" points="1055.28,863.63 1055.28,1005.02 1051.09,1005.02 1051.09,863.63 "/>
     <polygon class="fil1" points="1076.49,863.63 1076.49,1005.02 1072.31,1005.02 1072.31,863.63 "/>
     <polygon class="fil1" points="1097.7,863.63 1097.7,1005.02 1093.51,1005.02 1093.51,863.63 "/>
     <polygon class="fil1" points="1118.9,863.63 1118.9,1005.02 1114.72,1005.02 1114.72,863.63 "/>
     <polygon class="fil1" points="1140.11,863.63 1140.11,1005.02 1135.93,1005.02 1135.93,863.63 "/>
     <polygon class="fil1" points="1161.31,863.63 1161.31,1005.02 1157.13,1005.02 1157.13,863.63 "/>
     <polygon class="fil1" points="1182.53,863.63 1182.53,1005.02 1178.34,1005.02 1178.34,863.63 "/>
     <polygon class="fil1" points="1203.73,863.63 1203.73,1005.02 1199.55,1005.02 1199.55,863.63 "/>
     <polygon class="fil1" points="1224.94,863.63 1224.94,1005.02 1220.75,1005.02 1220.75,863.63 "/>
     <polygon class="fil1" points="1258.44,863.63 1258.44,1005.02 1241.97,1005.02 1241.97,863.63 "/>
     <polygon class="fil1" points="1267.35,863.63 1267.35,1005.02 1263.17,1005.02 1263.17,863.63 "/>
     <polygon class="fil1" points="1288.56,863.63 1288.56,1005.02 1284.38,1005.02 1284.38,863.63 "/>
     <polygon class="fil1" points="1309.77,863.63 1309.77,1005.02 1305.58,1005.02 1305.58,863.63 "/>
     <polygon class="fil1" points="1330.97,863.63 1330.97,1005.02 1326.79,1005.02 1326.79,863.63 "/>
     <polygon class="fil1" points="1352.18,863.63 1352.18,1005.02 1348,1005.02 1348,863.63 "/>
     <polygon class="fil1" points="1373.39,863.63 1373.39,1005.02 1369.21,1005.02 1369.21,863.63 "/>
     <polygon class="fil1" points="1394.6,863.63 1394.6,1005.02 1390.41,1005.02 1390.41,863.63 "/>
     <polygon class="fil1" points="1415.8,863.63 1415.8,1005.02 1411.62,1005.02 1411.62,863.63 "/>
     <polygon class="fil1" points="1437.01,863.63 1437.01,1005.02 1432.83,1005.02 1432.83,863.63 "/>
     <polygon class="fil1" points="1458.21,863.63 1458.21,1005.02 1454.04,1005.02 1454.04,863.63 "/>
     <polygon class="fil1" points="1479.43,863.63 1479.43,1005.02 1475.24,1005.02 1475.24,863.63 "/>
     <polygon class="fil1" points="1500.63,863.63 1500.63,1005.02 1496.45,1005.02 1496.45,863.63 "/>
     <polygon class="fil1" points="1521.84,863.63 1521.84,1005.02 1517.65,1005.02 1517.65,863.63 "/>
     <polygon class="fil1" points="1543.04,863.63 1543.04,1005.02 1538.87,1005.02 1538.87,863.63 "/>
     <polygon class="fil1" points="1564.25,863.63 1564.25,1005.02 1560.07,1005.02 1560.07,863.63 "/>
     <polygon class="fil1" points="1585.46,863.63 1585.46,1005.02 1581.28,1005.02 1581.28,863.63 "/>
     <polygon class="fil1" points="1606.67,863.63 1606.67,1005.02 1602.48,1005.02 1602.48,863.63 "/>
     <polygon class="fil1" points="1627.87,863.63 1627.87,1005.02 1623.69,1005.02 1623.69,863.63 "/>
     <polygon class="fil1" points="1649.08,863.63 1649.08,1005.02 1644.9,1005.02 1644.9,863.63 "/>
     <polygon class="fil1" points="1670.29,863.63 1670.29,1005.02 1666.11,1005.02 1666.11,863.63 "/>
     <polygon class="fil1" points="1691.5,863.63 1691.5,1005.02 1687.31,1005.02 1687.31,863.63 "/>
     <polygon class="fil1" points="1280.35,863.63 1280.35,1005.02 1263.87,1005.02 1263.87,863.63 "/>
    </g>
    <g>
     <polygon class="fil1" points="978.76,907.59 1721.43,907.59 1721.43,911.76 978.76,911.76 "/>
     <polygon class="fil1" points="974.88,913.92 1725.31,913.92 1725.31,961.08 974.88,961.08 "/>
    </g>
   </g>
   <path class="fil0" d="M492.02 1869.05l-49 85.82 23.72 34.1 110.03 -76.51 -18.67 -26.83 -73.24 50.94 48.87 -85.98 -23.6 -33.95 -110.03 76.52 18.67 26.83 73.25 -50.94zm-114.02 -14.09l117.05 -65.28 -15.92 -28.54 -117.04 65.28 15.92 28.54zm-11.7 -153.01l25.71 -9.74 -11.65 -30.75c13.69,-0.25 25.98,8.87 31.43,23.25 3.88,10.25 3.41,19.88 -1.32,29.08 -4.49,9.32 -12.43,16.02 -23.39,20.17 -10.98,4.17 -21.37,4.4 -30.91,0.41 -9.46,-3.83 -16.2,-10.72 -20.08,-20.98 -5.45,-14.37 -1.65,-28.78 9.21,-38.65l-12.06 -31.82c-12.82,7.93 -21.35,19.6 -25.73,34.64 -4.39,15.02 -3.7,30.39 2.22,46.03 7.3,19.24 19.34,32.57 36.09,40.4 16.74,7.84 34.52,8.1 53.21,1.02 18.7,-7.09 31.85,-19.06 39.19,-36.04 7.52,-17.03 7.71,-34.99 0.42,-54.23 -7.28,-19.24 -19.33,-32.56 -35.95,-40.03 -16.61,-7.48 -34.39,-7.74 -53.27,-0.58 -3.77,1.43 -6.47,2.45 -7.67,3.11l24.53 64.72zm-117.14 -169.98l26.92 91.89 128.61 -37.69 -26.93 -91.89 -27.68 8.12 17.74 60.52 -23.8 6.97 -16.44 -56.09 -26.39 7.73 16.43 56.09 -23.06 6.75 -17.73 -60.52 -27.68 8.12zm82.57 -171.94c-16.44,3.28 -26.13,11.64 -28.88,25.23 -8.19,-12.64 -21.45,-18.53 -36.88,-16.36 -11.99,1.69 -20.91,7.22 -26.78,16.59 -5.87,9.38 -7.9,21.12 -5.94,35.02l9.1 64.54 132.71 -18.71 -4.57 -32.37 -45.12 6.36 -4.22 -29.89c-1.28,-9.14 6.28,-16.03 19.34,-18.45 13.82,-2.53 21.74,-4.22 23.39,-4.85l-4.75 -33.71c-3.62,1.86 -12.84,3.95 -27.41,6.59zm-32.44 83.98l-32.93 4.65 -4.03 -28.56c-1.42,-10.09 3.95,-17.45 14.04,-18.87 10.09,-1.42 17.47,4.14 18.89,14.22l4.03 28.56zm-72.58 -114.21l134.01 -1.49 -0.36 -32.68 -134.01 1.49 0.36 32.68zm141.8 -191.62l-137.34 38.77 -2.99 39.5 129.93 59.01 2.66 -35.09 -20.37 -8.48 4.04 -53.3 21.42 -5.32 2.66 -35.08zm-107.39 60.9l55.79 -13.71 -2.71 35.85 -53.08 -22.15zm87.08 -172.51l-96.39 21.79 -9.16 40.51 130.72 29.53 7.2 -31.88 -87.01 -19.65 96.42 -21.98 9.11 -40.33 -130.72 -29.53 -7.2 31.88 87.03 19.66zm129.32 -208.58l-142.22 -11.74 -16.63 35.95 101.07 100.75 14.76 -31.93 -16.12 -15.08 22.44 -48.52 21.93 2.51 14.77 -31.94zm-121.92 19.47l57.08 6.69 -15.09 32.63 -41.99 -39.32zm17.65 -102.04l116.49 66.26 16.16 -28.41 -116.49 -66.26 -16.16 28.41zm189.89 -95.7c-14.21,-8.88 -27,-9.44 -38.32,-1.42 2.7,-14.82 -2.91,-28.2 -15.64,-37.18 -9.89,-6.98 -20.19,-9.08 -30.87,-6.28 -10.7,2.81 -20.24,9.98 -28.32,21.44l-37.61 53.24 109.47 77.32 18.86 -26.69 -37.23 -26.3 17.42 -24.66c5.33,-7.53 15.57,-7.37 26.73,-0.18 11.81,7.63 18.73,11.82 20.36,12.5l19.64 -27.81c-3.92,-1.12 -12.06,-5.92 -24.49,-13.98zm-81.17 38.94l-27.17 -19.19 16.64 -23.57c5.88,-8.32 14.83,-10 23.16,-4.12 8.32,5.88 9.89,15 4.01,23.32l-16.64 23.56zm59.95 -171.68c-10.68,11.33 -16.58,23.2 -17.72,35.62 -1.12,12.41 3.14,23.03 12.51,31.87 5.6,5.27 11.68,8.35 17.95,9.25 12.84,1.79 22.73,-4.49 34.21,-11.62 16.43,-10.42 29.63,-23.32 38.73,-15.03 6.29,5.93 4.44,16.61 -4.14,25.7 -10.02,10.63 -22.35,11.95 -30.74,4.31l-22.41 23.79c10.34,9.49 22.15,13.21 35.16,11.47 13,-1.75 25.05,-8.36 36.26,-20.25 11.48,-12.18 17.9,-24.61 19.56,-37.58 1.66,-12.7 -2.33,-23.61 -11.84,-32.57 -5.74,-5.41 -11.81,-8.48 -18.24,-9.51 -12.84,-1.8 -23,4.21 -34.35,11.49 -16.14,10.68 -29.63,23.6 -38.87,14.9 -6.16,-5.81 -4.8,-15.1 2.72,-23.07 8.44,-8.96 19.57,-9.82 27.95,-2.19l21.76 -23.09c-9.79,-8.97 -21.06,-12.97 -33.94,-11.65 -12.9,1.34 -24.42,7.39 -34.57,18.17zm75.57 -70.79l81.1 106.7 26.01 -19.77 -25.48 -33.53 22.97 -17.46c10.86,-8.26 17.34,-18.49 19.15,-30.73 1.79,-12.24 -1.31,-23.64 -9.46,-34.36 -8.14,-10.71 -18.29,-16.76 -30.56,-18.3 -12.28,-1.54 -23.87,1.96 -34.74,10.22l-49 37.23zm64.88 31.35l-21.4 -28.16 20.06 -15.25c8.41,-6.39 18.34,-4.77 24.51,3.35 6.17,8.11 5,18.66 -3.11,24.81l-20.05 15.24zm220.24 -60.29l-108.1 -93.16 -34.59 19.29 22.46 140.92 30.73 -17.14 -4.16 -21.68 46.69 -26.03 16.26 14.93 30.72 -17.14zm-110.04 -55.97l42.22 38.98 -31.41 17.52 -10.82 -56.49zm192.72 -41.34c2.35,16.66 -6.5,32.26 -22.91,38.86 -10.17,4.09 -19.75,3.99 -28.98,-0.38 -9.14,-4.19 -15.86,-11.64 -20.09,-22.17 -4.24,-10.52 -4.47,-20.38 -0.78,-29.74 3.77,-9.18 10.62,-15.87 20.79,-19.96 16.58,-6.67 33.77,-1.56 43.37,11.99l31.04 -12.49c-8.52,-15.02 -20.65,-25.06 -36.37,-30.14 -15.9,-5 -32.28,-4.02 -49.23,2.79 -19.08,7.68 -32.17,20 -39.67,36.89 -7.5,16.89 -7.4,34.68 0.06,53.23 7.46,18.56 19.7,31.46 36.81,38.46 17.18,7.18 35.15,7.01 54.24,-0.67 16.95,-6.81 29.38,-17.62 37.39,-32.23 7.82,-14.55 9.62,-30.2 5.38,-46.93l-31.04 12.49zm139.55 -120.94l-93.3 21.55 30.15 130.57 93.3 -21.55 -6.49 -28.1 -61.45 14.19 -5.59 -24.16 56.96 -13.16 -6.18 -26.79 -56.96 13.16 -5.4 -23.42 61.45 -14.19 -6.49 -28.11zm177.12 69.2l-30.04 -89.85 -47.29 0.53 1.5 134.01 32.68 -0.36 -1.05 -92.86 30.85 92.52 27.49 -0.31 28.76 -93.19 1.05 92.85 32.68 -0.36 -1.5 -134.01 -47.3 0.53 -27.83 90.5zm233.4 59.5l-29.83 -139.55 -39.22 -5.53 -67.27 125.86 34.84 4.91 9.79 -19.79 52.93 7.47 3.94 21.71 34.83 4.91zm-53.85 -111.09l10.09 56.57 -35.6 -5.02 25.52 -51.55zm167.39 93.43l-15.69 -97.57 -39.86 -11.68 -37.68 128.61 31.37 9.19 25.09 -85.61 15.86 97.61 39.68 11.63 37.69 -128.61 -31.37 -9.2 -25.09 85.62zm163.77 114.22l11.74 -142.22 -35.95 -16.63 -100.75 101.07 31.94 14.77 15.08 -16.12 48.52 22.44 -2.51 21.92 31.94 14.77zm-19.47 -121.91l-6.69 57.07 -32.63 -15.09 39.32 -41.98zm125.73 98.54l-14.58 23.32 27.88 17.44c-10.75,8.48 -26.05,8.66 -39.09,0.49 -9.3,-5.81 -14.75,-13.76 -16.54,-23.96 -2.06,-10.13 0.21,-20.28 6.43,-30.22 6.22,-9.94 14.35,-16.43 24.37,-19.01 9.84,-2.68 19.38,-1.26 28.68,4.56 13.04,8.16 18.73,21.92 16.04,36.35l28.85 18.05c5.41,-14.07 5.15,-28.53 -0.45,-43.15 -5.59,-14.61 -15.44,-26.43 -29.62,-35.31 -17.44,-10.91 -35.09,-14.24 -53.18,-10.34 -18.07,3.88 -32.38,14.43 -42.99,31.38 -10.61,16.96 -13.83,34.45 -9.42,52.41 4.31,18.11 15.03,32.53 32.47,43.44 17.44,10.91 35.09,14.24 52.85,10.14 17.75,-4.08 32.06,-14.64 42.77,-31.76 2.14,-3.43 3.67,-5.87 4.22,-7.11l-58.69 -36.71zm198.04 78.42l-72.58 -62.46 -87.42 101.58 72.58 62.46 18.82 -21.86 -47.8 -41.14 16.17 -18.8 44.31 38.13 17.93 -20.84 -44.31 -38.12 15.68 -18.22 47.81 41.13 18.82 -21.86zm16.72 148.31l48.23 -81.54 -31.37 -35.39 -100.29 88.9 21.68 24.46 69.5 -61.61 -49.73 83.91 18.23 20.57 89.27 -39.3 -69.49 61.6 21.68 24.46 100.28 -88.9 -31.37 -35.39 -86.62 38.23zm196.87 120.92l-52.28 -80.23 -112.29 73.16 52.27 80.23 24.17 -15.75 -34.43 -52.84 20.78 -13.54 31.91 48.97 23.05 -15.02 -31.92 -48.97 20.14 -13.11 34.43 52.84 24.17 -15.75zm-24.19 156.25l63.83 -75.43 -17.08 -37.85 -122.16 55.13 13.45 29.79 81.31 -36.7 -63.75 75.6 17.01 37.69 122.16 -55.14 -13.45 -29.8 -81.31 36.7zm107.32 31.01l-27.68 8.11 10.43 35.6 -100.93 29.57 9.2 31.37 100.93 -29.58 10.43 35.61 27.68 -8.11 -30.06 -102.58zm-69.7 330.8l125.86 -67.26 -5.52 -39.21 -139.56 -29.84 4.91 34.84 21.72 3.94 7.47 52.93 -19.79 9.79 4.91 34.83zm91.87 -82.47l-51.57 25.33 -5.02 -35.6 56.59 10.27zm-22.15 161.42l-27.5 -0.32 -0.38 32.88c-12.82,-4.77 -20.95,-17.75 -20.77,-33.13 0.13,-10.95 4.08,-19.75 11.84,-26.59 7.59,-7.03 17.43,-10.37 29.15,-10.23 11.74,0.13 21.5,3.7 28.92,10.91 7.41,7.01 11.15,15.89 11.03,26.85 -0.17,15.38 -8.97,27.4 -22.68,32.62l-0.39 34.03c14.84,-2.71 27.05,-10.45 36.6,-22.85 9.57,-12.39 14.54,-26.94 14.73,-43.67 0.24,-20.57 -6.1,-37.38 -18.84,-50.79 -12.72,-13.41 -29.19,-20.14 -49.18,-20.37 -20,-0.23 -36.61,6.11 -49.64,19.24 -13.22,13.11 -19.96,29.76 -20.2,50.34 -0.23,20.57 6.11,37.37 18.85,50.4 12.73,13.03 29.19,19.76 49.38,19.99 4.04,0.05 6.92,0.08 8.27,-0.09l0.81 -69.22zm32.71 209.51l15.47 -94.5 -132.25 -21.65 -15.47 94.5 28.47 4.66 10.19 -62.24 24.48 4.01 -9.44 57.69 27.13 4.44 9.44 -57.68 23.72 3.88 -10.19 62.24 28.46 4.67zm-124.74 100.02l98.36 -9.51 14.16 -39.05 -125.98 -45.71 -11.15 30.73 83.86 30.43 -98.43 9.69 -14.1 38.87 125.98 45.7 11.14 -30.72 -83.86 -30.43zm-60.08 159.03c-12.78,-10.94 -16.44,-28.5 -8.49,-44.3 4.92,-9.78 12.16,-16.05 21.98,-18.86 9.63,-2.9 19.6,-1.75 29.74,3.34 10.13,5.1 16.83,12.34 20.24,21.81 3.24,9.38 2.52,18.92 -2.4,28.72 -8.03,15.96 -24.31,23.5 -40.46,19.67l-15.04 29.89c16.33,5.63 32.06,5.15 47.21,-1.44 15.24,-6.76 26.88,-18.33 35.08,-34.64 9.25,-18.38 10.93,-36.27 5.38,-53.91 -5.54,-17.64 -17.37,-30.91 -35.23,-39.9 -17.87,-8.98 -35.58,-10.58 -53.06,-4.51 -17.64,5.97 -31,17.97 -40.25,36.35 -8.21,16.33 -10.4,32.65 -6.74,48.91 3.75,16.1 12.74,29.02 26.99,38.77l15.04 -29.89zm-14.6 164.18l-26.22 -56.2 61.73 5.93 21.3 -30.15 -96.8 -5.27 -42.4 -29.95 -18.85 26.7 43.19 30.51 36.76 88.58 21.3 -30.15z"/>
   <path class="fil0" d="M1350.09 424.68c239.01,0 455.41,96.89 612.04,253.52 156.63,156.63 253.52,373.03 253.52,612.04 0,189.76 -61.12,365.28 -164.73,507.96 -106.31,146.38 -257.41,258.19 -433.18,315.28l-9.27 1.53 -516.75 0 -9.27 -1.53c-175.77,-57.1 -326.87,-168.9 -433.18,-315.28 -103.61,-142.68 -164.73,-318.2 -164.73,-507.96 0,-239.01 96.89,-455.41 253.52,-612.04 156.63,-156.63 373.03,-253.52 612.04,-253.52zm569.56 296c-145.75,-145.76 -347.13,-235.91 -569.56,-235.91 -222.43,0 -423.81,90.15 -569.56,235.91 -145.76,145.75 -235.91,347.13 -235.91,569.56 0,176.68 56.85,340.03 153.24,472.76 98.02,134.97 236.94,238.35 398.52,291.93l507.43 0c161.58,-53.58 300.5,-156.96 398.52,-291.93 96.39,-132.72 153.24,-296.07 153.24,-472.76 0,-222.43 -90.15,-423.81 -235.91,-569.56z"/>
   <g>
    <polygon class="fil0" points="-0,2224.08 184.71,2117.44 2515.47,2117.44 2700.18,2224.08 2700.18,2150.19 2532.61,2053.45 170.12,2053.45 -0,2150.19 "/>
    <polygon class="fil0" points="2294.1,2633.66 406.08,2633.66 406.08,2569.68 2294.1,2569.68 "/>
   </g>
   <path class="fil0" d="M1350.09 0c356.28,0 678.84,144.42 912.33,377.91 233.48,233.48 377.91,556.04 377.91,912.33 0,151.28 -26.12,296.6 -74.08,431.63 -49.72,140 -122.97,268.93 -214.96,382l-9.08 11.14 -1984.25 0 -9.07 -11.14c-91.99,-113.07 -165.24,-241.99 -214.96,-382 -47.95,-135.04 -74.08,-280.35 -74.08,-431.63 0,-356.29 144.42,-678.84 377.91,-912.33 233.48,-233.48 556.05,-377.91 912.33,-377.91zm869.85 420.38c-222.6,-222.6 -530.14,-360.29 -869.85,-360.29 -339.69,0 -647.25,137.69 -869.85,360.29 -222.6,222.6 -360.3,530.15 -360.3,869.85 0,144.5 24.88,283.08 70.55,411.69 45.78,128.93 112.46,247.97 195.92,353l1927.36 0c83.45,-105.03 150.14,-224.07 195.92,-353 45.67,-128.61 70.55,-267.19 70.55,-411.69 0,-339.7 -137.69,-647.25 -360.3,-869.85z"/>
  </g>
 </g>
</svg>
