<?xml version="1.0" encoding="UTF-8"?>
<!DOCTYPE svg PUBLIC "-//W3C//DTD SVG 1.1//EN" "http://www.w3.org/Graphics/SVG/1.1/DTD/svg11.dtd">
<!-- Creator: CorelDRAW -->
<svg xmlns="http://www.w3.org/2000/svg" xml:space="preserve" width="1.43248in" height="1.86645in" version="1.1" style="shape-rendering:geometricPrecision; text-rendering:geometricPrecision; image-rendering:optimizeQuality; fill-rule:evenodd; clip-rule:evenodd"
viewBox="0 0 202.89 264.36"
 xmlns:xlink="http://www.w3.org/1999/xlink"
 xmlns:xodm="http://www.corel.com/coreldraw/odm/2003">
 <defs>
  <style type="text/css">
   <![CDATA[
    .fil2 {fill:#201E1E}
    .fil0 {fill:#303030}
    .fil1 {fill:white}
    .fil3 {fill:#303030;fill-rule:nonzero}
   ]]>
  </style>
 </defs>
 <g id="Layer_x0020_1">
  <metadata id="CorelCorpID_0Corel-Layer"/>
  <g id="_2518804530688">
   <path class="fil0" d="M163.13 222.26c17.24,-5.07 36.32,10.09 15.6,30 -19.24,18.49 -17.44,12.79 -37.71,2.74 -28.35,-14.05 -62.6,-10.26 -90,4.11 -12.32,6.46 -15.12,8.74 -33.6,-14.4 -8.2,-10.26 -1.41,-25.73 23.14,-23.14 -5.48,-5.94 -35.7,-41.13 -37.71,-45.94 -1.47,-3.53 -5.4,-61.8 -0.34,-68.4 3.22,-4.2 5.39,-2.71 7.89,-1.54 0,-31.84 24.66,-35.75 30.51,-44.23 3.57,-5.18 10.24,-16.49 13.03,-22.29l-4.11 -0.86c1.18,-6.7 2.44,-1.96 2.91,-6.69l-3.09 -3.09c3.29,-3.62 3.43,-2.98 3.43,-5.66 -3.62,-1.49 -2.64,-0.65 -3.77,-2.91 0.69,-0.46 27.17,-14.65 29.14,-15.09 18.27,-3.99 3.42,17.39 13.2,18.86 7.51,1.13 8.43,-11.35 -0.86,-13.89l-0.86 -1.71c6.59,-10.19 21.99,-11.98 22.97,1.37 0.34,4.69 0.23,9.86 2.06,14.23 2.77,1.07 1.57,0.86 4.46,0.86 0.21,-0.69 -3.07,-26.14 14.23,-19.37 8.2,3.21 16.95,14.5 22.97,18.51l-4.11 1.2c1.75,3.24 2.35,3.38 3.43,6.34 -3.05,1.07 -2.56,1.2 -5.31,1.2l-0.17 1.71c2.67,1.6 3.55,2.63 5.66,4.97l-1.54 1.89c-4.94,-0.45 -1.01,-1.89 -6,-1.89 2.03,6.91 10.5,14.74 14.74,20.91 7.53,10.95 2.95,3.2 13.89,11.14 11.98,8.71 17.49,20.29 17.49,34.8l2.91 -1.03c6.52,5.22 5.23,6.46 5.14,20.23 -0.07,10.89 0.16,41.07 -3.6,51.09 -2.94,7.84 -15.86,19.83 -21.77,27.26 -5.63,7.07 -10.17,11.24 -14.23,18.69zm-105.64 -159.52l-2.52 -0.2 -0.2 -1.71 0.6 -1.01 1.11 -1.61 2.82 -0.5 1.91 0.3 2.21 0.6 1.71 0 0.91 -0.81 1.51 -1.01 1.51 -0.91 0.5 1.11 1.51 0.4 1.71 -0.91 1.71 -0.81 1.71 -1.41 1.61 -1.51 1.81 -0.1 2.32 0 1.51 -0.3 2.42 -2.01 1.41 -1.41 1.71 -0.6 1.11 -0.1 1.81 1.31 0.7 1.21 0 1.31 -0.2 1.01 -0.7 1.81 -0.81 1.11 0.3 14.3 0.6 1.81 1.41 1.81 0.91 2.11 -0.4 1.41 -1.61 0.3 -2.21 0.1 -1.81 0.81 -1.41 1.21 -2.52 -1.01 -3.93 -4.43 -3.12 -2.82 -3.52 -2.42 -3.32 -2.11 -4.13 -1.71 -2.92 -1.21 -2.92 -1.21 -2.82 -0.2zm65.92 -11.61c13.18,7.79 11.71,1.18 15.37,6.96 2.03,3.2 1.97,1.8 4.13,3.44l1.15 1.22 -0.54 1.53c-7.4,1.92 -5.62,1.22 -12.47,5.28 -4.6,2.72 -2.63,1.21 -6.12,4.44 -4.12,3.81 -2.53,2.29 -5.97,6.5l-1.76 -0.54c-1.4,-2.79 -1.43,-4.49 -1.53,-7.65 2.67,-2.18 1.11,-1.11 3.36,-1.38 2.08,-0.25 2.76,-1.11 4.44,-2.45 3.62,0.41 1.97,0.56 4.67,-0.76 3.45,-1.7 3.39,-0.87 4.51,-1.22 1.76,-0.56 1.9,-1.41 2.14,-2.14 -2.55,-1.34 -13.96,-9.67 -14.84,-11.17 -0.47,-0.81 -0.16,-1.72 0,-2.29l2.75 -0.54 0.69 0.76zm-32.12 32.6l21.3 -0.14 1.43 0.34 0 1.09 -0.34 0.96 -5.6 6.48 -3.07 4.03 -1.23 1.5 -0.96 0.96 -1.09 -0.34 -0.89 -0.82 -1.71 -2.66 -5.05 -6.21 -1.5 -1.77 -1.23 -1.23 -0.68 -1.3 0.61 -0.89zm-20.78 139.48c2.33,-5.44 0.71,-3.54 -0.66,-7.09 -0.52,-1.35 -0.19,-1.51 0.44,-2.58 2.8,1.08 1.21,3.35 7.53,5.83 3.46,1.36 3.96,-0.43 4.13,2.36 -1.44,1.01 -4.31,0.72 -6.05,0.52 -1.76,2.05 -2.6,1.85 -5.39,0.96zm48.52 -2.82c9.13,-0.83 11.63,-7.99 15.35,-11.58l1.06 0.05c-0.76,4.32 -2.44,4.72 -2.44,6.64 0,3.15 -2.14,1.52 -0.48,6.96 0.69,2.25 -0.39,2.11 -2.39,2.71l-1.12 -1.65 -10.52 -0.64 -0.43 -1.38 0.96 -1.12zm66.49 -84.29c2.68,4.56 -0.37,12.06 -0.37,13.35 0,1.92 -0.21,1.88 -1.65,3.17 0.38,1.66 0.39,1.67 -1.06,3.12 0.28,6.47 -2.41,9.94 -8.12,15.51 -2.54,2.48 -5.28,2.08 -5.55,-0.46 5.65,-5.14 0.55,-8.17 3.85,-11.7 3.51,-3.74 7.52,-3.72 6.88,-7.39 -0.61,-3.52 2.68,-3.18 2.94,-4.86 0.06,-0.41 -0.58,-1.36 -0.18,-4.22 0.77,-5.58 0.36,-0.76 0.05,-5.92 1.59,-1.17 1.73,-1.38 3.21,-0.6zm-6.99 6.64c1.56,4.22 -1.05,5.05 -2.43,6.79 -1.25,1.57 -1.21,1.88 -3.17,1.97 -3.6,0.17 -2.37,-2.83 -0.5,-4.77 2.51,-2.6 0.73,-5.53 6.1,-3.99zm-161.29 -6.64c-2.68,4.56 0.37,12.06 0.37,13.35 0,1.92 0.21,1.88 1.65,3.17 -0.38,1.66 -0.39,1.67 1.06,3.12 -0.28,6.47 2.41,9.94 8.12,15.51 2.54,2.48 5.28,2.08 5.55,-0.46 -5.65,-5.14 -0.55,-8.17 -3.85,-11.7 -3.51,-3.74 -7.52,-3.72 -6.88,-7.39 0.61,-3.52 -2.68,-3.18 -2.94,-4.86 -0.06,-0.41 0.58,-1.36 0.18,-4.22 -0.77,-5.58 -0.36,-0.76 -0.05,-5.92 -1.59,-1.17 -1.73,-1.38 -3.21,-0.6zm6.99 6.64c-1.56,4.22 1.05,5.05 2.43,6.79 1.25,1.57 1.21,1.88 3.17,1.97 3.6,0.17 2.37,-2.83 0.5,-4.77 -2.51,-2.6 -0.74,-5.53 -6.1,-3.99zm129.2 7.59c1.5,4.32 -0.03,3.58 -0.98,6.94l-0.2 2.25c-0.1,0.39 -1.01,1.73 -1.17,3.13 -0.46,4.02 0.28,0.55 -1.17,3.42 -0.58,1.15 -0.68,3.32 -0.78,3.81l-0.88 2.64c-0.44,2.73 0.63,-0.69 -1.08,4.89l-1.86 5.86c-2.92,-0.38 -2.71,-0.15 -4.1,-3.71 -1.74,-4.43 -1.19,-4.26 -3.23,-8.7 -1.26,-2.76 -2.64,-2.55 1.17,-8.89l6.55 -10.85c2.04,-1.87 5.59,-1.16 7.72,-0.78zm-103.58 0c-1.5,4.32 0.03,3.58 0.98,6.94l0.2 2.25c0.1,0.39 1.01,1.73 1.17,3.13 0.46,4.02 -0.28,0.55 1.17,3.42 0.58,1.15 0.68,3.32 0.78,3.81l0.88 2.64c0.44,2.73 -0.63,-0.69 1.08,4.89l1.86 5.86c2.92,-0.38 2.71,-0.15 4.11,-3.71 1.74,-4.43 1.19,-4.26 3.22,-8.7 1.26,-2.76 2.65,-2.55 -1.17,-8.89l-6.55 -10.85c-2.04,-1.87 -5.59,-1.16 -7.72,-0.78zm18.33 10.04c-1.49,-2.86 -2.24,-4.67 -4.22,-7.16l-0.8 -1.41 0.4 -0.87c2.03,-0.31 4.26,1.1 7.03,0.13 1.8,-0.63 0.13,-0.67 2.74,-0.67l0.54 0.67c-0.32,1.61 -2.64,3.34 -2.94,6.62 -0.18,1.96 0.43,0.27 -0.8,3.15l-1.94 -0.47zm66.92 0c1.49,-2.86 2.24,-4.67 4.22,-7.16l0.8 -1.41 -0.4 -0.87c-2.03,-0.31 -4.26,1.1 -7.03,0.13 -1.8,-0.63 -0.13,-0.67 -2.74,-0.67l-0.54 0.67c0.32,1.61 2.64,3.34 2.94,6.62 0.18,1.96 -0.43,0.27 0.8,3.15l1.94 -0.47zm24.07 -67.01c-4.45,-1.41 -28.43,20.05 -40.7,22.91 -14.33,3.35 -6.5,21.14 -27.53,3.35 -0.05,-0.05 -31.2,-17.46 -40.07,-23.93 -3.4,-2.48 -1.64,-1.98 -4.56,-2.28 -5.73,4.91 -3.28,5.96 -10.63,7.53l-0.19 1.2c1.47,1.47 25.57,13.59 36.14,23.04 5.68,5.07 6.15,-2.92 14.37,9.68 10.16,15.58 7.43,2.03 8.99,24.12 1.06,14.95 0.48,0.6 -0.57,14.94 -0.55,7.56 1.98,3.04 -0.76,24.37l0.19 8.48c-10.67,0 -26.27,-20.15 -6.65,-31.84 8.39,-4.99 3.53,-10.7 -0.7,-24.05 -0.73,-2.31 -0.34,-2.57 -3.35,-4.62 1.29,-5.95 -14.88,-26.42 -26.77,-17.53 -13.16,9.83 -45.87,-17.32 -15.7,-42.98 6.56,-5.58 28.89,-10.83 30.76,14.18 0.55,7.38 10.63,7.82 24.56,9.68 2.66,0.36 4.46,-0.78 6.39,-1.96 6.24,4.56 14.99,0.97 27.47,-1.58 8.33,-1.7 -3.8,-25.8 23.48,-25 25.69,0.75 34.38,50.34 1.46,49.37 -11.26,-0.33 -9.13,-13.8 -29.12,6.46 -3.78,3.83 -2.57,4.97 -4.05,9.24 -7.42,2.02 -14.22,20.91 -3.86,27.66 12.77,8.32 3.41,35.17 -7.85,32.91 -4.75,-25.47 1.74,-22.75 -1.96,-39.5 -0.65,-2.94 1.31,-22.99 2.79,-25.07 13.99,-19.66 11.97,-9.9 26.33,-21.14 14.64,-11.45 21.36,-13.07 29.88,-18.86l0.13 -0.82c-3.04,-2.48 -6.05,-4.83 -7.91,-7.97z"/>
   <g>
    <path class="fil1" d="M175.97 243.27c2.61,-0.03 3.16,-0.46 4.97,0.29 -0.01,0.02 -12.76,18.71 -22.5,15.53 -12.18,-3.98 -29.76,-21.74 -68.23,-16.68 -20.15,2.65 -31.53,7.54 -48.83,15.72 -5.7,2.69 -13.53,-6.76 -18.87,-12.95l0.72 -0.91c14.61,-0.94 48.81,-26.95 103.49,-16.39 28.33,6.09 33.35,15.6 49.26,15.39z"/>
    <g>
     <path class="fil1" d="M21.36 235.7c0.6,-11.06 15.63,-13.11 23.17,-6.91 -1.26,6.28 -19.84,12.62 -23.17,6.91z"/>
     <path class="fil1" d="M180.29 235.7c-0.6,-11.06 -15.63,-13.11 -23.17,-6.91 1.26,6.28 19.84,12.62 23.17,6.91z"/>
    </g>
    <g>
     <path class="fil1" d="M7.32 111.51l-1.37 0.84c-0.67,4.32 -1.42,52.23 0,57.89 2.92,11.62 29.68,40.72 38.91,50.72 3.92,4.25 5.72,5.5 10.65,8.22 9.23,-3.19 15.71,-4.42 8.12,-22.04 -7.37,-17.1 -15.13,-33.91 -19.72,-52.09 -0.45,-1.79 -0.16,-7.68 -7.7,-4.74 -3.43,9.6 4.85,16.65 4.85,37.54 -1.43,-0.59 -25.49,-19.85 -26.78,-28.36 -1.75,-11.53 2.41,-32.17 -3.37,-41.86l-3.59 -6.12z"/>
     <path class="fil1" d="M195.85 111.51l1.37 0.84c0.67,4.32 1.42,52.23 0,57.89 -2.92,11.62 -29.68,40.72 -38.91,50.72 -3.92,4.25 -5.72,5.5 -10.65,8.22 -9.23,-3.19 -15.71,-4.42 -8.12,-22.04 7.37,-17.1 15.13,-33.91 19.72,-52.09 0.45,-1.79 0.16,-7.68 7.7,-4.74 3.43,9.6 -4.85,16.65 -4.85,37.54 1.43,-0.59 25.49,-19.85 26.78,-28.36 1.75,-11.53 -2.41,-32.17 3.37,-41.86l3.58 -6.12z"/>
    </g>
   </g>
   <path class="fil2" d="M19.97 99.21l-1.87 0.89c-1.64,4.91 -0.15,20.69 4.95,28.39 9.58,14.5 26.49,15.48 42.67,14.11l3.65 -1.05 -0.08 -1.7c-7.9,-2.79 0.47,-8.51 -15.09,-2.68 -14.98,5.61 -34.9,-9.34 -33.18,-30.9 0.23,-2.91 0.75,-2.17 0.08,-6.41l-1.14 -0.65z"/>
   <path class="fil2" d="M185.62 99.21l1.87 0.89c1.64,4.91 0.15,20.69 -4.95,28.39 -9.58,14.5 -26.49,15.48 -42.67,14.11l-3.65 -1.05 0.08 -1.7c7.9,-2.79 -0.47,-8.51 15.09,-2.68 14.98,5.61 34.9,-9.34 33.18,-30.9 -0.23,-2.91 -0.75,-2.17 -0.08,-6.41l1.14 -0.65z"/>
   <path class="fil2" d="M124.53 158.61c-1.61,-1.07 -0.68,-0.79 -3.29,-0.79 0.7,7.75 -4.73,6.62 2.37,13.41 14.8,14.14 5.98,34.97 -8.81,41.42 -5.05,2.2 -3.27,0.21 -5.65,3.68l1.58 0.79c19.05,-6.93 30.6,-24.39 22.35,-42.6 -1.31,-2.89 -6.82,-13.5 -8.55,-15.91z"/>
   <path class="fil1" d="M44.87 94.73c22.16,16.55 43.29,25.79 50.1,32.3 3.62,3.46 4.23,4.22 8.72,6.08 5.76,-2.73 3.91,-9.02 24.49,-17.62 11.64,-4.87 21.82,-13.18 31.91,-20.74l4.67 4.69c-22.62,11.33 -27.5,19.89 -37.91,23.45 -9.9,3.38 -22.78,17.85 -21.41,26.43 0.94,5.87 -2.12,11.66 -0.53,17.53 2.73,10.06 -1.71,4.62 1.85,28.02 0.61,3.98 0.32,9.17 -1.23,12.86 -3.95,1.14 -4.32,1.38 -8.81,-0.18 -1.24,-11.38 1.88,-10.4 1.06,-33.48 -0.41,-11.58 2.48,-0.69 0.53,-14.54 -0.86,-6.11 -0.89,-9.44 0.62,-14.89 -17.78,-27.53 -16.14,-13.57 -38.68,-32.16 -9.16,-7.55 -10.83,-7.57 -21.37,-12.4 4.13,-2.61 2.44,-1.53 5.98,-5.37z"/>
   <path class="fil3" d="M41.69 250.68c0.39,1.42 -0.02,2.48 -1.21,3.17 -0.73,0.43 -1.48,0.51 -2.24,0.26 -0.78,-0.26 -1.42,-0.83 -1.94,-1.72 -0.54,-0.94 -0.73,-1.81 -0.57,-2.62 0.15,-0.79 0.62,-1.42 1.4,-1.87 0.56,-0.33 1.09,-0.47 1.58,-0.42 0.55,0.05 1.08,0.32 1.59,0.83l-0.93 0.91c-0.24,-0.26 -0.51,-0.41 -0.81,-0.47 -0.3,-0.05 -0.6,0.01 -0.91,0.18 -0.42,0.25 -0.67,0.59 -0.73,1.02 -0.07,0.48 0.09,1.04 0.47,1.7 0.4,0.69 0.82,1.13 1.25,1.32 0.41,0.18 0.83,0.14 1.26,-0.1 0.3,-0.17 0.49,-0.41 0.58,-0.72 0.1,-0.33 0.08,-0.73 -0.07,-1.2l1.27 -0.27zm6.71 -1.37l-4.25 2.29 -3.13 -5.81 4.14 -2.23 0.57 1.06 -3.01 1.62 0.61 1.13 2.8 -1.51 0.57 1.06 -2.8 1.51 0.81 1.51 3.12 -1.68 0.57 1.06zm6.15 -2.82l-1.16 0.54 -4.12 -2.84 1.8 3.91 -1.08 0.5 -2.76 -6 1.13 -0.52 4.2 2.92 -1.84 -4 1.08 -0.5 2.76 6zm4.21 -7.41l-1.75 0.67 1.9 4.95 -1.2 0.46 -1.9 -4.95 -1.76 0.68 -0.47 -1.21 4.71 -1.81 0.47 1.21zm8.68 2.53l-1.45 0.5 -1.34 -1.05c-0.47,-0.37 -0.78,-0.6 -0.95,-0.69 -0.17,-0.09 -0.32,-0.14 -0.46,-0.14 -0.14,-0 -0.35,0.05 -0.63,0.14l-0.25 0.09 0.91 2.6 -1.21 0.42 -2.17 -6.24 2.83 -0.98c0.6,-0.21 1.14,-0.23 1.62,-0.06 0.51,0.18 0.86,0.54 1.06,1.09 0.17,0.48 0.17,0.9 0.01,1.29 -0.17,0.4 -0.49,0.73 -0.99,1 0.34,0.07 0.6,0.16 0.78,0.26 0.22,0.12 0.59,0.39 1.09,0.81l1.15 0.96zm-3.26 -3.81c-0.09,-0.25 -0.26,-0.4 -0.52,-0.46 -0.26,-0.06 -0.58,-0.03 -0.96,0.11l-1.23 0.43 0.55 1.58 1.26 -0.44c0.41,-0.14 0.68,-0.3 0.82,-0.49 0.15,-0.2 0.18,-0.44 0.07,-0.73zm9.82 1.96l-1.35 0.37 -0.89 -1.3 -2.27 0.63 -0.06 1.57 -1.31 0.36 0.54 -7 1.15 -0.32 4.19 5.69zm-2.96 -1.89l-1.4 -2.15 -0.1 2.56 1.5 -0.41zm7.83 0.68l-3.85 0.92 -1.54 -6.42 1.22 -0.29 1.24 5.16 2.63 -0.63 0.3 1.26zm8.8 -3.44c0.09,0.55 -0,1.02 -0.28,1.41 -0.32,0.44 -0.84,0.72 -1.57,0.85l-2.94 0.5 -1.1 -6.51 2.8 -0.47c0.56,-0.1 1.04,-0.05 1.45,0.14 0.46,0.22 0.74,0.61 0.83,1.16 0.05,0.3 0.02,0.59 -0.09,0.87 -0.11,0.28 -0.29,0.51 -0.55,0.69 0.4,0.05 0.72,0.2 0.97,0.43 0.25,0.24 0.41,0.55 0.48,0.94zm-2.01 -2.54c-0.04,-0.26 -0.15,-0.43 -0.32,-0.52 -0.18,-0.1 -0.46,-0.11 -0.84,-0.05l-1.28 0.22 0.26 1.51 1.25 -0.21c0.34,-0.06 0.59,-0.16 0.74,-0.3 0.17,-0.16 0.23,-0.37 0.19,-0.64zm0.69 2.7c-0.05,-0.3 -0.18,-0.5 -0.39,-0.61 -0.23,-0.12 -0.57,-0.14 -1.02,-0.06l-1.27 0.22 0.29 1.74 1.42 -0.24c0.34,-0.06 0.59,-0.16 0.76,-0.32 0.19,-0.18 0.26,-0.42 0.21,-0.72zm8.85 1l-1.39 0.14 -0.66 -1.44 -2.35 0.23 -0.32 1.53 -1.35 0.13 1.72 -6.8 1.18 -0.12 3.17 6.32zm-2.6 -2.37l-1.02 -2.35 -0.53 2.51 1.55 -0.15zm8.75 2.16l-1.28 0.04 -2.67 -4.23 0.12 4.3 -1.19 0.03 -0.18 -6.6 1.24 -0.03 2.71 4.34 -0.12 -4.41 1.19 -0.03 0.18 6.6zm7.47 0.02l-1.61 -0.01 -1.76 -2.93 -0.79 0.92 -0.02 1.99 -1.28 -0.01 0.05 -6.6 1.28 0.01 -0.02 2.71 2.39 -2.69 1.68 0.01 -2.37 2.6 2.44 4.01zm9.98 -2.27c-0.12,1.04 -0.5,1.83 -1.13,2.37 -0.63,0.54 -1.42,0.75 -2.36,0.64 -0.94,-0.11 -1.66,-0.5 -2.15,-1.15 -0.5,-0.67 -0.68,-1.52 -0.56,-2.56 0.13,-1.11 0.52,-1.92 1.15,-2.46 0.61,-0.51 1.39,-0.71 2.34,-0.6 0.94,0.11 1.66,0.5 2.14,1.16 0.5,0.68 0.68,1.54 0.56,2.6zm-1.32 -0.19c0.09,-0.72 -0.01,-1.3 -0.29,-1.73 -0.27,-0.41 -0.67,-0.65 -1.22,-0.71 -0.54,-0.06 -0.99,0.07 -1.35,0.4 -0.38,0.36 -0.62,0.9 -0.71,1.64 -0.09,0.72 0.02,1.3 0.31,1.74 0.28,0.42 0.68,0.66 1.21,0.73 0.53,0.06 0.98,-0.07 1.34,-0.41 0.39,-0.36 0.62,-0.91 0.71,-1.65zm7.9 -0.8l-3.14 -0.61 -0.27 1.36 2.72 0.53 -0.23 1.18 -2.72 -0.53 -0.54 2.75 -1.26 -0.25 1.27 -6.48 4.4 0.86 -0.23 1.18zm8 7.48l-1.24 -0.34 -1.32 -4.83 -1.14 4.15 -1.15 -0.32 1.76 -6.36 1.2 0.33 1.32 4.94 1.17 -4.25 1.15 0.32 -1.76 6.36zm3.07 0.9l-1.22 -0.39 2 -6.29 1.22 0.39 -2 6.29zm7.4 1.74c-0.35,0.17 -0.8,0.26 -1.33,0.28 -0.56,0.02 -1.09,-0.06 -1.56,-0.23 -0.91,-0.33 -1.55,-0.91 -1.91,-1.75 -0.35,-0.82 -0.36,-1.68 -0.03,-2.6 0.34,-0.93 0.85,-1.59 1.55,-1.99 0.76,-0.43 1.64,-0.46 2.64,-0.1 0.7,0.25 1.22,0.64 1.54,1.16 0.29,0.47 0.41,1 0.34,1.59l-1.28 -0.2c0.03,-0.34 -0.04,-0.64 -0.21,-0.89 -0.17,-0.26 -0.43,-0.45 -0.78,-0.58 -0.54,-0.2 -1.03,-0.18 -1.48,0.05 -0.47,0.24 -0.82,0.7 -1.07,1.36 -0.25,0.71 -0.29,1.32 -0.09,1.83 0.18,0.49 0.54,0.83 1.08,1.02 0.25,0.09 0.51,0.13 0.79,0.12 0.28,-0.01 0.55,-0.05 0.81,-0.14l0.28 -0.78 -1.38 -0.5 0.38 -1.05 2.59 0.94 -0.89 2.47zm5.77 3.53l-4.4 -1.98 2.71 -6.02 4.29 1.93 -0.5 1.1 -3.12 -1.41 -0.53 1.17 2.9 1.31 -0.49 1.09 -2.9 -1.31 -0.7 1.56 3.23 1.45 -0.49 1.09zm6.57 3.47l-1.34 -0.73 -0.12 -1.7c-0.04,-0.6 -0.08,-0.99 -0.12,-1.17 -0.04,-0.18 -0.11,-0.33 -0.21,-0.43 -0.09,-0.11 -0.27,-0.23 -0.53,-0.37l-0.23 -0.13 -1.32 2.42 -1.12 -0.62 3.17 -5.79 2.63 1.44c0.55,0.3 0.93,0.69 1.13,1.16 0.21,0.5 0.18,1 -0.1,1.51 -0.24,0.44 -0.56,0.73 -0.95,0.87 -0.41,0.15 -0.88,0.13 -1.4,-0.06 0.17,0.3 0.28,0.55 0.33,0.75 0.06,0.25 0.1,0.7 0.12,1.35l0.06 1.5zm0.63 -4.97c0.13,-0.23 0.12,-0.46 -0,-0.69 -0.13,-0.23 -0.37,-0.45 -0.73,-0.64l-1.14 -0.62 -0.81 1.47 1.17 0.64c0.38,0.21 0.68,0.3 0.91,0.28 0.25,-0.02 0.44,-0.17 0.59,-0.44zm1.62 6.21l-1.1 -0.66 3.39 -5.66 1.1 0.66 -3.39 5.66zm6.13 3.93l-1.17 -0.76 0.38 -1.53 -1.97 -1.29 -1.21 0.99 -1.13 -0.74 5.6 -4.23 1 0.65 -1.49 6.91zm-0.55 -3.47l0.68 -2.47 -1.99 1.62 1.31 0.85z"/>
   <path class="fil1" d="M101.31 100.74c-18.26,-21.31 -36.63,-47.73 -65.73,-31.12 -20.07,11.45 -29.03,37.1 -18.18,58.04 4.81,9.28 18.07,19.75 30.68,20.71 6.39,0.48 30.72,1.64 31.08,-7.13l-14.02 -13.22c-3.22,-1.23 -20.74,14.65 -35.53,-6.41 -10.46,-14.9 2.49,-38.09 18.14,-43.46 7.39,-2.53 20.38,2 23.71,11.98 4.56,13.64 -0.11,16.25 23.23,18.06 7.53,0.58 7.32,-2.73 6.61,-7.45z"/>
   <path class="fil0" d="M94.31 101.05c-1.65,-2.71 -23.57,-29.15 -35.59,-31.75 -3.94,-0.85 -10.36,-0.66 -13.99,1.15l-0.23 2.38c4.02,2.6 24.5,-5.15 33.75,18.68 3.26,8.41 -5.13,7.7 9.69,9.69 3.91,0.52 3.61,2.59 6.46,0.69l-0.08 -0.85z"/>
   <path class="fil1" d="M101.96 100.74c18.26,-21.31 36.63,-47.73 65.72,-31.12 20.07,11.45 29.03,37.1 18.18,58.04 -4.81,9.28 -18.07,19.75 -30.68,20.71 -6.39,0.48 -30.72,1.64 -31.08,-7.13l14.02 -13.22c3.22,-1.23 20.74,14.65 35.53,-6.41 10.46,-14.9 -2.49,-38.09 -18.14,-43.46 -7.39,-2.53 -20.38,2 -23.71,11.98 -4.56,13.64 0.11,16.25 -23.23,18.06 -7.53,0.58 -7.32,-2.73 -6.61,-7.45z"/>
   <path class="fil0" d="M111.23 101.05c1.65,-2.71 23.57,-29.15 35.59,-31.75 3.94,-0.85 10.36,-0.66 13.99,1.15l0.23 2.38c-4.02,2.6 -24.5,-5.15 -33.75,18.68 -3.26,8.41 5.13,7.7 -9.69,9.69 -3.91,0.52 -3.61,2.59 -6.46,0.69l0.08 -0.85z"/>
   <path class="fil1" d="M81.11 148.43c-10.86,17.07 -24.87,36.93 -14.25,57.91 3.91,7.72 16.2,14.62 27.87,15.09 13.05,0.53 26.24,2.16 38.47,-14.81 10.84,-15.06 5.56,-31.97 -3.16,-46.68 -2.44,-4.11 -5.41,-9.02 -10.11,-10.32 -0.32,0.4 -8.16,16.13 -4.14,19.94 8.59,8.12 15.28,16.27 6.74,30.68 -13.15,22.19 -60.34,5.98 -44.3,-20.22 8.01,-13.07 16.71,-1.13 6.74,-29.13 -0.91,-2.56 -2.16,-2.29 -3.86,-2.46z"/>
   <path class="fil0" d="M77.07 205.81c-2.27,-4.29 -10.64,-12.36 -4.21,-24.06 7.01,-12.74 7.12,-8.46 10.52,-12.36 2.31,-2.65 -0.66,-10.39 -1.97,-14.33l-1.45 0c-2.11,3.45 -11.73,27.5 -12.23,32.47 -0.62,6.21 2.68,18.03 6.7,19.59l2.5 0.26 0.13 -1.58z"/>
   <path class="fil0" d="M126.22 205.81c2.27,-4.29 10.64,-12.36 4.21,-24.06 -7.01,-12.74 -7.12,-8.46 -10.52,-12.36 -2.31,-2.65 0.66,-10.39 1.97,-14.33l1.45 0c2.11,3.45 11.73,27.5 12.23,32.47 0.61,6.21 -2.68,18.03 -6.71,19.59l-2.5 0.26 -0.13 -1.58z"/>
   <g>
    <g>
     <g>
      <path class="fil1" d="M113.95 67.31c-4.8,0.75 -6.16,-4.69 -5.54,-6.14 0.57,-1.33 1.14,-0.17 1.14,-3.86 -4.97,-4.33 -17.34,-4.69 -19.55,-23.73 -0.22,-2.82 0.26,-0.94 -1.19,-3.85 -4.03,-1.1 -4.97,1.35 -7.06,-1.14 -2.61,-3.12 -1.94,-2.82 -5.16,-2.66 -1.55,1.9 -1.41,1.36 -1.41,2.77 5.53,-0.48 6.92,1.38 5.7,8.09l2.06 -3.26c5.82,0 7.15,10.94 5.76,12.22l-1.74 0.65c-3.07,-2.65 -1.24,-3.16 -1.9,-6.9 -1.7,1.94 -0.84,9.92 -4.67,9.67 -1.22,-0.08 -1.55,-1.93 -1.74,-2.88l-0.54 -0.33c-3.39,4.29 -0.36,3.87 -5.38,5.81l-1.47 -0.92c0.17,-4.35 6.63,-10.28 6.19,-16.89 -4.1,-3.33 -3.28,3.76 -5.1,8.42 -1.46,3.73 -5.24,10.49 -9.39,11.67 -4.91,-3.27 1.18,-4.83 5.97,-15.75 1.16,-2.63 2.8,-2.85 0.54,-6.3 -3.68,2.65 -7.57,12.11 -9.94,15.64 -2.44,3.65 -0.19,-0.94 -1.95,3.58 -1.25,3.2 -3.87,8.97 -7.82,6.9 -1.29,-5.35 1.26,-5.29 7.33,-14.17 2.99,-4.38 3.86,-6.5 7.98,-11.51 -1.26,-1.04 -0.56,-0.78 -3.75,-0.6 -0.54,-2.17 0.34,-2.47 1.95,-3.58 0,-1.72 -0.7,-1.42 -2.72,-3.15l0.49 -1.63c2.81,-0.13 8.5,-2.97 9.56,-3.91 2.76,-2.46 -0.17,-2.2 5.27,-2.88 1.6,2.55 0.84,2.45 2.44,2.99 0.95,-2.58 0.92,-3.74 1.3,-6.57 -1.34,-0.18 -6.77,2.48 -8.09,3.15 -2.53,1.28 -4.38,5.2 -9.4,2.01 0.3,-2.72 1.36,-2.02 3.26,-3.1 1.24,-0.7 0.81,-0.77 2.39,-1.19 3.51,-0.95 14.14,-10.61 17.1,-3.75 0.85,1.96 -0.72,11.16 2.44,14.72 0.95,1.07 2.97,1.67 3.26,1.85l2.06 2.12c0.85,0.4 3.95,-0.22 4.78,-0.71 5.2,-4 5.37,-14.96 0.16,-18.79 -0.92,-0.52 -1.91,-0.23 -2.33,-1.58 -1.28,-4.08 8,-8.28 13.25,-3.2 3.05,2.95 1.46,14.06 2.71,18.52 1.17,4.15 2.06,2.47 3.91,4.45 3.02,3.24 6.33,-0.19 6.46,-0.71 1.84,-7.36 -2.88,-19.42 6.79,-19.93 3.97,-0.21 10.41,5.56 14.28,8.47l-0.43 1.68c-3.92,1.18 -5.79,-3.54 -10.86,-4.4 -5.91,-0.99 -4.24,4.59 -3.8,5.38 2.38,-0.36 4.64,-4.12 15.64,5l1.14 1.14c-0.5,1.36 -1.75,1.42 -3.04,1.74 -1.08,2.17 1.47,3.14 3.91,4.67l-0.27 1.68c-3.75,2.64 -3.98,-2.82 -7.11,-2.82l-0.11 1.03 0.82 0.65 0 1.52 -1.79 0.38 -0.98 -1.58 -1.09 0.16c-0.85,1.83 -2.37,1.81 -4.13,1.25 -1.63,-4.43 -1.54,-2.63 -0.98,-6.03 0.23,-1.4 -0.17,-2.82 -1.79,-2.82 -2.39,8.37 -2.85,9.85 -9.45,10.64 -3.09,0.37 -3.76,-3.12 -7.93,-6.19l-1.57 0.43c-0.58,1.46 -0.21,1.76 0,4.29 5.17,3.64 5.29,5.97 14.82,3.69 2.11,-0.74 1.61,-1.38 5.21,-1.25 1.33,2.83 5.15,12.54 4.56,14.61l-0.54 1.41 -0.87 0.33c-4.29,-2.38 -2.57,-4.82 -3.96,-8.14 -0.83,-1.98 -0.81,0.27 -0.81,-3.75 -1.41,-0.06 -1.24,-0.09 -2.44,0.65 0.53,2.51 0.67,3.14 -0.27,4.83l-2.61 0.16c-0.83,-2.37 0.44,-2.75 -1.74,-3.96l-0.65 2.39 -0.92 0.16 -2.5 -2.55 -0.27 0.6c0.39,0.69 4.48,5.12 -0.81,7.17 -1.47,0.57 -0.63,-1.25 -3.75,-1.25 -0.54,1.61 1.86,7.3 2.44,8.42 0.98,-0.55 1.25,-0.59 1.85,-1.52 1.16,0.14 1.1,0.27 1.96,1.09 0.05,3.17 0.83,10.28 -3.58,10.97zm-12.41 -62.51c0.82,0 1.48,0.66 1.48,1.48 0,0.82 -0.66,1.48 -1.48,1.48 -0.82,0 -1.48,-0.66 -1.48,-1.48 0,-0.81 0.66,-1.48 1.48,-1.48z"/>
      <path class="fil1" d="M139.36 35.89c-0.75,2.61 1.59,0.84 1.56,6.45 -0.01,2.48 0.96,2.51 1.98,5.32 1.25,3.43 3.01,4.99 6.2,6.62l1.6 1.1c0.81,0.7 0.69,0.14 1.77,1.65 0.27,0.37 0.49,0.89 1.52,1.1l1.73 -0.38c0.14,-2.56 0.33,-2.16 -1.77,-3.8 -2.67,-2.09 -0.51,-1.77 -4.09,-7.34l-5.32 -7.85c-1.05,-1.35 -0.88,-0.62 -1.43,-2.07 -0.31,-0.82 -0.43,-1.32 -1.31,-1.73l-2.24 -0.21 -0.21 1.14z"/>
      <path class="fil1" d="M143.16 55.34c2.13,-3.09 -0.56,-3.58 -3.29,-10.13 -1.4,-3.35 -3.25,-9.11 -5.74,-9.58l-1.18 -0.04c-3.09,4.63 2.09,8.3 3.25,12.28 0.67,2.32 2.87,8.33 5.99,7.81l0.97 -0.34z"/>
     </g>
     <path class="fil1" d="M93.39 63.92c0,-3.67 0.86,-7.12 3.95,-9.25 8.58,4.29 6.35,2.96 6.11,10.54 -0.23,7.28 -9.4,5.78 -10.06,-1.3z"/>
    </g>
    <g>
     <path class="fil1" d="M101.24 76.67c-0.09,-2.07 1,-1.15 2.37,-4.63 2.56,-0.6 3.46,0.73 3.63,3.27 0.15,2.37 -3.33,6.34 -5.67,2.98 -0.51,-0.74 -0.4,-1.13 -0.32,-1.62z"/>
     <path class="fil1" d="M110.36 82.3c7.67,0.53 2.54,-4.44 2.44,-4.88 -0.38,-1.66 1.57,-5.75 -2.87,-4.74 -0.71,1.21 -1.39,0.89 -0.39,3.7 -1.25,1.87 -3.79,4.11 0.83,5.93z"/>
     <path class="fil1" d="M126.74 60.94l2.97 2.31c0,4.11 -2.48,2.19 -3.95,2.31 -0.7,1.22 -0.55,1.51 -2.36,1.8 -3.97,0.62 -2.44,-4.83 -1.49,-5.18l2.57 0.41c0.29,-1.62 0.41,-1.48 1.69,-2l0.56 0.36z"/>
     <path class="fil1" d="M93.8 79.43c1.17,-1.02 2.44,-0.84 2.26,-2.55 -0.14,-1.43 -0.49,-0.78 -0.14,-2.44 1.18,-0.76 0.79,-0.8 2.87,-0.22 1.07,2.25 1.24,6.86 -1.87,7.54l-4.06 -0.47 -0.36 -0.79 0.32 -0.72 0.97 -0.36z"/>
    </g>
   </g>
  </g>
 </g>
</svg>
