<?xml version="1.0" encoding="UTF-8"?>
<!DOCTYPE svg PUBLIC "-//W3C//DTD SVG 1.1//EN" "http://www.w3.org/Graphics/SVG/1.1/DTD/svg11.dtd">
<!-- Creator: CorelDRAW -->
<svg xmlns="http://www.w3.org/2000/svg" xml:space="preserve" width="1.20175in" height="1.19712in" version="1.1" style="shape-rendering:geometricPrecision; text-rendering:geometricPrecision; image-rendering:optimizeQuality; fill-rule:evenodd; clip-rule:evenodd"
viewBox="0 0 169.98 169.32"
 xmlns:xlink="http://www.w3.org/1999/xlink"
 xmlns:xodm="http://www.corel.com/coreldraw/odm/2003">
 <defs>
  <style type="text/css">
   <![CDATA[
    .fil0 {fill:#303030}
   ]]>
  </style>
 </defs>
 <g id="Layer_x0020_1">
  <metadata id="CorelCorpID_0Corel-Layer"/>
  <g id="_2406541319120">
   <polygon class="fil0" points="33.23,19.85 46.2,19.85 46.2,147.9 33.23,147.9 "/>
   <polygon class="fil0" points="61.22,7.75 74.2,7.75 74.2,159.31 61.22,159.31 "/>
   <polygon class="fil0" points="95.58,7.98 108.55,7.98 108.55,160.23 95.58,160.23 "/>
   <polygon class="fil0" points="74.44,122.02 74.44,109.04 95.58,109.04 95.58,122.02 "/>
   <polygon class="fil0" points="123.57,20.32 136.54,20.32 136.54,146.35 123.57,146.35 "/>
   <path class="fil0" d="M84.99 0c46.94,0 84.99,38.05 84.99,84.99 0,21.12 -7.71,40.44 -20.46,55.3l0 -22.04c5.15,-9.96 8.05,-21.27 8.05,-33.26 0,-40.09 -32.5,-72.58 -72.58,-72.58 -40.09,0 -72.58,32.5 -72.58,72.58 0,11.83 2.83,23 7.85,32.87l0 22.2c-12.63,-14.83 -20.26,-34.06 -20.26,-55.07 0,-46.94 38.05,-84.99 84.99,-84.99z"/>
   <path class="fil0" d="M33.23 135.87c3.9,3.97 8.25,7.49 12.97,10.48l0 14.28c-4.58,-2.35 -8.92,-5.11 -12.97,-8.23l0 -16.53zm27.99 17.72c4.17,1.44 8.5,2.52 12.97,3.18l0 12.52c-4.44,-0.56 -8.77,-1.47 -12.97,-2.69l0 -13.02zm34.35 3.21c4.47,-0.65 8.81,-1.72 12.97,-3.14l0 13c-4.2,1.21 -8.53,2.11 -12.97,2.66l0 -12.52zm27.99 -10.33c4.72,-2.97 9.07,-6.46 12.97,-10.4l0 16.48c-4.05,3.1 -8.39,5.84 -12.97,8.18l0 -14.25z"/>
  </g>
 </g>
</svg>
