<?xml version="1.0" encoding="UTF-8"?>
<!DOCTYPE svg PUBLIC "-//W3C//DTD SVG 1.1//EN" "http://www.w3.org/Graphics/SVG/1.1/DTD/svg11.dtd">
<!-- Creator: CorelDRAW -->
<svg xmlns="http://www.w3.org/2000/svg" xml:space="preserve" width="1.88048in" height="0.58674in" version="1.1" style="shape-rendering:geometricPrecision; text-rendering:geometricPrecision; image-rendering:optimizeQuality; fill-rule:evenodd; clip-rule:evenodd"
viewBox="0 0 2577.66 804.27"
 xmlns:xlink="http://www.w3.org/1999/xlink"
 xmlns:xodm="http://www.corel.com/coreldraw/odm/2003">
 <defs>
  <style type="text/css">
   <![CDATA[
    .fil0 {fill:#303030}
   ]]>
  </style>
 </defs>
 <g id="Layer_x0020_1">
  <metadata id="CorelCorpID_0Corel-Layer"/>
  <g id="_2445591340496">
   <path class="fil0" d="M214.56 621.34l207.16 1.02 0.02 -277.46c0.79,0.39 1.75,0.29 2.07,1.33l28.26 32.17c37.52,44.87 171.16,203.95 200.49,243.83l186.73 0.22 0.01 -608.94 -206.66 0.08 -0.48 265.99c-9.13,-5.07 -100.8,-119.63 -110.8,-131.36l-111.04 -133.38 -195.57 -1.24 -0.18 607.75z"/>
   <path class="fil0" d="M1158.74 191.08c86.15,0.02 191.12,5.35 190.85,127.97 -0.26,117.51 -103.08,127.02 -191.68,125.63l0.83 -253.6zm-209.72 430.94c71.75,4.02 154.84,0.53 227.79,0.41 72.33,-0.12 133.49,-8.48 196.29,-32.02 103.92,-38.94 186.03,-129.62 187.2,-271.32 1.95,-237.3 -186.67,-305.47 -380.81,-305.51 -75.44,-0.02 -155.1,-2.46 -230.03,0.22l-0.45 608.22z"/>
   <path class="fil0" d="M2577.66 471.97l-9.63 -6.9c-3.65,-2.17 -6.48,-3.62 -10.33,-5.81l-105.48 -58.15c-13.76,-7.54 -30.45,-18.04 -43.95,-23.67l-12.18 15.34c-68.83,103.37 -219.53,70.13 -223.89,-68.27 -2.12,-67.4 31.47,-120.7 83.57,-136.49 59.56,-18.05 109.7,10.55 139.82,57.72 1.05,1.65 2.06,3.34 3.29,5.04 4.44,6.14 0.96,1.59 4.03,5.01 11.52,-3.75 69.6,-38.99 85.05,-47.44 14.84,-8.12 76.79,-41.96 85.15,-50.26 -19.95,-50.26 -86.99,-106.78 -141.82,-130.38 -199.65,-85.91 -472.8,32.42 -471.73,294.03 1.24,300.88 366.8,404.4 558.95,228.31 13.26,-12.15 50.26,-56.44 59.16,-78.07z"/>
   <polygon class="fil0" points="1654.69,622.18 1863.65,622.43 1863.75,13.63 1655.02,13.57 "/>
   <polygon class="fil0" points="0.07,803.57 62.56,804.28 62.74,16.39 -0,16.28 "/>
  </g>
 </g>
</svg>
