<?xml version="1.0" encoding="UTF-8"?>
<!DOCTYPE svg PUBLIC "-//W3C//DTD SVG 1.1//EN" "http://www.w3.org/Graphics/SVG/1.1/DTD/svg11.dtd">
<!-- Creator: CorelDRAW -->
<svg xmlns="http://www.w3.org/2000/svg" xml:space="preserve" width="1.2199in" height="1.2199in" version="1.1" style="shape-rendering:geometricPrecision; text-rendering:geometricPrecision; image-rendering:optimizeQuality; fill-rule:evenodd; clip-rule:evenodd"
viewBox="0 0 77.95 77.95"
 xmlns:xlink="http://www.w3.org/1999/xlink"
 xmlns:xodm="http://www.corel.com/coreldraw/odm/2003">
 <defs>
  <style type="text/css">
   <![CDATA[
    .fil0 {fill:#303030}
   ]]>
  </style>
 </defs>
 <g id="Layer_x0020_1">
  <metadata id="CorelCorpID_0Corel-Layer"/>
  <g id="_2442664711936">
   <g>
    <polygon class="fil0" points="25.09,4.4 29.43,0.07 77.88,48.53 73.55,52.86 "/>
    <polygon class="fil0" points="18.84,10.66 23.17,6.33 71.63,54.78 67.29,59.11 "/>
    <polygon class="fil0" points="12.58,16.91 16.91,12.58 65.37,61.04 61.04,65.37 "/>
    <polygon class="fil0" points="6.33,23.17 10.66,18.84 59.11,67.29 54.78,71.63 "/>
    <polygon class="fil0" points="0.07,29.43 4.4,25.09 52.86,73.55 48.53,77.88 "/>
   </g>
   <g>
    <polygon class="fil0" points="46.76,0 51.09,4.33 44.22,11.19 39.89,6.86 "/>
    <polygon class="fil0" points="53.47,6.72 57.8,11.05 50.94,17.91 46.61,13.58 "/>
    <polygon class="fil0" points="60.19,13.43 64.52,17.76 57.66,24.63 53.33,20.3 "/>
    <polygon class="fil0" points="66.9,20.15 71.24,24.48 64.37,31.34 60.04,27.01 "/>
    <polygon class="fil0" points="73.62,26.86 77.95,31.2 71.09,38.06 66.76,33.73 "/>
   </g>
   <g>
    <polygon class="fil0" points="6.86,39.89 11.19,44.22 4.33,51.09 0,46.76 "/>
    <polygon class="fil0" points="13.58,46.61 17.91,50.94 11.05,57.8 6.72,53.47 "/>
    <polygon class="fil0" points="20.3,53.32 24.63,57.66 17.76,64.52 13.43,60.19 "/>
    <polygon class="fil0" points="27.01,60.04 31.34,64.37 24.48,71.24 20.15,66.9 "/>
    <polygon class="fil0" points="33.73,66.76 38.06,71.09 31.2,77.95 26.86,73.62 "/>
   </g>
  </g>
 </g>
</svg>
