<?xml version="1.0" encoding="UTF-8"?>
<!DOCTYPE svg PUBLIC "-//W3C//DTD SVG 1.1//EN" "http://www.w3.org/Graphics/SVG/1.1/DTD/svg11.dtd">
<!-- Creator: CorelDRAW -->
<svg xmlns="http://www.w3.org/2000/svg" xml:space="preserve" width="2.26231in" height="0.942957in" version="1.1" style="shape-rendering:geometricPrecision; text-rendering:geometricPrecision; image-rendering:optimizeQuality; fill-rule:evenodd; clip-rule:evenodd"
viewBox="0 0 680.29 283.55"
 xmlns:xlink="http://www.w3.org/1999/xlink"
 xmlns:xodm="http://www.corel.com/coreldraw/odm/2003">
 <defs>
  <style type="text/css">
   <![CDATA[
    .fil0 {fill:#303030}
   ]]>
  </style>
 </defs>
 <g id="Layer_x0020_1">
  <metadata id="CorelCorpID_0Corel-Layer"/>
  <g id="_2445591329072">
   <polygon class="fil0" points="641.47,158.96 641.47,190.11 331.85,190.11 331.85,158.96 "/>
   <polygon class="fil0" points="155.13,158.96 155.13,190.11 13.13,190.11 13.13,158.96 "/>
   <polygon class="fil0" points="165.92,158.96 165.92,190.11 307.92,190.11 307.92,158.96 "/>
   <path class="fil0" d="M-0 158.96l31.15 0 0 31.15 -31.15 0 0 -31.15zm31.15 41.5l0 83.09 -31.15 0 0 -83.09 31.15 0z"/>
   <path class="fil0" d="M123.98 158.96l31.15 0 0 31.15 -31.15 0 0 -31.15zm31.15 41.5l0 83.09 -31.15 0 0 -83.09 31.15 0z"/>
   <path class="fil0" d="M197.07 158.96l-31.15 0 0 31.15 31.15 0 0 -31.15zm-31.15 41.5l0 83.09 31.15 0 0 -83.09 -31.15 0z"/>
   <polygon class="fil0" points="289.9,200.46 289.9,283.55 321.05,283.55 321.05,200.46 "/>
   <polygon class="fil0" points="321.05,158.96 289.9,158.96 289.9,190.11 321.05,190.11 "/>
   <polygon class="fil0" points="362.99,200.46 362.99,283.55 331.85,283.55 331.85,200.46 "/>
   <polygon class="fil0" points="455.83,221.56 455.83,252.71 344.98,252.71 344.98,221.56 "/>
   <path class="fil0" d="M505.04 61.37c0.36,-7.01 2.13,-13.65 5.02,-19.65 8.61,16.38 22.78,28.13 44.54,25.62 4.71,9.07 7.12,12.92 6.49,22.63 -20.18,-2.15 -45.28,-9.63 -56.05,-28.6z"/>
   <path class="fil0" d="M554.79 115.63c-23.38,-0.79 -42.82,-17.14 -48.28,-39.02 14.67,12.84 34.55,22.47 54.48,21.08 -0.33,8.28 -2.56,13.08 -6.2,17.95z"/>
   <path class="fil0" d="M581.73 109.11c-4.94,2.77 -10.38,4.75 -16.15,5.77 5.22,-14.9 6.52,-36.48 -3.17,-49.86 4.06,-7.18 9.04,-12.69 16.03,-17.25 8.24,18.27 14.82,42.76 3.29,61.34z"/>
   <path class="fil0" d="M601.92 39.54c3.96,7.3 6.21,15.66 6.21,24.55 0,13.03 -4.83,24.93 -12.8,34.01 2.42,-17.51 0.92,-38.56 -9.27,-53.58 4.29,-3.94 9.67,-4.43 15.87,-4.98z"/>
   <path class="fil0" d="M581.91 19.17c4.96,2.81 9.4,6.41 13.17,10.63 -14.07,9.07 -22.49,4.7 -40.28,29.32 -8.68,0.9 -13.86,-0.72 -21.21,-5.17 18.73,-27.83 31.11,-28.16 48.32,-34.78z"/>
   <path class="fil0" d="M556.55 12.51c3.73,0 7.37,0.4 10.88,1.15 -15.63,8.04 -34.37,22.13 -40.94,36.13 -7.62,-4.69 -7.57,-7.52 -12.95,-14.18 9.24,-13.92 25.05,-23.1 43.01,-23.1z"/>
   <g>
    <path class="fil0" d="M522.86 111.96c-46.51,-28.54 -23.5,-103.62 -80.3,-111.72 -3.03,-0.43 -6.2,-0.3 -9.13,0.48l-0.56 1.36c4.55,4.18 38.89,-0.55 47.48,65.81 5.64,43.58 33.59,47.44 47.6,59.8 -1.78,-5.19 -3.44,-10.67 -5.09,-15.73z"/>
    <path class="fil0" d="M590.3 111.96c46.51,-28.54 23.5,-103.62 80.3,-111.72 3.03,-0.43 6.2,-0.3 9.13,0.48l0.56 1.36c-4.55,4.18 -38.89,-0.55 -47.47,65.81 -5.64,43.58 -33.59,47.44 -47.6,59.8 1.78,-5.19 3.44,-10.67 5.09,-15.73z"/>
   </g>
  </g>
 </g>
</svg>
