<?xml version="1.0" encoding="UTF-8"?>
<!DOCTYPE svg PUBLIC "-//W3C//DTD SVG 1.1//EN" "http://www.w3.org/Graphics/SVG/1.1/DTD/svg11.dtd">
<!-- Creator: CorelDRAW -->
<svg xmlns="http://www.w3.org/2000/svg" xml:space="preserve" width="2.10927in" height="1.01376in" version="1.1" style="shape-rendering:geometricPrecision; text-rendering:geometricPrecision; image-rendering:optimizeQuality; fill-rule:evenodd; clip-rule:evenodd"
viewBox="0 0 222.67 107.02"
 xmlns:xlink="http://www.w3.org/1999/xlink"
 xmlns:xodm="http://www.corel.com/coreldraw/odm/2003">
 <defs>
  <style type="text/css">
   <![CDATA[
    .fil0 {fill:#303030;fill-rule:nonzero}
   ]]>
  </style>
 </defs>
 <g id="Layer_x0020_1">
  <metadata id="CorelCorpID_0Corel-Layer"/>
  <g id="_2446157423232">
   <path class="fil0" d="M0 20.65c0,-0.43 0.21,-0.64 0.62,-0.64l15.48 0c0.41,0 0.62,0.21 0.62,0.64l0 3.61c0,0.43 -0.21,0.64 -0.62,0.64l-5.05 0 0 15.68c0,0.02 0,0.04 0,0.07 0,0.32 -0.26,0.57 -0.57,0.57 -0.02,0 -0.04,-0 -0.07,-0l-4.11 0c-0.02,0 -0.04,0 -0.07,0 -0.31,0 -0.55,-0.25 -0.55,-0.55 0,-0.03 0,-0.06 0.01,-0.09l-0 -15.83 -5.07 0c-0.41,0 -0.62,-0.21 -0.62,-0.64l0 -3.47z"/>
   <path class="fil0" d="M24.49 20.65c0,-0.43 0.21,-0.64 0.62,-0.64l4.27 0c0.41,0 0.62,0.21 0.62,0.64l0 19.93c0,0.03 0.01,0.06 0.01,0.09 0,0.31 -0.25,0.55 -0.55,0.55 -0.02,0 -0.05,-0 -0.07,-0l-4.27 0c-0.02,0 -0.04,0 -0.07,0 -0.31,0 -0.55,-0.25 -0.55,-0.55 0,-0.03 0,-0.06 0.01,-0.09l-0 -19.93z"/>
   <path class="fil0" d="M37.75 20.65c0,-0.43 0.21,-0.64 0.62,-0.64l15.5 0c0.41,0 0.62,0.21 0.62,0.64l0 3.61c0,0.43 -0.21,0.64 -0.62,0.64l-5.07 0 0 15.68c0,0.02 0,0.04 0,0.07 0,0.32 -0.26,0.57 -0.58,0.57 -0.02,0 -0.04,-0 -0.06,-0l-4.11 0c-0.02,0 -0.05,0 -0.07,0 -0.31,0 -0.55,-0.25 -0.55,-0.55 0,-0.03 0,-0.06 0.01,-0.09l-0 -15.83 -5.07 0c-0.41,0 -0.62,-0.21 -0.62,-0.64l0 -3.47z"/>
   <path class="fil0" d="M64.71 20.65c0.1,-0.38 0.44,-0.64 0.83,-0.64 0.01,0 0.02,0 0.03,0l3.51 0c0.4,0 0.75,0.26 0.86,0.64l7.74 19.87c0.16,0.41 0,0.64 -0.39,0.64l-4.23 0c-0.01,0 -0.02,0 -0.02,0 -0.39,0 -0.72,-0.26 -0.82,-0.64l-0.99 -2.79 -7.8 -0 -0.97 2.79c-0.1,0.38 -0.44,0.64 -0.83,0.64 -0.01,0 -0.02,0 -0.03,-0l-4.25 0c-0.43,0 -0.55,-0.23 -0.41,-0.64l7.76 -19.87zm2.59 6.16l-2.26 6.49 4.56 -0 -2.3 -6.49z"/>
   <path class="fil0" d="M90.1 28.17l0 12.32c0,0.41 -0.25,0.64 -0.7,0.64l-3.98 0c-0.02,0 -0.04,0 -0.06,0 -0.32,0 -0.57,-0.26 -0.57,-0.57 0,-0.02 0,-0.04 0,-0.07l-0 -19.83c0,-0.17 0.06,-0.32 0.17,-0.45 0.1,-0.12 0.26,-0.19 0.41,-0.19 0.02,0 0.04,0 0.06,0l4.58 0c0.2,0 0.39,0.06 0.56,0.16 0.18,0.13 0.33,0.29 0.45,0.47l7.2 11.5 0 -11.5c0,-0.17 0.06,-0.32 0.17,-0.45 0.12,-0.12 0.28,-0.19 0.44,-0.19 0.02,0 0.03,0 0.05,0l3.96 0c0.16,0.01 0.32,0.07 0.45,0.16 0.15,0.11 0.25,0.28 0.25,0.47 0,0 0,0 0,0l0 19.93c0,0.41 -0.23,0.64 -0.7,0.64l-4.11 0c-0.43,-0.01 -0.82,-0.26 -1.03,-0.64l-7.6 -12.42z"/>
   <path class="fil0" d="M0 47.15c0,-0.43 0.21,-0.64 0.62,-0.64l15.48 0c0.41,0 0.62,0.21 0.62,0.64l0 3.61c0,0.43 -0.21,0.64 -0.62,0.64l-5.05 0 0 15.68c0.01,0.03 0.01,0.06 0.01,0.09 0,0.31 -0.25,0.55 -0.55,0.55 -0.03,0 -0.06,-0 -0.09,-0.01l-4.11 0c-0.41,0 -0.62,-0.21 -0.62,-0.64l0 -15.64 -5.07 0c-0.41,0 -0.62,-0.21 -0.62,-0.64l0 -3.65z"/>
   <path class="fil0" d="M23.3 47.15c0,-0.01 0,-0.02 0,-0.03 0,-0.15 0.05,-0.29 0.14,-0.4 0.1,-0.13 0.25,-0.21 0.41,-0.21 0.02,0 0.04,0 0.06,0l9.46 0c0.02,-0 0.04,-0 0.07,-0 0.93,0 1.85,0.21 2.69,0.62 0.78,0.39 1.48,0.94 2.05,1.6 0.6,0.67 1.08,1.44 1.4,2.28 0.31,0.84 0.47,1.73 0.47,2.63 -0,0.57 -0.09,1.14 -0.25,1.68 -0.17,0.56 -0.41,1.09 -0.72,1.58 -0.3,0.52 -0.67,0.99 -1.09,1.42 -0.42,0.44 -0.89,0.83 -1.42,1.15l4.11 7.62c0.03,0.07 0.05,0.14 0.05,0.22 0,0.08 -0.02,0.15 -0.05,0.22 -0.07,0.13 -0.21,0.21 -0.36,0.21 -0.01,0 -0.02,-0 -0.03,-0l-5.05 0c-0.02,0 -0.03,0 -0.05,0 -0.14,0 -0.27,-0.04 -0.38,-0.12 -0.14,-0.14 -0.25,-0.3 -0.33,-0.47l-3.39 -6.47 -2.3 0 0 6.43c0.01,0.03 0.01,0.06 0.01,0.09 0,0.31 -0.25,0.55 -0.55,0.55 -0.03,0 -0.06,-0 -0.09,-0.01l-4.25 0c-0.41,0 -0.62,-0.21 -0.62,-0.64l0 -19.93zm5.5 3.78l0 5.17 3.16 0c0,-0 0,-0 0.01,-0 0.35,0 0.7,-0.08 1.02,-0.23 0.31,-0.13 0.59,-0.33 0.82,-0.57 0.21,-0.25 0.39,-0.52 0.51,-0.82 0.12,-0.3 0.18,-0.62 0.18,-0.94 0,-0.32 -0.06,-0.64 -0.18,-0.94 -0.13,-0.3 -0.31,-0.58 -0.53,-0.82 -0.23,-0.25 -0.5,-0.46 -0.8,-0.61 -0.32,-0.15 -0.67,-0.23 -1.02,-0.23 -0,0 -0,0 -0,0l-3.16 0z"/>
   <path class="fil0" d="M51.92 59.27c0,0.02 0,0.05 0,0.07 0,0.58 0.1,1.16 0.29,1.72 0.17,0.45 0.44,0.85 0.78,1.19 0.32,0.3 0.7,0.53 1.11,0.68 0.42,0.15 0.87,0.22 1.31,0.23 0.02,0 0.04,0 0.06,0 0.44,0 0.89,-0.09 1.29,-0.27 0.43,-0.16 0.81,-0.41 1.13,-0.74 0.32,-0.35 0.58,-0.76 0.76,-1.21 0.18,-0.49 0.27,-1.02 0.27,-1.54 0,-0.04 -0,-0.08 -0,-0.12l0 -12.11c0,-0.17 0.07,-0.33 0.18,-0.45 0.12,-0.12 0.29,-0.19 0.46,-0.19 0.01,0 0.01,0 0.02,0l4.1 0c0.02,-0 0.04,-0 0.05,-0 0.17,0 0.34,0.07 0.46,0.19 0.11,0.12 0.18,0.28 0.18,0.45l0 12.03c0,0.08 0,0.16 0,0.23 0,1.32 -0.25,2.64 -0.74,3.87 -0.46,1.06 -1.16,2 -2.05,2.73 -0.84,0.7 -1.82,1.21 -2.87,1.5 -1.13,0.3 -2.29,0.45 -3.45,0.45 -0,0 -0.01,0 -0.02,0 -1.15,0 -2.3,-0.16 -3.41,-0.47 -1.05,-0.28 -2.04,-0.8 -2.87,-1.5 -0.89,-0.74 -1.59,-1.69 -2.05,-2.75 -0.49,-1.22 -0.74,-2.52 -0.74,-3.83 0,-0.09 0,-0.18 0,-0.27l-0 -11.99c0,-0 0,-0.01 0,-0.01 0,-0.16 0.05,-0.31 0.14,-0.44 0.1,-0.12 0.25,-0.18 0.41,-0.18l4.37 0c0.03,-0 0.05,-0.01 0.08,-0.01 0.16,0 0.31,0.07 0.42,0.19 0.02,0.07 0.03,0.15 0.03,0.23 0,0.08 -0.01,0.15 -0.03,0.23l0.33 12.11z"/>
   <path class="fil0" d="M70.86 64.07c-0.07,-0.09 -0.13,-0.2 -0.16,-0.31 -0.01,-0.05 -0.02,-0.1 -0.02,-0.15 0,-0.05 0.01,-0.1 0.02,-0.15 0.04,-0.14 0.12,-0.26 0.23,-0.35l2.46 -2.34c0.11,-0.13 0.27,-0.2 0.43,-0.21 0.05,-0.01 0.11,-0.02 0.16,-0.02 0.06,0 0.11,0.01 0.16,0.02 0.12,0.07 0.24,0.15 0.35,0.25l0.88 0.72c0.34,0.26 0.7,0.5 1.07,0.72 0.38,0.22 0.78,0.41 1.19,0.55 0.39,0.15 0.8,0.23 1.22,0.23 0.02,0 0.04,-0 0.05,-0 0.05,0 0.1,0 0.16,0 0.35,0 0.7,-0.06 1.03,-0.17 0.28,-0.08 0.53,-0.23 0.74,-0.43 0.18,-0.18 0.31,-0.4 0.37,-0.64 0.02,-0.13 0.02,-0.25 0.02,-0.38 0,-0.13 -0.01,-0.25 -0.02,-0.38 -0,-0.3 -0.11,-0.58 -0.31,-0.8 -0.22,-0.24 -0.49,-0.44 -0.78,-0.6 -0.3,-0.18 -0.63,-0.34 -0.97,-0.45 -0.33,-0.14 -0.64,-0.25 -0.88,-0.33 -1,-0.35 -1.97,-0.77 -2.91,-1.25 -0.8,-0.41 -1.55,-0.94 -2.2,-1.56 -0.56,-0.53 -1.02,-1.16 -1.33,-1.87 -0.3,-0.68 -0.45,-1.42 -0.45,-2.17 0,-0.03 0,-0.07 0,-0.11 -0,-0.02 -0,-0.05 -0,-0.07 0,-0.81 0.19,-1.61 0.55,-2.33 0.39,-0.72 0.93,-1.35 1.58,-1.85 0.74,-0.54 1.57,-0.94 2.44,-1.19 0.98,-0.28 2,-0.43 3.02,-0.43 0.04,0 0.08,0 0.12,0 0.69,0 1.38,0.07 2.05,0.2 0.64,0.14 1.28,0.33 1.89,0.57 0.6,0.24 1.18,0.54 1.72,0.88 0.49,0.32 0.94,0.7 1.33,1.13 0.18,0.17 0.3,0.41 0.31,0.66 -0.03,0.25 -0.15,0.48 -0.35,0.64l-2.22 2.38c-0.12,0.13 -0.29,0.21 -0.47,0.23 -0.13,-0 -0.26,-0.05 -0.37,-0.12 -0.13,-0.07 -0.26,-0.16 -0.37,-0.27 -0.47,-0.45 -1.02,-0.82 -1.6,-1.11 -0.54,-0.27 -1.14,-0.41 -1.75,-0.41 -0.04,0 -0.08,0 -0.12,0 -0.13,-0.01 -0.27,-0.01 -0.4,-0.01 -0.13,0 -0.27,0.01 -0.4,0.02 -0.25,0.04 -0.49,0.11 -0.72,0.22 -0.21,0.1 -0.38,0.26 -0.51,0.45 -0.14,0.2 -0.21,0.44 -0.21,0.69 0,0.25 0.07,0.49 0.21,0.69 0.14,0.25 0.33,0.47 0.55,0.64 0.34,0.19 0.7,0.35 1.07,0.47l1.38 0.49c0.94,0.3 1.87,0.65 2.77,1.05 0.78,0.33 1.5,0.77 2.16,1.29 0.59,0.49 1.07,1.11 1.4,1.81 0.34,0.73 0.52,1.52 0.52,2.32 0,0.07 -0,0.13 -0,0.2 0,0.03 0,0.06 0,0.08 0,0.95 -0.21,1.89 -0.62,2.75 -0.4,0.85 -0.99,1.59 -1.72,2.18 -0.76,0.62 -1.63,1.09 -2.57,1.4 -1.02,0.33 -2.08,0.49 -3.14,0.49 -0.03,0 -0.07,0 -0.1,0 -0.74,-0 -1.48,-0.1 -2.2,-0.29 -0.71,-0.2 -1.4,-0.46 -2.05,-0.78 -0.66,-0.32 -1.3,-0.71 -1.89,-1.15 -0.57,-0.42 -1.11,-0.88 -1.6,-1.4 -0.08,-0.11 -0.15,-0.22 -0.21,-0.35l-0 0z"/>
   <path class="fil0" d="M92.38 47.15c-0,-0.03 -0.01,-0.06 -0.01,-0.09 0,-0.31 0.25,-0.55 0.55,-0.55 0.03,0 0.06,0 0.09,0.01l15.46 0c0.03,-0 0.06,-0.01 0.09,-0.01 0.31,0 0.55,0.25 0.55,0.55 0,0.03 -0,0.06 -0.01,0.09l0 3.61c0.01,0.04 0.02,0.09 0.02,0.13 0,0.31 -0.25,0.55 -0.55,0.55 -0.03,0 -0.07,-0 -0.1,-0.01l-5.07 0 0 15.68c0.01,0.03 0.01,0.06 0.01,0.09 0,0.31 -0.25,0.55 -0.55,0.55 -0.03,0 -0.06,-0 -0.09,-0.01l-4.11 0c-0.03,0 -0.06,0.01 -0.09,0.01 -0.31,0 -0.55,-0.25 -0.55,-0.55 0,-0.03 0,-0.06 0.01,-0.09l-0 -15.68 -5.01 0c-0.03,0 -0.06,0.01 -0.09,0.01 -0.31,0 -0.55,-0.25 -0.55,-0.55 0,-0.03 0,-0.06 0.01,-0.09l-0 -3.65z"/>
   <path class="fil0" d="M6.08 73.29c0,-0.39 0.18,-0.57 0.55,-0.57l8.66 0c0.71,0.01 1.41,0.16 2.05,0.43 0.66,0.29 1.27,0.7 1.79,1.21 0.51,0.51 0.91,1.12 1.19,1.79 0.3,0.67 0.45,1.4 0.45,2.13 0,0.02 -0,0.04 -0,0.06 0,0.01 0,0.03 0,0.04 0,0.61 -0.1,1.21 -0.31,1.79 -0.19,0.55 -0.48,1.06 -0.86,1.5 0.62,0.58 1.13,1.28 1.48,2.05 0.36,0.78 0.55,1.64 0.55,2.5 0,0 0,0 0,0 0,0.08 0.01,0.16 0.01,0.24 0,0.66 -0.12,1.32 -0.35,1.94 -0.3,0.69 -0.72,1.34 -1.23,1.89 -0.52,0.53 -1.13,0.97 -1.81,1.27 -0.67,0.32 -1.41,0.51 -2.16,0.53l-9.46 0c-0.01,0 -0.03,0 -0.04,0 -0.28,0 -0.51,-0.23 -0.51,-0.51 0,-0.02 0,-0.04 0,-0.06l-0 -18.23zm5.03 3.29l0 3.78 2.77 0c0.28,-0 0.56,-0.05 0.82,-0.14 0.23,-0.09 0.45,-0.22 0.64,-0.39 0.17,-0.17 0.31,-0.37 0.41,-0.6 0.09,-0.23 0.14,-0.48 0.14,-0.73 0,-0.01 0,-0.02 0,-0.03 0,-0.01 0,-0.03 0,-0.04 0,-0.24 -0.05,-0.48 -0.14,-0.7 -0.09,-0.23 -0.23,-0.43 -0.41,-0.6 -0.18,-0.17 -0.39,-0.31 -0.62,-0.41 -0.24,-0.1 -0.5,-0.14 -0.76,-0.14 -0.01,0 -0.03,0 -0.04,0l-2.81 0zm0 7.29l0 4.35 3.49 0c0.27,-0 0.54,-0.06 0.78,-0.19 0.24,-0.11 0.46,-0.27 0.64,-0.47 0.19,-0.2 0.33,-0.44 0.43,-0.7 0.11,-0.26 0.16,-0.54 0.16,-0.82 0,-0.01 0,-0.02 0,-0.03 0,-0.26 -0.05,-0.52 -0.14,-0.76 -0.1,-0.26 -0.25,-0.49 -0.43,-0.7 -0.18,-0.21 -0.39,-0.38 -0.64,-0.51 -0.24,-0.12 -0.51,-0.18 -0.79,-0.18 -0,0 -0.01,0 -0.01,0l-3.49 0z"/>
   <path class="fil0" d="M37.12 73.29c0.09,-0.34 0.4,-0.58 0.75,-0.58 0.02,0 0.03,0 0.05,0l3.18 0c0.01,-0 0.02,-0 0.03,-0 0.36,0 0.67,0.23 0.77,0.58l7.04 18.23c0.14,0.37 0,0.57 -0.37,0.57l-3.74 0c-0.01,0 -0.01,0 -0.02,0 -0.35,0 -0.65,-0.24 -0.74,-0.57l-0.92 -2.57 -7.18 0 -0.88 2.57c-0.1,0.34 -0.41,0.57 -0.77,0.57 -0.01,0 -0.02,0 -0.03,-0l-3.82 0c-0.39,0 -0.51,-0.21 -0.37,-0.57l7.02 -18.23zm2.36 5.54l-2.05 5.93 4.11 0 -2.05 -5.93z"/>
   <path class="fil0" d="M63.5 80.18l0 11.29c0,0.37 -0.21,0.57 -0.64,0.57l-3.65 0c-0.02,0 -0.04,0 -0.07,0 -0.28,0 -0.51,-0.23 -0.51,-0.51 0,-0.02 0,-0.04 0,-0.07l-0 -18.19c0,-0 0,-0.01 0,-0.01 0,-0.15 0.05,-0.29 0.14,-0.4 0.1,-0.11 0.25,-0.17 0.39,-0.17 0.01,0 0.02,0 0.04,0l4.23 0c0.01,-0 0.01,-0 0.02,-0 0.18,0 0.35,0.05 0.5,0.14 0.16,0.12 0.3,0.27 0.41,0.43l6.53 10.57 -0 -10.57c0,-0 0,-0.01 0,-0.01 0,-0.15 0.05,-0.29 0.14,-0.4 0.1,-0.11 0.25,-0.17 0.4,-0.17 0.01,0 0.02,0 0.04,0l3.63 0c0.15,0.01 0.3,0.07 0.41,0.16 0.14,0.08 0.23,0.23 0.23,0.39 0,0.01 0,0.01 0,0.02l0 18.23c0,0.37 -0.21,0.57 -0.64,0.57l-3.8 0c-0.39,-0.01 -0.75,-0.23 -0.94,-0.57l-6.86 -11.33z"/>
   <path class="fil0" d="M96.71 80.97l7 10.51c0.12,0.18 0.18,0.33 0.14,0.43 -0.04,0.11 -0.15,0.19 -0.27,0.19 -0.01,0 -0.03,-0 -0.04,-0l-4.95 0c-0.01,0 -0.01,0 -0.02,0 -0.16,0 -0.32,-0.06 -0.45,-0.16 -0.14,-0.11 -0.25,-0.25 -0.33,-0.41l-4.29 -6.65 -1.91 2.32 0 4.33c0,0.02 0,0.04 0,0.07 0,0.28 -0.23,0.51 -0.51,0.51 -0.02,0 -0.04,-0 -0.07,-0l-3.9 0c-0.01,0 -0.03,0 -0.04,0 -0.28,0 -0.51,-0.23 -0.51,-0.51 0,-0.02 0,-0.04 0,-0.06l-0 -18.23c0,-0.01 0,-0.02 0,-0.03 0,-0.15 0.05,-0.29 0.15,-0.4 0.1,-0.09 0.23,-0.15 0.37,-0.15 0.01,0 0.02,0 0.04,0l3.84 0 0.18 0 0.21 0.1c0.08,0.05 0.14,0.11 0.19,0.18 0.01,0.04 0.02,0.08 0.02,0.12 0,0.04 -0.01,0.08 -0.02,0.12l0 7.14 5.6 -7.29c0.11,-0.17 0.27,-0.3 0.45,-0.37 0.08,-0.01 0.17,-0.02 0.26,-0.02 0.09,0 0.17,0.01 0.26,0.02l4.7 0c0.21,0 0.31,0 0.31,0.21 0,0.15 -0.06,0.3 -0.16,0.41l-6.24 7.62z"/>
   <path class="fil0" d="M216.51 12.32l-84.47 0c-3.4,0 -6.16,-2.76 -6.16,-6.16 0,-3.4 2.76,-6.16 6.16,-6.16l84.47 0c3.4,-0 6.16,2.76 6.16,6.16 0,3.4 -2.76,6.16 -6.16,6.16z"/>
   <g>
    <path class="fil0" d="M212.82 26.56l-32.85 76.65c-0.95,2.3 -3.2,3.8 -5.69,3.8 -0.87,0 -1.73,-0.18 -2.52,-0.54l0 0c-2.3,-0.95 -3.8,-3.2 -3.8,-5.69 0,-0.87 0.18,-1.73 0.54,-2.52l32.85 -76.67c0.96,-2.29 3.2,-3.79 5.68,-3.79 0.87,0 1.73,0.19 2.53,0.54l0 0c2.28,0.96 3.77,3.2 3.77,5.67 0,0.84 -0.17,1.67 -0.5,2.43l-0 0.1zm0 0l0 0 0 0z"/>
   </g>
   <g>
    <path class="fil0" d="M189.66 26.56l-21.31 49.84c-0.95,2.3 -3.2,3.8 -5.69,3.8 -0.87,0 -1.73,-0.18 -2.52,-0.54l0 0c-2.28,-0.96 -3.77,-3.2 -3.77,-5.68 0,-0.84 0.17,-1.67 0.5,-2.43l21.39 -49.86c0.96,-2.29 3.2,-3.79 5.68,-3.79 0.87,0 1.73,0.19 2.53,0.54l0 0c2.27,0.97 3.75,3.2 3.75,5.67 0,0.84 -0.17,1.67 -0.5,2.44l-0.06 0zm0 0l0 0 0 0z"/>
   </g>
   <g>
    <path class="fil0" d="M166.67 26.56l-9.83 23.18c-0.96,2.29 -3.2,3.79 -5.68,3.79 -0.87,0 -1.73,-0.19 -2.53,-0.54l0 0c-2.3,-0.95 -3.8,-3.2 -3.8,-5.69 0,-0.87 0.18,-1.73 0.54,-2.52l9.83 -23.18c0.96,-2.29 3.2,-3.79 5.68,-3.79 0.87,0 1.73,0.19 2.53,0.54l0 0c2.28,0.96 3.77,3.2 3.77,5.67 0,0.84 -0.17,1.67 -0.5,2.43l-0 0.1zm0 0l0 0 0 0z"/>
   </g>
  </g>
 </g>
</svg>
