<?xml version="1.0" encoding="UTF-8"?>
<!DOCTYPE svg PUBLIC "-//W3C//DTD SVG 1.1//EN" "http://www.w3.org/Graphics/SVG/1.1/DTD/svg11.dtd">
<!-- Creator: CorelDRAW -->
<svg xmlns="http://www.w3.org/2000/svg" xml:space="preserve" width="1.29269in" height="1.29269in" version="1.1" style="shape-rendering:geometricPrecision; text-rendering:geometricPrecision; image-rendering:optimizeQuality; fill-rule:evenodd; clip-rule:evenodd"
viewBox="0 0 94.97 94.97"
 xmlns:xlink="http://www.w3.org/1999/xlink"
 xmlns:xodm="http://www.corel.com/coreldraw/odm/2003">
 <defs>
  <style type="text/css">
   <![CDATA[
    .fil0 {fill:#303030}
   ]]>
  </style>
 </defs>
 <g id="Layer_x0020_1">
  <metadata id="CorelCorpID_0Corel-Layer"/>
  <g id="_2442665354320">
   <path class="fil0" d="M3.24 91.73l88.49 0 0 -88.49 -88.49 0 0 88.49zm91.73 0l0 3.24 -3.24 0 -88.49 0 -3.24 0 0 -3.24 0 -88.49 0 -3.24 3.24 0 88.49 0 3.24 0 0 3.24 0 88.49z"/>
   <g>
    <path class="fil0" d="M58.64 61.21c-1.18,0.29 -2.74,1.09 -3.19,1.71 -0.65,0.89 1.69,2.72 2.38,2.14 0.36,-0.28 0,-0.31 0.49,-0.69 0.72,-0.55 1.53,-0.83 2.43,-1.09 3.26,-0.92 5.02,-0.15 3.47,-2.13 0.35,0.11 0.76,0.47 0.92,0.93 -0.08,-0.9 -1.03,-1.47 -1.83,-1.6 -0.9,-0.15 -1.76,0.02 -2.65,0.19l-0.01 0.01 -0.92 0.27 -0.71 0.22 -0.39 0.05z"/>
    <path class="fil0" d="M43.18 39.17c0.69,-1.65 -1.3,-3.83 -2.59,-4.02 -2.09,-0.31 -4.13,0.39 -6.07,0.65 -2.75,0.37 -14.15,2.44 -15.12,5.35 -0.54,1.61 1.78,3.63 2.79,3.95 1.41,0.46 6.03,-1.62 6.61,-1.78 0.51,-0.13 0.91,-0.13 1.4,-0.29 0.77,-0.25 1.76,-0.86 2.37,-0.95 -0.37,0.55 -4.3,3.02 -5.2,3.65 -1.73,1.22 -3.6,2.68 -4.85,4.06 -2.24,2.48 -4,2.52 -5.12,3.79 -0.76,0.86 -1.31,1.66 -0.53,3.09 0.37,0.67 1.46,1.9 2.49,2 0.78,0.07 7.33,-3.72 8.88,-4.48 2.75,-1.36 9.54,-4.26 12.5,-5.32 0.93,-0.33 2.71,-0.73 3.23,-1.22 0.17,-0.31 -0.61,-3.27 -2.87,-3.02 -3.52,0.38 -8.51,2.36 -12.02,3.41 -0.79,0.24 -1.52,0.56 -2.24,0.77 0.41,-0.85 6.25,-4.6 7.6,-5.52 1.35,-0.93 2.6,-1.71 4.02,-2.6 3.99,-2.51 3.05,-0.96 4.74,-1.52z"/>
    <path class="fil0" d="M42.98 56.68c0.73,-0.85 -1.12,-2.67 -1.53,-2.9 -1.19,-0.7 -2.57,-0.26 -3.87,0.07 -1.24,0.31 -2.44,0.65 -3.66,0.96 -3.14,0.78 -7.55,2.22 -10.31,3.55 -0.64,0.31 -0.87,0.59 -1.45,0.92 -0.51,0.29 -0.92,0.61 -1.31,0.95 -0.9,0.78 -1.47,1.08 -2.27,2.26 -0.8,1.18 0.81,2.45 1.43,2.8 1.25,0.7 2.42,-0.27 3.31,-0.81 2.48,-1.53 3.16,-2.01 5.9,-3.35 1.66,-0.81 4.78,-2.16 6.51,-2.75 1.51,-0.51 3.78,-1.23 5.36,-1.53 0.69,-0.13 1.63,0.16 1.91,-0.17z"/>
    <path class="fil0" d="M53.42 60.65c0.48,-0.17 1.6,0.37 1.08,-0.72 -0.19,-0.4 -0.69,-0.89 -1.04,-1.09 -1.13,-0.67 -2.12,-0.47 -3.43,-0.15 -1.66,0.4 -5.03,1.31 -6.47,1.98 -0.6,0.28 -0.88,0.55 -0.52,1.32 0.47,1 1.47,1.7 2.58,1.4 1.66,-0.45 2.99,-1.06 4.6,-1.72 1.07,-0.44 2.11,-0.64 3.2,-1.02z"/>
    <path class="fil0" d="M56.08 53.35c-0.18,-0.16 -0.4,-0.36 -0.68,-0.5 -0.49,-0.24 -0.86,-0.22 -1.35,-0.35 -0.59,-2.04 -0.37,-8.53 -0.18,-11.12 0.1,-1.33 0.12,-2.48 0.14,-3.82 0.01,-0.86 0.3,-1.23 -0.77,-2.04 -0.54,-0.41 -1.44,-0.83 -2.18,-0.73 -0.56,0.08 -0.69,0.5 -0.9,1 -0.78,1.86 -1.5,3.62 -2.21,5.58 -0.34,0.93 -0.65,1.48 -1.1,2.8 -0.33,0.97 -0.63,1.93 -0.97,2.93 -0.69,2.04 -1.18,3.96 -1.68,6.11 -0.57,2.43 -1.18,3.57 0.7,4.17 0.48,0.15 1.03,0.52 1.37,0.54 1.17,0.06 4.88,-2.15 5.6,-2.01 0.31,0.14 0.42,1.16 1.51,2.04 0.5,0.4 1.68,1.22 2.58,0.64 0.02,-0.42 -0.43,-0.6 -0.85,-1.57 -0.19,-0.45 -0.57,-1.38 -0.54,-1.89 0.4,-0.15 0.98,-0.31 1.5,-0.3l0 -1.48zm-7.95 0.82c0.4,0.01 1.56,-0.5 1.96,-0.65 1.7,-0.63 0.91,0.41 0.43,-3.65 -0.04,-0.33 -0.18,-1.97 -0.34,-2.24l-2.05 6.55z"/>
    <path class="fil0" d="M74.39 32.81l0.02 0.02c-0,-0 -0.02,-0.01 -0.02,-0.02zm-0.58 32.35l-0.15 0c-0.07,-0 -0.14,-0.01 -0.21,-0.03 -1.22,-0.27 -1.73,-1.34 -2.01,-2.45 -0.16,-0.65 -0.2,-1.26 -0.29,-1.93 -0.05,-0.35 -0.01,-0.77 -0.06,-1.08 -0.12,-0.89 0.09,-2.21 0.1,-3.18 0,-0.28 0.04,-0.3 0.06,-0.52l0.35 -3.53 -0.23 0.56c-0.58,1.6 -1.76,4.32 -2.95,5.5 -0.3,0.3 -0.44,0.49 -0.85,0.69 -1.16,0.57 -2.43,-0.05 -3.18,-0.97 -0.87,-1.07 -1.5,-2.98 -1.79,-4.37 -0.14,-0.64 -0.41,-1.98 -0.41,-2.61l-0.11 0c0,0.33 -0.76,4.66 -0.85,5.82 -0.07,0.82 -0.03,1.45 -0.12,2.39 -0.02,0.23 -0.09,0.43 -0.23,0.57 -0.36,0.35 -2.04,0.86 -2.44,0.87 -0.12,-0.23 -0.22,-0.37 -0.34,-0.57 -0.11,-0.19 -0.18,-0.36 -0.24,-0.61l-0.16 -1.58 0 -0.14c0.01,-0.27 0.06,-0.4 0.06,-0.75l0.22 -2.35c0.15,-1.04 0.29,-2.06 0.45,-3.03 0.57,-3.4 1.61,-9.06 1.61,-12.37 0,-0.38 -0.06,-0.49 -0.06,-0.85 -0,-0.8 -0.22,-1.41 -0.4,-2.17 0.17,-0.08 0.36,-0.1 0.51,-0.17 -0,-0.18 -0.06,-0.5 -0.09,-0.71 -0.03,-0.24 -0.02,-0.47 -0.02,-0.72 0.92,-0.44 1.89,-0.08 2.65,0.49 1.26,0.95 1.43,2.13 1.61,3.58 0.26,2.06 0.4,4.21 0.68,6.23 0.42,3.1 0.62,5.87 1.25,9.02 0.06,0.28 0.1,0.44 0.16,0.7 0.05,0.18 0.14,0.48 0.16,0.7l0.11 0c0.05,-0.23 0.22,-0.5 0.33,-0.76 1.15,-2.9 2.8,-9.44 3.62,-12.47l1.46 -5.04c0.32,-1.15 0.73,-2.26 1.01,-3.26l0.81 -2.38c0.1,-0.27 0.19,-0.54 0.29,-0.79l0.68 -1.43c0.17,0.09 0.43,0.24 0.63,0.29 -0.01,0.45 -0.54,1.55 -0.57,1.88 0.04,-0.04 0.03,-0.03 0.07,-0.1 0.04,-0.07 0.02,-0.03 0.05,-0.12 0.39,-0.91 0.65,-1.71 2.18,-0.94 1.78,0.89 1.39,2.27 1.08,3.74 -1.06,4.93 -2.06,9.73 -2.76,14.76 -0.31,2.21 -0.44,3.88 -0.62,6.11 -0.02,0.22 0.01,0.46 -0.01,0.68 -0.11,1.28 -0.15,4.47 0.02,5.81 0.05,0.37 0.1,0.82 0.16,1.21 0.07,0.43 0.22,0.75 0.22,1.09 -0.22,0.05 -0.48,0.15 -0.68,0.17 0,0.44 0.03,0.71 -0.22,0.92 -0.13,0.12 -0.32,0.2 -0.54,0.22zm0.64 -32.52l0.02 0.02c-0,-0 -0.02,-0.01 -0.02,-0.02zm0.06 -0.17l0.02 0.02c-0,-0 -0.02,-0.01 -0.02,-0.02zm0.06 -0.17l0.02 0.02c-0,-0 -0.02,-0.01 -0.02,-0.02zm0.06 -0.11c0,-0.15 0.09,-0.01 0.03,0 -0,0 -0.03,0.16 -0.03,0zm0.06 -0.17c0,-0.15 0.09,-0.01 0.03,0 -0,0 -0.03,0.16 -0.03,0zm0.11 -0.23l-0.03 0.12 0.03 -0.12zm0.06 -0.17c0,0.27 0,0.11 -0.06,0.17 0,-0.27 -0,-0.11 0.06,-0.17z"/>
   </g>
  </g>
 </g>
</svg>
